<svg width="28" height="20" viewBox="0 0 28 20" fill="none" xmlns="http://www.w3.org/2000/svg">
<rect width="28" height="20" rx="2" fill="white"/>
<mask id="mask0" mask-type="alpha" maskUnits="userSpaceOnUse" x="0" y="0" width="28" height="20">
<rect width="28" height="20" rx="2" fill="white"/>
</mask>
<g mask="url(#mask0)">
<path fill-rule="evenodd" clip-rule="evenodd" d="M28 0V10H0V0H28Z" fill="#29C53F"/>
<path fill-rule="evenodd" clip-rule="evenodd" d="M28 10V20.6667H0V10H28Z" fill="#579DED"/>
<path fill-rule="evenodd" clip-rule="evenodd" d="M0 20L28 10L0 0V20Z" fill="#F42D56"/>
<path d="M12.6667 10C12.6667 12.2091 10.8758 14 8.66667 14C6.45753 14 4.66667 12.2091 4.66667 10C4.66667 7.79086 6.45753 6 8.66667 6C10.8758 6 12.6667 7.79086 12.6667 10Z" stroke="#FFC63C" stroke-width="1.33333"/>
<path fill-rule="evenodd" clip-rule="evenodd" d="M7.99999 9.33333C8.36818 9.33333 8.66666 9.03486 8.66666 8.66667C8.66666 8.29848 8.36818 8 7.99999 8C7.63181 8 7.33333 8.29848 7.33333 8.66667C7.33333 9.03486 7.63181 9.33333 7.99999 9.33333Z" fill="#FFC63C"/>
<path fill-rule="evenodd" clip-rule="evenodd" d="M9.33334 10C9.70153 10 10 9.70152 10 9.33333C10 8.96514 9.70153 8.66666 9.33334 8.66666C8.96515 8.66666 8.66667 8.96514 8.66667 9.33333C8.66667 9.70152 8.96515 10 9.33334 10Z" fill="#FFC63C"/>
<path fill-rule="evenodd" clip-rule="evenodd" d="M8.66667 8.66667C9.03486 8.66667 9.33333 8.36819 9.33333 8C9.33333 7.63181 9.03486 7.33334 8.66667 7.33334C8.29848 7.33334 8 7.63181 8 8C8 8.36819 8.29848 8.66667 8.66667 8.66667Z" fill="#FFC63C"/>
<path fill-rule="evenodd" clip-rule="evenodd" d="M7.99999 10.6667C8.36818 10.6667 8.66666 10.3682 8.66666 10C8.66666 9.63181 8.36818 9.33334 7.99999 9.33334C7.63181 9.33334 7.33333 9.63181 7.33333 10C7.33333 10.3682 7.63181 10.6667 7.99999 10.6667Z" fill="#FFC63C"/>
<path fill-rule="evenodd" clip-rule="evenodd" d="M9.33334 11.3333C9.70153 11.3333 10 11.0349 10 10.6667C10 10.2985 9.70153 10 9.33334 10C8.96515 10 8.66667 10.2985 8.66667 10.6667C8.66667 11.0349 8.96515 11.3333 9.33334 11.3333Z" fill="#FFC63C"/>
<path fill-rule="evenodd" clip-rule="evenodd" d="M7.99999 12C8.36818 12 8.66666 11.7015 8.66666 11.3333C8.66666 10.9651 8.36818 10.6667 7.99999 10.6667C7.63181 10.6667 7.33333 10.9651 7.33333 11.3333C7.33333 11.7015 7.63181 12 7.99999 12Z" fill="#FFC63C"/>
<path fill-rule="evenodd" clip-rule="evenodd" d="M9.33334 12.6667C9.70153 12.6667 10 12.3682 10 12C10 11.6318 9.70153 11.3333 9.33334 11.3333C8.96515 11.3333 8.66667 11.6318 8.66667 12C8.66667 12.3682 8.96515 12.6667 9.33334 12.6667Z" fill="#FFC63C"/>
</g>
</svg>
