<svg width="28" height="20" viewBox="0 0 28 20" fill="none" xmlns="http://www.w3.org/2000/svg">
<path d="M26.1 0H1.9C0.9 0 0 0.9 0 1.9V18C0 19.1 0.9 20 1.9 20H26C27.1 20 27.9 19.1 27.9 18.1V1.9C28 0.9 27.1 0 26.1 0Z" fill="white"/>
<path d="M28 18.1V15.2L4.4 0H1.9C0.9 0 0 0.9 0 1.9V4.4L24.3 20H26.1C27.1 20 28 19.1 28 18.1Z" fill="#0098CE"/>
<path d="M14.4 15.7C11.2 15.7 11.3 12.7 11.3 12.7V8.19995H17.4V12.8C17.4 12.7 17.5 15.7 14.4 15.7Z" fill="#006699"/>
<path d="M14.4 15.7C13.4 15.7 12.7 15.4 12.1 14.9C11.3 14 11.3 12.8 11.3 12.7V8.19995H17.4V12.8C17.4 12.8 17.4 14.1 16.6 15C16.1 15.4 15.3 15.7 14.4 15.7ZM11.3 8.19995V12.8C11.3 12.8 11.3 14.1 12.1 14.9C12.6 15.4 13.4 15.7 14.3 15.7C15.3 15.7 16 15.4 16.6 14.9C17.4 14 17.4 12.8 17.4 12.8V8.19995H11.3Z" fill="black"/>
<path d="M14.3 5.29995C14.3 5.29995 13.6 4.99995 13 5.49995C13 5.49995 11.9 5.29995 11.8 6.39995V6.49995V6.59995C11.8 6.59995 11.8 6.59995 11.8 6.69995C11.8 6.69995 11.8 6.69995 11.8 6.79995C11.8 6.89995 11.8 6.89995 11.8 6.89995C11.9 6.99995 11.9 7.09995 11.9 7.19995C11.9 7.19995 11.9 7.39995 12 7.39995L12.1 7.49995C12.1 7.59995 12.1 7.69995 12.1 7.79995L12.2 7.89995C12.3 7.89995 13 8.19995 14.2 8.19995C15.3 8.19995 15.7 8.09995 16.2 7.89995C16.3 7.89995 16.3 7.79995 16.3 7.79995C16.3 7.79995 16.3 7.69995 16.3 7.59995C16.3 7.59995 16.5 7.39995 16.4 7.29995C16.4 7.29995 16.4 7.19995 16.4 7.09995C16.4 7.09995 16.5 6.89995 16.5 6.79995C16.5 6.69995 16.5 6.69995 16.5 6.59995V6.49995C16.5 6.49995 16.5 6.39995 16.6 6.39995C16.6 6.39995 16.7 6.09995 16.6 5.99995C16.6 5.89995 16.4 5.29995 15.6 5.39995C15.8 5.49995 15.2 5.09995 14.3 5.29995Z" fill="#FF0000"/>
<path d="M14.2 8.1C13.2 8.1 12.5 7.9 12.3 7.8C12.2 7.8 12.2 7.7 12.2 7.7C12.2 7.7 12.2 7.6 12.2 7.5V7.4C12.2 7.3 12.2 7.3 12.1 7.3L12 7.1C12 7.1 12 6.9 11.9 6.8C11.9 6.7 11.9 6.7 11.9 6.7V6.6C11.9 6.6 11.9 6.6 11.9 6.5V6.4C11.9 6.4 11.9 6.3 11.9 6.2C11.9 5.9 12 5.7 12.2 5.5C12.5 5.4 13 5.4 13 5.4C13.6 5 14.2 5.2 14.3 5.2C15.1 5 15.7 5.4 15.8 5.4C16.1 5.4 16.4 5.4 16.6 5.6C16.8 5.7 16.8 5.9 16.8 6C16.8 6.1 16.8 6.4 16.8 6.4C16.8 6.4 16.8 6.5 16.7 6.5V6.6V6.7C16.7 6.7 16.7 6.7 16.7 6.8C16.7 6.9 16.6 7 16.6 7.1V7.2C16.6 7.3 16.5 7.5 16.5 7.5C16.5 7.5 16.5 7.6 16.5 7.7C16.5 7.7 16.5 7.8 16.4 7.8C15.9 8 15.5 8.00001 14.4 8.1C14.3 8.1 14.2 8.1 14.2 8.1ZM12.9 5.4C12.7 5.4 12.4 5.4 12.2 5.6C12 5.8 11.9 6 11.9 6.3V6.4V6.5C11.9 6.5 11.9 6.5 11.9 6.6V6.7C12 6.8 12 6.9 12 7C12 7 12 7.2 12.1 7.2C12.1 7.2 12.2 7.3 12.2 7.4V7.5C12.2 7.6 12.2 7.6 12.2 7.7C12.2 7.7 12.2 7.8 12.3 7.8C12.5 7.9 13.2 8.1 14.3 8.1C15.4 8.1 15.8 8 16.3 7.8C16.4 7.8 16.4 7.7 16.4 7.7C16.4 7.7 16.4 7.6 16.4 7.5C16.4 7.5 16.5 7.3 16.5 7.2C16.5 7.2 16.5 7.1 16.5 7C16.5 7 16.6 6.8 16.6 6.7C16.6 6.7 16.6 6.7 16.6 6.6C16.6 6.5 16.6 6.5 16.6 6.5V6.4C16.6 6.4 16.6 6.3 16.7 6.3C16.7 6.3 16.8 6 16.7 5.9C16.5 5.2 15.8 5.3 15.7 5.3C15.7 5.3 15.1 4.9 14.2 5.1C14.2 5.1 13.5 4.8 12.9 5.2C13 5.4 13 5.4 12.9 5.4Z" fill="black"/>
<path d="M16.5 7.29995C14 6.49995 12.1 7.29995 12.1 7.29995V7.39995L12.2 7.49995V7.59995C12.2 7.59995 12.2 7.79995 12.3 7.79995C12.3 7.79995 14 7.09995 16.3 7.79995L16.4 7.69995C16.4 7.59995 16.4 7.49995 16.4 7.49995L16.5 7.29995Z" fill="#FFCC00"/>
<path d="M14.2 11.4H13.1C13.1 11.4 13 12.4 13.8 12.7V12.8H14V12.9C14 12.9 13.7 13.2 14 13.5V13.6V13.8V14.1C14 14.1 14 15 13.1 15.4V15.5H15.5V15.4C14.6 15 14.6 14.1 14.6 14.1V13.8V13.6V13.5C14.9 13.2 14.6 12.9 14.6 12.9V12.8H14.8V12.7C15.6 12.4 15.5 11.4 15.5 11.4H14.2Z" fill="#FFCC00"/>
<path d="M15.5 15.3H13.1V15.2C14 14.8 14 13.9 14 13.9V13.7V13.5V13.4C13.8 13.1 14 12.8 14 12.8V12.7H13.8V12.6C13 12.3 13.1 11.3 13.1 11.3H15.5C15.5 11.3 15.6 12.3 14.8 12.6V12.7H14.6V12.8C14.6 12.8 14.9 13.1 14.6 13.4V13.5V13.7V13.9C14.6 14 14.7 14.8 15.5 15.3ZM13.2 15.3H15.5C14.6 14.9 14.6 14 14.6 14V13.7V13.5V13.4C14.9 13.1 14.6 12.8 14.6 12.8V12.7H14.8V12.6C15.6 12.3 15.5 11.5 15.5 11.4H13.1C13.1 11.5 13 12.4 13.8 12.6V12.7H14V12.8C14 12.8 13.7 13.1 14 13.4V13.5V13.7V14C14.1 14 14 14.9 13.2 15.3Z" fill="black"/>
<path d="M15.5 15.3H13.2H15.5ZM15.4 15.2H13.3H15.4ZM15 14.9H13.7H15ZM14.6 13.7H14H14.6ZM14.6 13.5H14H14.6ZM14.7 13.5H14H14.7ZM14.6 12.9H14H14.6ZM14.8 12.7H13.8H14.8ZM14.9 12.6H13.9H14.9Z" fill="black"/>
<path d="M14.3 11.3C14.7 11.3 15 11 15 10.6C15 10.2 14.7 9.89996 14.3 9.89996C13.9 9.89996 13.6 10.2 13.6 10.6C13.7 11 14 11.3 14.3 11.3Z" fill="#CCCCCC"/>
<path d="M14.3 11.4C13.9 11.4 13.6 11.1 13.6 10.7C13.6 10.3 14 10 14.3 10C14.7 10 15 10.3 15 10.7C15 11.1 14.7 11.4 14.3 11.4ZM14.3 10C13.9 10 13.6 10.3 13.6 10.7C13.6 11.1 13.9 11.4 14.3 11.4C14.7 11.4 15 11.1 15 10.7C15 10.3 14.7 10 14.3 10Z" fill="black"/>
<path d="M12.8 9.29996H12.4V8.89996H12V9.29996H11.6V9.69996H12V10.1H12.4V9.69996H12.8V9.29996Z" fill="#CCCCCC"/>
<path d="M12.3 10.1H11.9V9.69996H11.5V9.29996H11.9V8.89996H12.3V9.29996H12.7V9.69996H12.3V10.1ZM12 10.1H12.4V9.69996H12.8V9.29996H12.4V8.89996H12V9.29996H11.6V9.69996H12V10.1Z" fill="black"/>
<path d="M17.2 9.29996H16.8V8.89996H16.4V9.29996H16V9.69996H16.4V10.1H16.8V9.69996H17.2V9.29996Z" fill="#CCCCCC"/>
<path d="M16.8 10.1H16.4V9.69996H16V9.29996H16.4V8.89996H16.8V9.29996H17.2V9.69996H16.8V10.1ZM16.4 10.1H16.8V9.69996H17.2V9.29996H16.8V8.89996H16.4V9.29996H16V9.69996H16.4V10.1Z" fill="black"/>
<path d="M14.9 8.79996H14.5V8.39996H14.1V8.79996H13.7V9.19996H14.1V9.59996H14.5V9.19996H14.9V8.79996Z" fill="#CCCCCC"/>
<path d="M14.5 9.59996H14.1V9.19996H13.7V8.79996H14.1V8.39996H14.5V8.79996H15V9.19996H14.6V9.59996H14.5ZM14.1 9.59996H14.5V9.19996H14.9V8.79996H14.5V8.39996H14.1V8.79996H13.7V9.19996H14.1V9.59996Z" fill="black"/>
<path d="M12.8 11.2H12.4V10.8H12V11.2H11.6V11.6H12V12H12.4V11.6H12.8V11.2Z" fill="#CCCCCC"/>
<path d="M12.3 12H11.9V11.6H11.5V11.2H11.9V10.8H12.3V11.2H12.7V11.6H12.3V12ZM12 12H12.4V11.6H12.8V11.2H12.4V10.8H12V11.2H11.6V11.6H12V12Z" fill="black"/>
<path d="M17.2 11.2H16.8V10.8H16.4V11.2H16V11.6H16.4V12H16.8V11.6H17.2V11.2Z" fill="#CCCCCC"/>
<path d="M16.8 12H16.4V11.6H16V11.2H16.4V10.8H16.8V11.2H17.2V11.6H16.8V12ZM16.4 12H16.8V11.6H17.2V11.2H16.8V10.8H16.4V11.2H16V11.6H16.4V12Z" fill="black"/>
<path d="M12.8 13.1H12.4V12.7H12V13.1H11.6V13.5H12V13.9H12.4V13.5H12.8V13.1Z" fill="#CCCCCC"/>
<path d="M12.3 13.9H11.9V13.5H11.5V13H11.9V12.6H12.3V13H12.7V13.4H12.3V13.9ZM12 13.9H12.4V13.5H12.8V13.1H12.4V12.7H12V13.1H11.6V13.5H12V13.9Z" fill="black"/>
<path d="M17.2 13.1H16.8V12.7H16.4V13.1H16V13.5H16.4V13.9H16.8V13.5H17.2V13.1Z" fill="#CCCCCC"/>
<path d="M16.8 13.9H16.4V13.5H16V13H16.4V12.6H16.8V13H17.2V13.4H16.8V13.9ZM16.4 13.9H16.8V13.5H17.2V13.1H16.8V12.7H16.4V13.1H16V13.5H16.4V13.9Z" fill="black"/>
<path d="M14.3 4.39998C14.5 4.39998 14.7 4.19998 14.7 3.99998C14.7 3.79998 14.5 3.59998 14.3 3.59998C14.1 3.59998 13.9 3.79998 13.9 3.99998C13.9 4.19998 14.1 4.39998 14.3 4.39998Z" fill="#167CFF"/>
<path d="M14.3 4.39998C14.1 4.39998 13.9 4.19998 13.9 3.99998C13.9 3.79998 14.1 3.59998 14.3 3.59998C14.5 3.59998 14.7 3.79998 14.7 3.99998C14.8 4.19998 14.6 4.39998 14.3 4.39998ZM14.3 3.59998C14.1 3.59998 13.9 3.79998 13.9 3.99998C13.9 4.19998 14.1 4.39998 14.3 4.39998C14.5 4.39998 14.7 4.19998 14.7 3.99998C14.7 3.69998 14.6 3.59998 14.3 3.59998Z" fill="black"/>
<path d="M14.7 3.89998H14.4V3.29998H14.5V3.19998H14.4V3.09998H14.3V3.19998H14.2V3.29998H14.3V3.79998H14V3.99998H14.3H14.4L14.7 3.89998Z" fill="#FFCC00"/>
<path d="M14.4 3.99998H14.3H14V3.89998H14.3V3.29998H14.2V3.19998H14.3V3.09998H14.4V3.19998H14.5V3.29998H14.4V3.99998L14.7 3.89998V3.99998H14.4ZM14.3 3.99998H14.4H14.7V3.89998H14.4V3.29998H14.5V3.19998H14.4V3.09998H14.3V3.19998H14.2V3.29998H14.3V3.99998L14 3.89998V3.99998H14.3Z" fill="black"/>
<path d="M12.7 4.89998C12.7 4.89998 13 4.89998 13.2 4.89998C13.2 4.89998 13 5.09998 13 5.39998C13 5.59998 13.1 5.59998 13.1 5.69998C13.1 5.79998 13.2 5.89998 13.2 6.09998H13.3C13.3 6.09998 13.4 5.79998 13.3 5.69998C13.2 5.59998 13.2 5.39998 13.3 5.19998C13.4 4.99998 13.5 4.89998 13.5 4.89998C13.7 4.99998 14 4.89998 14.1 4.79998C14.2 4.69998 14.2 4.59998 14.1 4.59998C14 4.59998 13.6 4.59998 13.4 4.79998C13.4 4.79998 13.3 4.69998 12.7 4.69998C12.1 4.79998 11.7 4.99998 11.6 5.49998C11.5 5.79998 11.8 6.29998 12 6.39998V6.29998C12 6.29998 11.6 5.89998 11.7 5.49998C11.8 5.09998 12.2 4.79998 12.7 4.89998Z" fill="#FFCC00"/>
<path d="M11.9 6.39998C11.8 6.29998 11.7 6.19998 11.6 5.99998C11.5 5.79998 11.5 5.59998 11.5 5.49998C11.6 4.99998 12 4.79998 12.6 4.69998C13.1 4.59998 13.2 4.69998 13.3 4.79998C13.5 4.69998 13.7 4.59998 14 4.59998C14.1 4.59998 14.1 4.59998 14.1 4.69998C14.1 4.69998 14.1 4.79998 14 4.79998C13.9 4.89998 13.6 4.89998 13.4 4.89998C13.4 4.89998 13.3 4.99998 13.2 5.19998C13.1 5.39998 13.2 5.59998 13.2 5.69998C13.3 5.79998 13.2 6.09998 13.2 6.09998H13.1C13.1 5.99998 13.1 5.79998 13 5.79998C13 5.69998 12.9 5.59998 12.9 5.49998C12.9 5.19998 13 4.99998 13.1 4.99998C12.9 4.89998 12.6 4.99998 12.6 4.99998C12.1 4.99998 11.7 5.19998 11.6 5.59998C11.5 5.99998 11.9 6.39998 11.9 6.39998C11.9 6.39998 11.9 6.29998 11.9 6.39998ZM12.9 4.69998C12.8 4.69998 12.7 4.69998 12.6 4.69998C12 4.79998 11.6 4.99998 11.5 5.49998C11.4 5.69998 11.7 6.29998 11.9 6.39998V6.29998C11.9 6.29998 11.5 5.89998 11.6 5.49998C11.7 5.09998 12.1 4.89998 12.6 4.89998C12.6 4.89998 12.9 4.89998 13.1 4.89998C13.1 4.89998 12.9 5.09998 12.9 5.39998C12.9 5.59998 13 5.59998 13 5.69998C13 5.79998 13.1 5.89998 13.1 6.09998C13.1 6.09998 13.1 5.79998 13.1 5.69998C13 5.59998 12.9 5.39998 13.1 5.19998C13.2 4.99998 13.3 4.89998 13.3 4.89998C13.5 4.99998 13.8 4.89998 13.9 4.79998C14 4.79998 14 4.69998 14 4.69998C14 4.69998 14 4.69998 13.9 4.69998C13.6 4.69998 13.4 4.69998 13.2 4.89998C13.2 4.89998 13.2 4.89998 13.1 4.79998C13.1 4.69998 13 4.69998 12.9 4.69998Z" fill="black"/>
<path d="M13.7 4.79998C13.8 4.79998 13.9 4.79998 13.9 4.79998C13.9 4.69998 13.8 4.69998 13.7 4.79998C13.6 4.79998 13.5 4.79998 13.5 4.79998C13.6 4.79998 13.6 4.79998 13.7 4.79998Z" fill="white"/>
<path d="M13.3 4.89998C13.4 4.79998 13.4 4.79998 13.5 4.79998C13.6 4.79998 13.7 4.69998 13.8 4.79998H13.9H13.8C13.8 4.79998 13.7 4.79998 13.6 4.79998C13.5 4.79998 13.4 4.79998 13.3 4.89998ZM13.6 4.79998C13.7 4.79998 13.8 4.79998 13.8 4.79998C13.9 4.79998 13.9 4.79998 13.9 4.79998C13.8 4.69998 13.7 4.69998 13.6 4.79998Z" fill="black"/>
<path d="M16 4.89998C16 4.89998 15.7 4.89998 15.5 4.89998C15.5 4.89998 15.7 5.09998 15.7 5.39998C15.7 5.59998 15.6 5.59998 15.6 5.69998C15.6 5.79998 15.5 5.89998 15.5 6.09998H15.4C15.4 6.09998 15.3 5.79998 15.4 5.69998C15.5 5.59998 15.5 5.39998 15.4 5.19998C15.3 4.99998 15.2 4.89998 15.2 4.89998C15 4.99998 14.7 4.89998 14.6 4.79998C14.5 4.69998 14.5 4.59998 14.6 4.59998C14.8 4.59998 15.1 4.59998 15.3 4.79998C15.3 4.79998 15.4 4.69998 16 4.69998C16.6 4.79998 17 4.99998 17.1 5.49998C17.2 5.79998 16.9 6.29998 16.7 6.39998V6.29998C16.7 6.29998 17.1 5.89998 17 5.49998C16.9 5.09998 16.5 4.89998 16 4.89998Z" fill="#FFCC00"/>
<path d="M16.8 6.5C16.8 6.5 16.8 6.4 16.8 6.3C16.8 6.3 17.2 5.9 17.1 5.5C17 5.1 16.6 4.9 16.1 4.9C16.1 4.9 15.8 4.9 15.6 4.9C15.6 4.9 15.8 5.2 15.8 5.4C15.8 5.6 15.7 5.6 15.7 5.7C15.7 5.8 15.6 5.9 15.6 6H15.5C15.5 6 15.4 5.7 15.5 5.6C15.6 5.5 15.7 5.3 15.5 5.1C15.4 4.9 15.3 4.8 15.3 4.8C15.1 4.9 14.8 4.8 14.7 4.7C14.6 4.7 14.6 4.6 14.6 4.6L14.7 4.5C15 4.5 15.2 4.5 15.4 4.7C15.4 4.7 15.6 4.6 16.1 4.6C16.7 4.7 17.1 4.9 17.2 5.4C17.2 5.8 17 6.3 16.8 6.5ZM16.8 6.3V6.4C17 6.3 17.2 5.7 17.2 5.5C17.1 5 16.7 4.8 16.1 4.7C15.8 4.7 15.7 4.7 15.6 4.7C15.5 4.7 15.5 4.8 15.5 4.8C15.3 4.7 15.1 4.6 14.8 4.6C14.7 4.6 14.7 4.6 14.7 4.6C14.7 4.6 14.7 4.7 14.8 4.7C14.9 4.8 15.2 4.8 15.4 4.8C15.4 4.8 15.5 4.9 15.6 5.1C15.7 5.3 15.6 5.5 15.6 5.6C15.5 5.7 15.6 5.9 15.6 6C15.6 5.9 15.6 5.7 15.7 5.6C15.7 5.5 15.8 5.5 15.8 5.3C15.8 5 15.6 4.8 15.6 4.8C15.8 4.7 16.1 4.8 16.1 4.8C16.6 4.8 17 5.1 17.1 5.4C17.1 5.9 16.8 6.3 16.8 6.3Z" fill="black"/>
<path d="M15.3 4.99999C15.2 4.89999 15.2 4.89999 15.1 4.89999C15 4.89999 14.9 4.89999 14.9 4.89999C14.8 4.89999 14.8 4.89999 14.8 4.89999C14.8 4.89999 14.8 4.89999 14.9 4.89999C15 4.89999 15.1 4.89999 15.2 4.89999C15.2 4.79999 15.3 4.89999 15.3 4.99999ZM14.9 4.79999C14.8 4.79999 14.8 4.79999 14.8 4.79999C14.8 4.79999 14.8 4.79999 14.9 4.79999C15 4.89999 15 4.89999 15.1 4.79999C15.1 4.79999 15 4.79999 14.9 4.79999Z" fill="black"/>
<path d="M14.1 4.6V5.8C14.1 5.9 14.2 6.1 14.4 6.1C14.4 6.1 14.7 6 14.7 5.8V4.5H14.6V5.6C14.6 5.7 14.5 5.9 14.4 5.9C14.4 5.9 14.2 5.9 14.2 5.6L14.1 4.6Z" fill="#FFCC00"/>
<path d="M14.3 6.09998C14.2 6.09998 14 5.89998 14 5.79998V4.59998H14.1V5.69998C14.1 5.99998 14.3 5.99998 14.3 5.99998C14.4 5.99998 14.5 5.79998 14.5 5.69998V4.59998H14.6V5.79998C14.6 5.99998 14.3 6.09998 14.3 6.09998ZM14.1 4.59998V5.79998C14.1 5.89998 14.2 6.09998 14.3 6.09998C14.3 6.09998 14.6 5.99998 14.6 5.79998V4.59998H14.5V5.69998C14.5 5.79998 14.4 5.99998 14.3 5.99998C14.3 5.99998 14.1 5.99998 14.1 5.69998V4.59998Z" fill="black"/>
<path d="M11.5 6.2C11.6 6.2 11.6 6.1 11.6 6.1C11.6 6 11.5 6 11.5 6C11.4 6 11.4 6.1 11.4 6.1C11.3 6.1 11.4 6.2 11.5 6.2Z" fill="white"/>
<path d="M11.5 6.19996C11.4 6.19996 11.4 6.09996 11.4 6.09996C11.4 5.99996 11.5 5.99996 11.5 5.99996C11.6 5.99996 11.6 6.09996 11.6 6.09996L11.5 6.19996ZM11.5 5.89996C11.4 5.89996 11.4 5.99996 11.4 5.99996C11.4 6.09996 11.5 6.09996 11.5 6.09996C11.6 6.09996 11.6 5.99996 11.6 5.99996L11.5 5.89996Z" fill="black"/>
<path d="M11.4 5.79998C11.5 5.79998 11.5 5.69998 11.5 5.69998C11.5 5.59998 11.4 5.59998 11.4 5.59998C11.3 5.59998 11.3 5.69998 11.3 5.69998C11.3 5.69998 11.3 5.79998 11.4 5.79998Z" fill="white"/>
<path d="M11.4 5.79998C11.3 5.79998 11.3 5.69998 11.3 5.69998C11.3 5.59998 11.4 5.59998 11.4 5.59998C11.5 5.59998 11.5 5.69998 11.5 5.69998C11.5 5.79998 11.5 5.79998 11.4 5.79998ZM11.4 5.59998C11.3 5.59998 11.3 5.69998 11.3 5.69998C11.3 5.79998 11.4 5.79998 11.4 5.79998C11.5 5.79998 11.5 5.69998 11.5 5.69998C11.5 5.59998 11.4 5.59998 11.4 5.59998Z" fill="black"/>
<path d="M11.4 5.39995C11.5 5.39995 11.5 5.29995 11.5 5.29995C11.5 5.19995 11.4 5.19995 11.4 5.19995C11.3 5.19995 11.3 5.29995 11.3 5.29995C11.3 5.39995 11.3 5.39995 11.4 5.39995Z" fill="white"/>
<path d="M11.4 5.49995C11.3 5.49995 11.3 5.39995 11.3 5.39995C11.3 5.29995 11.4 5.29995 11.4 5.29995C11.5 5.29995 11.5 5.39995 11.5 5.39995C11.6 5.39995 11.5 5.49995 11.4 5.49995ZM11.4 5.19995C11.3 5.19995 11.3 5.29995 11.3 5.29995C11.3 5.39995 11.4 5.39995 11.4 5.39995C11.5 5.39995 11.5 5.29995 11.5 5.29995C11.6 5.19995 11.5 5.19995 11.4 5.19995Z" fill="black"/>
<path d="M11.6 5.09996C11.7 5.09996 11.7 4.99996 11.7 4.99996C11.7 4.89996 11.6 4.89996 11.6 4.89996C11.5 4.89996 11.5 4.99996 11.5 4.99996C11.5 5.09996 11.6 5.09996 11.6 5.09996Z" fill="white"/>
<path d="M11.6 5.09996C11.5 5.09996 11.5 4.99996 11.5 4.99996C11.5 4.89996 11.6 4.89996 11.6 4.89996C11.7 4.89996 11.7 4.99996 11.7 4.99996C11.8 5.09996 11.7 5.09996 11.6 5.09996ZM11.6 4.89996C11.5 4.89996 11.5 4.99996 11.5 4.99996C11.5 5.09996 11.6 5.09996 11.6 5.09996C11.7 5.09996 11.7 4.99996 11.7 4.99996C11.8 4.89996 11.7 4.89996 11.6 4.89996Z" fill="black"/>
<path d="M11.9 4.89998C12 4.89998 12 4.79998 12 4.69998C12 4.59998 11.9 4.59998 11.9 4.59998L11.8 4.69998C11.8 4.79998 11.8 4.89998 11.9 4.89998Z" fill="white"/>
<path d="M11.9 4.89998C11.8 4.89998 11.8 4.79998 11.8 4.79998C11.8 4.69998 11.9 4.69998 11.9 4.69998C12 4.59998 12 4.69998 12 4.69998C12 4.79998 12 4.89998 11.9 4.89998ZM11.9 4.59998C11.8 4.59998 11.8 4.69998 11.8 4.69998C11.8 4.79998 11.9 4.79998 11.9 4.79998C12 4.89998 12 4.79998 12 4.69998C12 4.69998 12 4.59998 11.9 4.59998Z" fill="black"/>
<path d="M12.2 4.79998C12.3 4.79998 12.3 4.69998 12.3 4.69998C12.3 4.59998 12.2 4.59998 12.2 4.59998L12.1 4.69998L12.2 4.79998Z" fill="white"/>
<path d="M12.2 4.8C12.1 4.8 12.1 4.7 12.1 4.7C12.1 4.6 12.2 4.6 12.2 4.6C12.3 4.6 12.3 4.7 12.3 4.7C12.4 4.7 12.3 4.8 12.2 4.8ZM12.2 4.5C12.1 4.5 12.1 4.6 12.1 4.6C12.1 4.7 12.2 4.7 12.2 4.7C12.3 4.7 12.3 4.6 12.3 4.6C12.4 4.5 12.3 4.5 12.2 4.5Z" fill="black"/>
<path d="M12.6 4.7C12.7 4.7 12.7 4.6 12.7 4.6C12.7 4.5 12.6 4.5 12.6 4.5L12.5 4.6C12.4 4.6 12.5 4.7 12.6 4.7Z" fill="white"/>
<path d="M12.6 4.69996C12.5 4.69996 12.5 4.59996 12.5 4.59996C12.5 4.49996 12.6 4.49996 12.6 4.49996C12.7 4.49996 12.7 4.59996 12.7 4.59996C12.7 4.59996 12.7 4.69996 12.6 4.69996ZM12.6 4.39996C12.5 4.39996 12.5 4.49996 12.5 4.49996C12.5 4.59996 12.6 4.59996 12.6 4.59996C12.7 4.59996 12.7 4.49996 12.7 4.49996L12.6 4.39996Z" fill="black"/>
<path d="M12.9 4.69996C13 4.69996 13 4.59996 13 4.49996C13 4.39996 12.9 4.39996 12.9 4.39996C12.8 4.39996 12.8 4.49996 12.8 4.49996C12.8 4.59996 12.8 4.69996 12.9 4.69996Z" fill="white"/>
<path d="M12.9 4.69996C12.8 4.69996 12.8 4.59996 12.8 4.59996C12.8 4.49996 12.9 4.49996 12.9 4.49996C13 4.49996 13 4.59996 13 4.59996C13.1 4.59996 13 4.69996 12.9 4.69996ZM12.9 4.39996C12.8 4.39996 12.8 4.49996 12.8 4.49996C12.8 4.59996 12.9 4.59996 12.9 4.59996C13 4.69996 13 4.59996 13 4.49996C13 4.49996 13 4.39996 12.9 4.39996Z" fill="black"/>
<path d="M13.2 4.7C13.3 4.7 13.3 4.6 13.3 4.6C13.3 4.5 13.2 4.5 13.2 4.5C13.1 4.5 13.1 4.6 13.1 4.6C13.1 4.6 13.1 4.7 13.2 4.7Z" fill="white"/>
<path d="M13.2 4.69996C13.1 4.69996 13.1 4.59996 13.1 4.59996C13.1 4.49996 13.2 4.49996 13.2 4.49996L13.3 4.59996C13.4 4.59996 13.3 4.69996 13.2 4.69996ZM13.2 4.39996C13.1 4.39996 13.1 4.49996 13.1 4.49996C13.1 4.59996 13.2 4.59996 13.2 4.59996L13.3 4.49996C13.3 4.49996 13.3 4.39996 13.2 4.39996Z" fill="black"/>
<path d="M14.1 4.59996C14.2 4.59996 14.2 4.49996 14.2 4.49996C14.2 4.39996 14.1 4.39996 14.1 4.39996C14 4.39996 14 4.49996 14 4.49996C14 4.49996 14 4.59996 14.1 4.59996Z" fill="white"/>
<path d="M14.1 4.59999C14 4.59999 14 4.49999 14 4.49999L14.1 4.39999C14.2 4.39999 14.2 4.49999 14.2 4.49999L14.1 4.59999ZM14.1 4.29999C14 4.29999 14 4.39999 14 4.39999L14.1 4.49999C14.2 4.49999 14.2 4.39999 14.2 4.39999L14.1 4.29999Z" fill="black"/>
<path d="M14.3 4.7C14.4 4.7 14.4 4.6 14.4 4.6C14.4 4.5 14.3 4.5 14.3 4.5L14.2 4.6C14.2 4.6 14.2 4.7 14.3 4.7Z" fill="white"/>
<path d="M14.3 4.69996C14.2 4.69996 14.2 4.59996 14.2 4.59996L14.3 4.49996C14.4 4.49996 14.4 4.59996 14.4 4.59996C14.4 4.59996 14.4 4.69996 14.3 4.69996ZM14.3 4.39996C14.2 4.39996 14.2 4.49996 14.2 4.49996C14.2 4.59996 14.3 4.59996 14.3 4.59996C14.4 4.59996 14.4 4.49996 14.4 4.49996C14.5 4.49996 14.4 4.39996 14.3 4.39996Z" fill="black"/>
<path d="M14.3 5.7C14.4 5.7 14.4 5.6 14.4 5.6C14.4 5.5 14.3 5.5 14.3 5.5L14.2 5.6C14.2 5.6 14.2 5.7 14.3 5.7Z" fill="white"/>
<path d="M14.3 5.69996C14.2 5.69996 14.2 5.59996 14.2 5.59996C14.2 5.49996 14.3 5.49996 14.3 5.49996C14.4 5.49996 14.4 5.59996 14.4 5.59996C14.5 5.59996 14.4 5.69996 14.3 5.69996ZM14.3 5.39996C14.2 5.39996 14.2 5.49996 14.2 5.49996C14.2 5.59996 14.3 5.59996 14.3 5.59996C14.4 5.59996 14.4 5.49996 14.4 5.49996C14.5 5.49996 14.4 5.39996 14.3 5.39996Z" fill="black"/>
<path d="M17.2 6.3C17.3 6.3 17.3 6.2 17.3 6.2C17.4 6 17.3 6 17.2 6C17.1 6 17.1 6.1 17.1 6.1C17.1 6.2 17.2 6.3 17.2 6.3Z" fill="white"/>
<path d="M17.2 6.3C17.1 6.3 17.1 6.2 17.1 6.2C17.1 6 17.1 6 17.2 6C17.3 6 17.3 6.1 17.3 6.1C17.4 6.2 17.3 6.3 17.2 6.3ZM17.2 6C17.1 6 17.1 6.1 17.1 6.1C17.1 6.2 17.2 6.2 17.2 6.2C17.3 6.2 17.3 6.1 17.3 6.1C17.4 6 17.3 6 17.2 6Z" fill="black"/>
<path d="M17.3 5.89995C17.4 5.89995 17.4 5.79995 17.4 5.79995C17.4 5.69995 17.3 5.69995 17.3 5.69995C17.2 5.69995 17.2 5.79995 17.2 5.79995C17.2 5.79995 17.2 5.89995 17.3 5.89995Z" fill="white"/>
<path d="M17.3 5.89998C17.2 5.89998 17.2 5.79998 17.2 5.79998C17.2 5.69998 17.3 5.69998 17.3 5.69998C17.4 5.69998 17.4 5.79998 17.4 5.79998C17.5 5.79998 17.4 5.89998 17.3 5.89998ZM17.3 5.59998C17.2 5.59998 17.2 5.69998 17.2 5.69998C17.2 5.79998 17.3 5.79998 17.3 5.79998C17.4 5.79998 17.4 5.69998 17.4 5.69998C17.4 5.69998 17.4 5.59998 17.3 5.59998Z" fill="black"/>
<path d="M17.2 5.49999C17.3 5.49999 17.3 5.39999 17.3 5.39999C17.3 5.29999 17.2 5.29999 17.2 5.29999C17.1 5.29999 17.1 5.39999 17.1 5.39999C17.1 5.49999 17.2 5.49999 17.2 5.49999Z" fill="white"/>
<path d="M17.2 5.49999C17.1 5.49999 17.1 5.39999 17.1 5.39999C17.1 5.29999 17.2 5.29999 17.2 5.29999C17.3 5.29999 17.3 5.39999 17.3 5.39999C17.4 5.49999 17.3 5.49999 17.2 5.49999ZM17.2 5.29999C17.1 5.29999 17.1 5.39999 17.1 5.39999C17.1 5.49999 17.2 5.49999 17.2 5.49999C17.3 5.49999 17.3 5.39999 17.3 5.39999C17.4 5.29999 17.3 5.29999 17.2 5.29999Z" fill="black"/>
<path d="M17.1 5.2C17.2 5.2 17.2 5.1 17.2 5.1C17.2 5 17.1 5 17.1 5C17 5 17 5.1 17 5.1C16.9 5.1 17 5.2 17.1 5.2Z" fill="white"/>
<path d="M17.1 5.19996C17 5.19996 17 5.09996 17 5.09996C17 4.99996 17.1 4.99996 17.1 4.99996C17.2 4.99996 17.2 5.09996 17.2 5.09996C17.2 5.09996 17.2 5.19996 17.1 5.19996ZM17.1 4.89996C17 4.89996 17 4.99996 17 5.09996C17 5.19996 17.1 5.19996 17.1 5.19996C17.2 5.19996 17.2 5.09996 17.2 5.09996C17.2 4.99996 17.2 4.89996 17.1 4.89996Z" fill="black"/>
<path d="M16.8 4.99995C16.9 4.99995 17 4.89995 17 4.79995C17 4.69995 16.9 4.69995 16.9 4.69995L16.8 4.79995C16.7 4.89995 16.8 4.99995 16.8 4.99995Z" fill="white"/>
<path d="M16.8 4.99995C16.7 4.99995 16.7 4.89995 16.7 4.89995C16.7 4.79995 16.8 4.79995 16.8 4.79995C16.9 4.79995 16.9 4.89995 16.9 4.89995C17 4.89995 16.9 4.99995 16.8 4.99995ZM16.8 4.69995C16.7 4.69995 16.7 4.79995 16.7 4.79995C16.7 4.89995 16.8 4.89995 16.8 4.89995C16.9 4.89995 16.9 4.79995 16.9 4.79995C17 4.69995 16.9 4.69995 16.8 4.69995Z" fill="black"/>
<path d="M16.5 4.79998C16.6 4.79998 16.6 4.69998 16.6 4.69998C16.6 4.59998 16.5 4.59998 16.5 4.59998C16.4 4.59998 16.4 4.69998 16.4 4.69998C16.4 4.69998 16.4 4.79998 16.5 4.79998Z" fill="white"/>
<path d="M16.5 4.8C16.4 4.8 16.4 4.7 16.4 4.7C16.4 4.6 16.5 4.6 16.5 4.6C16.6 4.6 16.6 4.7 16.6 4.7C16.7 4.7 16.6 4.8 16.5 4.8ZM16.5 4.5C16.4 4.5 16.4 4.6 16.4 4.6C16.4 4.7 16.5 4.7 16.5 4.7C16.6 4.7 16.6 4.6 16.6 4.6C16.7 4.6 16.6 4.5 16.5 4.5Z" fill="black"/>
<path d="M16.2 4.7C16.3 4.7 16.3 4.6 16.3 4.6C16.3 4.5 16.2 4.5 16.2 4.5C16.1 4.5 16.1 4.6 16.1 4.6C16 4.7 16.1 4.7 16.2 4.7Z" fill="white"/>
<path d="M16.2 4.7C16.1 4.7 16.1 4.6 16.1 4.6C16.1 4.5 16.2 4.5 16.2 4.5C16.3 4.5 16.3 4.6 16.3 4.6C16.3 4.7 16.2 4.7 16.2 4.7ZM16.2 4.5C16.1 4.5 16.1 4.6 16.1 4.6C16.1 4.7 16.2 4.7 16.2 4.7C16.3 4.7 16.3 4.6 16.3 4.6C16.3 4.5 16.2 4.5 16.2 4.5Z" fill="black"/>
<path d="M15.8 4.7C15.9 4.7 15.9 4.6 15.9 4.6C15.9 4.5 15.8 4.5 15.8 4.5C15.7 4.5 15.7 4.6 15.7 4.6C15.7 4.6 15.8 4.7 15.8 4.7Z" fill="white"/>
<path d="M15.8 4.69996C15.7 4.69996 15.7 4.59996 15.7 4.59996C15.7 4.49996 15.8 4.49996 15.8 4.49996C15.9 4.49996 15.9 4.59996 15.9 4.59996C16 4.59996 15.9 4.69996 15.8 4.69996ZM15.8 4.39996C15.7 4.39996 15.7 4.49996 15.7 4.49996C15.7 4.59996 15.8 4.59996 15.8 4.59996C15.9 4.59996 15.9 4.49996 15.9 4.49996C16 4.49996 15.9 4.39996 15.8 4.39996Z" fill="black"/>
<path d="M15.5 4.7C15.6 4.7 15.6 4.6 15.6 4.6C15.6 4.5 15.5 4.5 15.5 4.5C15.4 4.5 15.4 4.6 15.4 4.6L15.5 4.7Z" fill="white"/>
<path d="M15.5 4.69996C15.4 4.69996 15.4 4.59996 15.4 4.59996C15.4 4.49996 15.5 4.49996 15.5 4.49996C15.6 4.49996 15.6 4.59996 15.6 4.59996C15.7 4.59996 15.6 4.69996 15.5 4.69996ZM15.5 4.39996C15.4 4.39996 15.4 4.49996 15.4 4.49996C15.4 4.59996 15.5 4.59996 15.5 4.59996C15.6 4.59996 15.6 4.49996 15.6 4.49996C15.7 4.39996 15.6 4.39996 15.5 4.39996Z" fill="black"/>
<path d="M15.7 5.79998C15.8 5.79998 15.8 5.69998 15.8 5.69998C15.8 5.59998 15.7 5.59998 15.7 5.59998C15.6 5.59998 15.6 5.69998 15.6 5.69998L15.7 5.79998Z" fill="white"/>
<path d="M15.7 5.8C15.6 5.8 15.6 5.7 15.6 5.7C15.6 5.6 15.7 5.6 15.7 5.6C15.8 5.6 15.8 5.7 15.8 5.7C15.9 5.7 15.8 5.8 15.7 5.8ZM15.7 5.5C15.6 5.5 15.6 5.6 15.6 5.6C15.6 5.7 15.7 5.7 15.7 5.7C15.8 5.7 15.8 5.6 15.8 5.6C15.9 5.6 15.8 5.5 15.7 5.5Z" fill="black"/>
<path d="M15.8 5.49999C15.9 5.49999 15.9 5.39999 15.9 5.39999C15.9 5.29999 15.8 5.29999 15.8 5.29999C15.7 5.29999 15.7 5.39999 15.7 5.39999C15.7 5.49999 15.7 5.49999 15.8 5.49999Z" fill="white"/>
<path d="M15.8 5.49999C15.7 5.49999 15.7 5.39999 15.7 5.39999L15.8 5.29999C15.9 5.29999 15.9 5.39999 15.9 5.39999C15.9 5.39999 15.9 5.49999 15.8 5.49999ZM15.8 5.29999C15.7 5.29999 15.7 5.39999 15.7 5.39999C15.7 5.49999 15.8 5.49999 15.8 5.49999C15.9 5.49999 15.9 5.39999 15.9 5.39999C15.9 5.29999 15.9 5.29999 15.8 5.29999Z" fill="black"/>
<path d="M14.6 4.59996C14.7 4.59996 14.7 4.49996 14.7 4.49996C14.7 4.39996 14.6 4.39996 14.6 4.39996C14.5 4.39996 14.5 4.49996 14.5 4.49996C14.5 4.59996 14.6 4.59996 14.6 4.59996Z" fill="white"/>
<path d="M14.6 4.59996C14.5 4.59996 14.5 4.49996 14.5 4.49996C14.5 4.39996 14.6 4.39996 14.6 4.39996C14.7 4.39996 14.7 4.49996 14.7 4.49996C14.8 4.59996 14.7 4.59996 14.6 4.59996ZM14.6 4.39996C14.5 4.39996 14.5 4.49996 14.5 4.49996C14.5 4.59996 14.6 4.59996 14.6 4.59996C14.7 4.59996 14.7 4.49996 14.7 4.49996C14.8 4.39996 14.7 4.39996 14.6 4.39996Z" fill="black"/>
<path d="M13.9 4.59996C14 4.59996 14 4.49996 14 4.49996C14 4.39996 13.9 4.39996 13.9 4.39996C13.8 4.39996 13.8 4.49996 13.8 4.49996L13.9 4.59996Z" fill="white"/>
<path d="M13.9 4.59999C13.8 4.59999 13.8 4.49999 13.8 4.49999C13.8 4.39999 13.9 4.39999 13.9 4.39999C14 4.39999 14 4.49999 14 4.49999C14.1 4.49999 14 4.59999 13.9 4.59999ZM13.9 4.29999C13.8 4.29999 13.8 4.39999 13.8 4.39999C13.8 4.49999 13.9 4.49999 13.9 4.49999C14 4.49999 14 4.39999 14 4.39999C14.1 4.39999 14 4.29999 13.9 4.29999Z" fill="black"/>
<path d="M13.8 4.59996C13.9 4.59996 13.9 4.49996 13.9 4.49996C13.9 4.39996 13.8 4.39996 13.8 4.39996L13.7 4.49996C13.6 4.49996 13.7 4.59996 13.8 4.59996Z" fill="white"/>
<path d="M13.8 4.59999C13.7 4.59999 13.7 4.49999 13.7 4.49999C13.7 4.39999 13.8 4.39999 13.8 4.39999C13.9 4.39999 13.9 4.49999 13.9 4.49999C13.9 4.49999 13.9 4.59999 13.8 4.59999ZM13.8 4.29999C13.7 4.29999 13.7 4.39999 13.7 4.39999C13.7 4.49999 13.8 4.49999 13.8 4.49999C13.9 4.49999 13.9 4.39999 13.9 4.39999C13.9 4.39999 13.9 4.29999 13.8 4.29999Z" fill="black"/>
<path d="M12.9 5.79998C13 5.79998 13 5.69998 13 5.69998C13 5.59998 12.9 5.59998 12.9 5.59998C12.8 5.59998 12.8 5.69998 12.8 5.69998C12.7 5.69998 12.8 5.79998 12.9 5.79998Z" fill="white"/>
<path d="M12.9 5.8C12.8 5.8 12.8 5.7 12.8 5.7C12.8 5.6 12.9 5.6 12.9 5.6C13 5.5 13 5.6 13 5.7C13 5.8 13 5.8 12.9 5.8ZM12.9 5.5C12.8 5.5 12.8 5.6 12.8 5.6C12.8 5.7 12.9 5.7 12.9 5.7C13 5.8 13 5.7 13 5.7C13 5.6 13 5.5 12.9 5.5Z" fill="black"/>
<path d="M12.8 5.49999C12.9 5.49999 12.9 5.39999 12.9 5.39999C12.9 5.29999 12.8 5.29999 12.8 5.29999C12.7 5.29999 12.7 5.39999 12.7 5.39999C12.7 5.39999 12.8 5.49999 12.8 5.49999Z" fill="white"/>
<path d="M12.8 5.49995C12.7 5.49995 12.7 5.39995 12.7 5.39995L12.8 5.29995C12.9 5.29995 12.9 5.39995 12.9 5.39995C12.9 5.39995 12.9 5.49995 12.8 5.49995ZM12.8 5.19995C12.7 5.19995 12.7 5.29995 12.7 5.29995C12.7 5.39995 12.8 5.39995 12.8 5.39995C12.9 5.39995 12.9 5.29995 12.9 5.29995C13 5.29995 12.9 5.19995 12.8 5.19995Z" fill="black"/>
<path d="M12.9 5.2C13 5.2 13 5.1 13 5.1C13 5 12.9 5 12.9 5C12.8 5 12.8 5.1 12.8 5.1L12.9 5.2Z" fill="white"/>
<path d="M12.9 5.19996C12.8 5.19996 12.8 5.09996 12.8 5.09996C12.8 4.99996 12.9 4.99996 12.9 4.99996C13 4.99996 13 5.09996 13 5.09996C13.1 5.09996 13 5.19996 12.9 5.19996ZM12.9 4.89996C12.8 4.89996 12.8 4.99996 12.8 4.99996C12.8 5.09996 12.9 5.09996 12.9 5.09996C13 5.09996 13 4.99996 13 4.99996C13.1 4.89996 13 4.89996 12.9 4.89996Z" fill="black"/>
<path d="M13.6 4.59996C13.7 4.59996 13.7 4.49996 13.7 4.49996C13.7 4.39996 13.6 4.39996 13.6 4.39996C13.5 4.39996 13.5 4.49996 13.5 4.49996C13.4 4.59996 13.5 4.59996 13.6 4.59996Z" fill="white"/>
<path d="M13.6 4.59996C13.5 4.59996 13.5 4.49996 13.5 4.49996C13.5 4.39996 13.6 4.39996 13.6 4.39996C13.7 4.39996 13.7 4.49996 13.7 4.49996C13.7 4.59996 13.6 4.59996 13.6 4.59996ZM13.6 4.39996C13.5 4.39996 13.5 4.49996 13.5 4.49996C13.5 4.59996 13.6 4.59996 13.6 4.59996C13.7 4.59996 13.7 4.49996 13.7 4.49996C13.7 4.39996 13.6 4.39996 13.6 4.39996Z" fill="black"/>
<path d="M13.3 4.7C13.4 4.7 13.4 4.6 13.4 4.6C13.4 4.5 13.3 4.5 13.3 4.5C13.2 4.5 13.2 4.6 13.2 4.6C13.2 4.7 13.3 4.7 13.3 4.7Z" fill="white"/>
<path d="M13.3 4.69996C13.2 4.69996 13.2 4.59996 13.2 4.59996C13.2 4.49996 13.3 4.49996 13.3 4.49996C13.4 4.49996 13.4 4.59996 13.4 4.59996C13.5 4.69996 13.4 4.69996 13.3 4.69996ZM13.3 4.39996C13.2 4.39996 13.2 4.49996 13.2 4.49996C13.2 4.59996 13.3 4.59996 13.3 4.59996C13.4 4.59996 13.4 4.49996 13.4 4.49996C13.5 4.49996 13.4 4.39996 13.3 4.39996Z" fill="black"/>
<path d="M13.1 4.89999C13.2 4.89999 13.2 4.79999 13.2 4.79999C13.2 4.69999 13.1 4.69999 13.1 4.69999C13 4.59999 13 4.69999 13 4.79999C13 4.79999 13 4.89999 13.1 4.89999Z" fill="white"/>
<path d="M13.1 4.89998C13 4.89998 13 4.89998 13 4.79998C13 4.69998 13.1 4.69998 13.1 4.69998C13.2 4.69998 13.2 4.79998 13.2 4.79998C13.3 4.89998 13.2 4.89998 13.1 4.89998ZM13.1 4.59998C13 4.59998 13 4.69998 13 4.79998C13 4.89998 13.1 4.89998 13.1 4.89998C13.2 4.89998 13.2 4.79998 13.2 4.79998C13.2 4.69998 13.2 4.59998 13.1 4.59998Z" fill="black"/>
<path d="M14.3 4.79998C14.4 4.79998 14.4 4.69998 14.4 4.69998C14.4 4.59998 14.3 4.59998 14.3 4.59998L14.2 4.69998C14.2 4.79998 14.2 4.79998 14.3 4.79998Z" fill="white"/>
<path d="M14.3 4.79998C14.2 4.79998 14.2 4.69998 14.2 4.69998C14.2 4.59998 14.3 4.59998 14.3 4.59998C14.4 4.59998 14.4 4.69998 14.4 4.69998C14.5 4.79998 14.4 4.79998 14.3 4.79998ZM14.3 4.59998C14.2 4.59998 14.2 4.69998 14.2 4.69998C14.2 4.79998 14.3 4.79998 14.3 4.79998C14.4 4.79998 14.4 4.69998 14.4 4.69998C14.5 4.59998 14.4 4.59998 14.3 4.59998Z" fill="black"/>
<path d="M14.3 5.09996C14.4 5.09996 14.4 4.99996 14.4 4.99996C14.4 4.89996 14.3 4.89996 14.3 4.89996C14.3 4.89996 14.2 4.89996 14.2 4.99996C14.2 4.99996 14.2 5.09996 14.3 5.09996Z" fill="white"/>
<path d="M14.3 5.09999C14.2 5.09999 14.2 4.99999 14.2 4.99999L14.3 4.89999C14.4 4.89999 14.4 4.99999 14.4 4.99999C14.4 4.99999 14.4 5.09999 14.3 5.09999ZM14.3 4.79999C14.2 4.79999 14.2 4.89999 14.2 4.89999C14.2 4.99999 14.3 4.99999 14.3 4.99999C14.4 4.99999 14.4 4.89999 14.4 4.89999C14.5 4.89999 14.4 4.79999 14.3 4.79999Z" fill="black"/>
<path d="M14.3 5.39995C14.4 5.39995 14.4 5.29995 14.4 5.29995C14.4 5.19995 14.3 5.19995 14.3 5.19995L14.2 5.29995C14.2 5.29995 14.2 5.39995 14.3 5.39995Z" fill="white"/>
<path d="M14.3 5.39998C14.2 5.39998 14.2 5.29998 14.2 5.29998L14.3 5.19998C14.4 5.19998 14.4 5.29998 14.4 5.29998C14.4 5.29998 14.4 5.39998 14.3 5.39998ZM14.3 5.09998C14.2 5.09998 14.2 5.19998 14.2 5.19998L14.3 5.29998C14.4 5.29998 14.4 5.19998 14.4 5.19998C14.4 5.19998 14.4 5.09998 14.3 5.09998Z" fill="black"/>
<path d="M14.8 4.59996C14.9 4.59996 14.9 4.49996 14.9 4.49996C14.9 4.39996 14.8 4.39996 14.8 4.39996C14.7 4.39996 14.7 4.49996 14.7 4.49996C14.7 4.49996 14.7 4.59996 14.8 4.59996Z" fill="white"/>
<path d="M14.8 4.59999C14.7 4.59999 14.7 4.49999 14.7 4.49999C14.7 4.39999 14.8 4.39999 14.8 4.39999C14.9 4.39999 14.9 4.49999 14.9 4.49999C15 4.49999 14.9 4.59999 14.8 4.59999ZM14.8 4.29999C14.7 4.29999 14.7 4.39999 14.7 4.39999C14.7 4.49999 14.8 4.49999 14.8 4.49999C14.9 4.49999 14.9 4.39999 14.9 4.39999C14.9 4.39999 14.9 4.29999 14.8 4.29999Z" fill="black"/>
<path d="M15 4.59996C15.1 4.59996 15.1 4.49996 15.1 4.49996C15.1 4.39996 15 4.39996 15 4.39996C14.9 4.39996 14.9 4.49996 14.9 4.49996C14.9 4.49996 14.9 4.59996 15 4.59996Z" fill="white"/>
<path d="M15 4.59999C14.9 4.59999 14.9 4.49999 14.9 4.49999C14.9 4.39999 15 4.39999 15 4.39999C15.1 4.39999 15.1 4.49999 15.1 4.49999C15.2 4.49999 15.1 4.59999 15 4.59999ZM15 4.29999C14.9 4.29999 14.9 4.39999 14.9 4.39999C14.9 4.49999 15 4.49999 15 4.49999C15.1 4.49999 15.1 4.39999 15.1 4.39999C15.1 4.29999 15.1 4.29999 15 4.29999Z" fill="black"/>
<path d="M15.2 4.59996C15.3 4.59996 15.3 4.49996 15.3 4.49996L15.2 4.39996L15.1 4.49996C15.1 4.49996 15.1 4.59996 15.2 4.59996Z" fill="white"/>
<path d="M15.2 4.59999C15.1 4.59999 15.1 4.49999 15.1 4.49999C15.1 4.39999 15.2 4.39999 15.2 4.39999C15.3 4.39999 15.3 4.49999 15.3 4.49999C15.4 4.49999 15.3 4.59999 15.2 4.59999ZM15.2 4.29999C15.1 4.29999 15.1 4.39999 15.1 4.39999C15.1 4.49999 15.2 4.49999 15.2 4.49999C15.3 4.49999 15.3 4.39999 15.3 4.39999C15.4 4.39999 15.3 4.29999 15.2 4.29999Z" fill="black"/>
<path d="M15.8 5.2C15.9 5.2 15.9 5.1 15.9 5.1L15.8 5C15.7 5 15.7 5.1 15.7 5.1C15.7 5.1 15.7 5.2 15.8 5.2Z" fill="white"/>
<path d="M15.8 5.19996C15.7 5.19996 15.7 5.09996 15.7 5.09996C15.7 4.99996 15.8 4.99996 15.8 4.99996C15.9 4.99996 15.9 5.09996 15.9 5.09996L15.8 5.19996ZM15.8 4.89996C15.7 4.89996 15.7 4.99996 15.7 4.99996C15.7 5.09996 15.8 5.09996 15.8 5.09996C15.9 5.09996 15.9 4.99996 15.9 4.99996L15.8 4.89996Z" fill="black"/>
<path d="M15.4 4.7C15.5 4.7 15.5 4.6 15.5 4.6C15.5 4.5 15.4 4.5 15.4 4.5C15.3 4.5 15.3 4.6 15.3 4.6C15.3 4.7 15.4 4.7 15.4 4.7Z" fill="white"/>
<path d="M15.4 4.69996C15.3 4.69996 15.3 4.59996 15.3 4.59996C15.3 4.49996 15.4 4.49996 15.4 4.49996C15.5 4.49996 15.5 4.59996 15.5 4.59996C15.6 4.69996 15.5 4.69996 15.4 4.69996ZM15.4 4.39996C15.3 4.39996 15.3 4.49996 15.3 4.49996C15.3 4.59996 15.4 4.59996 15.4 4.59996C15.5 4.59996 15.5 4.49996 15.5 4.49996C15.6 4.49996 15.5 4.39996 15.4 4.39996Z" fill="black"/>
<path d="M15.6 4.89995C15.7 4.89995 15.7 4.79995 15.7 4.79995C15.7 4.69995 15.6 4.69995 15.6 4.69995C15.5 4.69995 15.5 4.79995 15.5 4.79995C15.5 4.89995 15.6 4.89995 15.6 4.89995Z" fill="white"/>
<path d="M15.6 4.89998C15.5 4.89998 15.5 4.79998 15.5 4.79998C15.5 4.69998 15.6 4.69998 15.6 4.69998C15.7 4.69998 15.7 4.79998 15.7 4.79998C15.8 4.89998 15.7 4.89998 15.6 4.89998ZM15.6 4.59998C15.5 4.59998 15.5 4.69998 15.5 4.69998C15.5 4.79998 15.6 4.79998 15.6 4.79998C15.7 4.79998 15.7 4.69998 15.7 4.69998C15.8 4.69998 15.7 4.59998 15.6 4.59998Z" fill="black"/>
<path d="M14.3 7L13.9 7.2L14.2 7.4L14.6 7.2L14.3 7Z" fill="white"/>
<path d="M14.3 7.4L14 7.2L14.3 7L14.7 7.2L14.3 7.4ZM14 7.2L14.3 7.4L14.7 7.2L14.3 7L14 7.2Z" fill="black"/>
<path d="M13.5 7.09998H13C13 7.09998 13 7.39998 13 7.49998L13.6 7.39998C13.5 7.39998 13.6 7.19998 13.5 7.09998Z" fill="white"/>
<path d="M13 7.5C13 7.4 13 7.1 13 7.1L13.6 7C13.7 7.1 13.6 7.4 13.6 7.4L13 7.5ZM13 7.1C13 7.1 13 7.4 13 7.5L13.6 7.4C13.6 7.4 13.6 7.1 13.6 7L13 7.1Z" fill="black"/>
<path d="M13.4 7.19995C13.4 7.19995 13.1 7.19995 13 7.29995V7.49995C13 7.49995 13.2 7.49995 13.4 7.39995V7.19995Z" fill="#009933"/>
<path d="M13 7.39998V7.19998C13.1 7.19998 13.4 7.09998 13.4 7.09998V7.29998C13.3 7.39998 13 7.39998 13 7.39998ZM13 7.19998V7.39998C13 7.39998 13.2 7.39998 13.4 7.29998V7.09998C13.4 7.19998 13.1 7.19998 13 7.19998Z" fill="black"/>
<path d="M15.1 7.09998L15.7 7.19998C15.7 7.19998 15.7 7.49998 15.7 7.59998L15.1 7.49998C15.1 7.39998 15 7.19998 15.1 7.09998Z" fill="white"/>
<path d="M15.6 7.5L15 7.4C15 7.4 15 7.1 15 7L15.6 7.1C15.7 7.2 15.7 7.5 15.6 7.5ZM15.1 7.4L15.7 7.5C15.7 7.4 15.7 7.2 15.7 7.1L15.2 7C15 7.2 15.1 7.4 15.1 7.4Z" fill="black"/>
<path d="M15.2 7.19995C15.2 7.19995 15.5 7.19995 15.6 7.29995V7.49995C15.6 7.49995 15.4 7.49995 15.2 7.39995V7.19995Z" fill="#009933"/>
<path d="M15.6 7.39998C15.6 7.39998 15.4 7.39998 15.2 7.29998V7.09998C15.2 7.09998 15.5 7.09998 15.6 7.19998V7.39998ZM15.1 7.39998C15.3 7.39998 15.5 7.49998 15.5 7.49998V7.29998C15.4 7.29998 15.1 7.19998 15.1 7.19998V7.39998Z" fill="black"/>
<path d="M16.4 7.8C15.2 7.4 14.1 7.4 13.4 7.5C12.6 7.6 12.2 7.8 12.2 7.8C12.2 7.8 12.7 7.6 13.4 7.5C14.1 7.4 15.2 7.4 16.4 7.8ZM12.3 7.7L12.6 7.4L12.2 7.3C12.1 7.3 12.1 7.3 12.1 7.3C12.3 7.2 12.8 7.1 13.4 7C14.1 7 15.3 7 16.5 7.4C15.3 7 14.1 7 13.4 7.1C12.8 7.2 12.4 7.3 12.2 7.3L12.6 7.4L12.3 7.7Z" fill="black"/>
<path d="M12.2 7.59996L12.4 7.39996H12.2C12.2 7.39996 12.2 7.39996 12.2 7.49996V7.59996Z" fill="#FF0000"/>
<path d="M12.2 7.59999C12.2 7.49999 12.2 7.49999 12.2 7.39999V7.29999L12.5 7.39999L12.2 7.59999ZM12.2 7.39999C12.2 7.39999 12.2 7.49999 12.2 7.39999C12.2 7.49999 12.2 7.59999 12.2 7.59999L12.4 7.39999H12.2Z" fill="black"/>
<path d="M16.4 7.79996L16.1 7.39996H16.5H16.1L16.4 7.79996Z" fill="black"/>
<path d="M16.4 7.59996L16.2 7.39996H16.4C16.4 7.39996 16.3 7.39996 16.3 7.49996C16.4 7.59996 16.4 7.59996 16.4 7.59996Z" fill="#FF0000"/>
<path d="M16.4 7.69996L16.2 7.49996H16.4C16.4 7.49996 16.3 7.49996 16.3 7.59996C16.4 7.49996 16.4 7.59996 16.4 7.69996C16.4 7.59996 16.4 7.59996 16.4 7.69996ZM16.2 7.49996L16.3 7.59996C16.3 7.59996 16.3 7.59996 16.3 7.49996V7.39996L16.2 7.49996Z" fill="black"/>
<path d="M15.9 7.49998C15.9 7.49998 15.8 7.49998 15.9 7.49998C15.8 7.39998 15.9 7.39998 15.9 7.39998C15.9 7.39998 16 7.49998 15.9 7.49998C16 7.49998 15.9 7.49998 15.9 7.49998ZM15.9 7.39998C15.9 7.39998 15.8 7.49998 15.9 7.39998C15.8 7.49998 15.9 7.49998 15.9 7.39998C15.9 7.49998 16 7.49998 15.9 7.39998C16 7.49998 15.9 7.39998 15.9 7.39998ZM12.8 7.49998C12.7 7.49998 12.7 7.49998 12.8 7.49998C12.7 7.39998 12.8 7.39998 12.8 7.39998V7.49998ZM12.8 7.39998C12.7 7.39998 12.7 7.49998 12.8 7.39998C12.7 7.49998 12.7 7.49998 12.8 7.39998C12.8 7.49998 12.8 7.49998 12.8 7.39998C12.8 7.49998 12.8 7.39998 12.8 7.39998ZM15.9 7.39998C15.9 7.39998 15.8 7.39998 15.9 7.39998C15.8 7.29998 15.9 7.29998 15.9 7.29998C15.9 7.29998 16 7.29998 15.9 7.39998C16 7.39998 15.9 7.39998 15.9 7.39998ZM15.9 7.29998C15.9 7.39998 15.9 7.39998 15.9 7.29998C15.9 7.39998 16 7.39998 15.9 7.29998C16 7.29998 15.9 7.29998 15.9 7.29998ZM14.9 7.39998C14.8 7.39998 14.8 7.39998 14.9 7.39998C14.8 7.29998 14.9 7.29998 14.9 7.29998C14.9 7.29998 14.9 7.29998 14.9 7.39998ZM14.9 7.29998C14.8 7.29998 14.8 7.29998 14.9 7.29998C14.8 7.39998 14.8 7.39998 14.9 7.29998C14.9 7.39998 14.9 7.39998 14.9 7.29998ZM13.8 7.39998C13.7 7.39998 13.7 7.39998 13.8 7.39998C13.7 7.29998 13.8 7.29998 13.8 7.29998C13.8 7.29998 13.9 7.29998 13.8 7.39998C13.9 7.39998 13.8 7.39998 13.8 7.39998ZM13.8 7.29998C13.8 7.29998 13.7 7.29998 13.8 7.29998C13.7 7.29998 13.8 7.39998 13.8 7.29998C13.8 7.39998 13.8 7.29998 13.8 7.29998ZM12.7 7.29998C12.7 7.29998 12.6 7.29998 12.7 7.29998C12.6 7.19998 12.7 7.19998 12.7 7.19998C12.7 7.19998 12.8 7.19998 12.7 7.29998C12.8 7.29998 12.7 7.29998 12.7 7.29998ZM12.7 7.19998C12.7 7.19998 12.6 7.19998 12.7 7.19998C12.6 7.29998 12.7 7.29998 12.7 7.19998C12.7 7.29998 12.8 7.29998 12.7 7.19998C12.8 7.19998 12.7 7.19998 12.7 7.19998ZM14.9 7.19998C14.8 7.19998 14.8 7.19998 14.9 7.19998C14.8 7.09998 14.9 7.09998 14.9 7.09998C14.9 7.09998 14.9 7.09998 14.9 7.19998ZM14.9 7.09998C14.8 7.09998 14.8 7.09998 14.9 7.09998C14.8 7.19998 14.8 7.19998 14.9 7.09998C14.9 7.19998 14.9 7.19998 14.9 7.09998ZM13.8 7.19998C13.7 7.19998 13.7 7.19998 13.8 7.19998C13.7 7.09998 13.8 7.09998 13.8 7.09998C13.8 7.09998 13.9 7.09998 13.8 7.19998C13.9 7.19998 13.8 7.19998 13.8 7.19998ZM13.8 7.09998C13.8 7.09998 13.7 7.09998 13.8 7.09998C13.7 7.19998 13.8 7.19998 13.8 7.09998C13.8 7.19998 13.8 7.19998 13.8 7.09998Z" fill="black"/>
<path d="M12.1 6.8C12.1 6.8 12.1 7.2 12.4 7.1C12.6 7 12.6 6.7 12.6 6.7C12.6 6.7 12.6 7 12.9 7C13.1 7 13.1 6.6 13.1 6.5H13.2C13.2 6.5 13.3 6.9 13.6 6.9C13.9 6.8 13.8 6.6 13.8 6.6C13.8 6.6 13.9 6.9 14.1 6.9C14.3 6.9 14.4 6.8 14.3 6.5H14.4C14.4 6.5 14.3 6.9 14.6 6.9C14.9 6.9 14.9 6.7 14.9 6.7C14.9 6.7 14.9 7 15.1 7C15.3 7 15.4 6.7 15.4 6.6H15.6C15.6 6.6 15.4 7 15.7 7C16 7 16 6.7 16 6.7H16.1C16.1 6.7 16.1 7.1 16.3 7.1C16.5 7.1 16.6 7 16.6 6.8H16.7C16.7 6.8 16.6 7.3 16.3 7.2C16.1 7.2 16.1 7 16.1 6.9C16.1 6.9 16 7.1 15.7 7C15.5 6.9 15.5 6.8 15.5 6.7C15.5 6.7 15.4 7 15.2 6.9C15 6.8 15 6.8 15 6.7C15 6.7 14.9 6.9 14.7 6.9C14.5 6.9 14.4 6.8 14.4 6.7C14.4 6.7 14.4 6.9 14.1 6.9C13.9 6.9 13.9 6.8 13.8 6.7C13.8 6.7 13.8 6.9 13.5 6.9C13.4 6.9 13.2 6.8 13.2 6.7C13.2 6.7 13.2 7 12.9 7C12.7 7 12.6 6.9 12.6 6.9C12.6 6.9 12.6 7.1 12.4 7.1C12.2 7.1 12.1 7.1 12 6.9C12 6.7 12 6.7 12.1 6.8Z" fill="#FFCC00"/>
<path d="M16.3 7.19999C16.1 7.09999 16 6.99999 16 6.89999C16 6.99999 15.8 7.09999 15.6 6.99999C15.4 6.89999 15.4 6.79999 15.4 6.69999C15.4 6.69999 15.4 6.79999 15.3 6.79999C15.2 6.89999 15.1 6.89999 15 6.89999C14.8 6.79999 14.8 6.79999 14.7 6.69999C14.7 6.79999 14.6 6.89999 14.4 6.89999C14.3 6.89999 14.2 6.89999 14.2 6.79999L14.1 6.69999C14.1 6.69999 14.1 6.69999 14.1 6.79999C14.1 6.79999 14 6.89999 13.9 6.89999C13.8 6.89999 13.7 6.79999 13.6 6.69999V6.79999C13.6 6.79999 13.5 6.89999 13.4 6.89999C13.3 6.89999 13.1 6.79999 13.1 6.69999C13.1 6.79999 13 6.89999 12.8 6.99999C12.7 6.99999 12.6 6.99999 12.6 6.99999C12.6 6.99999 12.6 6.99999 12.5 6.89999C12.5 6.89999 12.4 7.09999 12.3 7.09999C12.1 7.09999 12 7.09999 11.9 6.89999C11.9 6.69999 11.9 6.59999 11.9 6.59999L12 6.69999C12 6.69999 12 6.89999 12.1 6.99999H12.2C12.4 6.99999 12.4 6.79999 12.4 6.69999C12.4 6.69999 12.4 6.89999 12.5 6.89999H12.6C12.7 6.89999 12.7 6.89999 12.7 6.79999C12.8 6.69999 12.8 6.49999 12.7 6.49999H12.8C12.8 6.49999 12.9 6.79999 13 6.79999C13 6.79999 13.1 6.79999 13.2 6.79999C13.5 6.69999 13.4 6.49999 13.4 6.49999C13.4 6.49999 13.4 6.59999 13.5 6.59999C13.6 6.69999 13.6 6.69999 13.7 6.69999C13.8 6.69999 13.9 6.69999 13.9 6.59999C13.9 6.59999 14 6.49999 13.9 6.29999H14.1C14.1 6.29999 14.1 6.49999 14.2 6.69999L14.3 6.79999C14.5 6.79999 14.6 6.69999 14.6 6.59999C14.6 6.59999 14.6 6.89999 14.8 6.89999C15 6.89999 15.1 6.59999 15.1 6.59999H15.3C15.3 6.59999 15.2 6.79999 15.2 6.89999C15.2 6.99999 15.3 6.99999 15.3 6.99999C15.4 6.99999 15.5 6.99999 15.5 6.99999C16 6.79999 16 6.69999 16 6.69999H16.1C16.1 6.69999 16.1 7.09999 16.3 7.09999C16.5 7.09999 16.6 7.09999 16.6 6.79999H16.7C16.7 6.79999 16.7 7.09999 16.5 7.19999C16.4 7.19999 16.4 7.19999 16.3 7.19999ZM16 6.89999C16 6.99999 16.1 7.19999 16.2 7.19999C16.3 7.19999 16.3 7.19999 16.4 7.19999C16.5 7.09999 16.6 6.89999 16.6 6.89999H16.5C16.5 7.19999 16.4 7.29999 16.2 7.19999C16 7.19999 16 6.79999 16 6.79999C16 6.69999 16 6.79999 16 6.89999C15.9 6.99999 15.8 6.99999 15.7 6.99999C15.6 6.99999 15.6 6.99999 15.5 6.89999C15.4 6.79999 15.5 6.59999 15.5 6.59999H15.3C15.3 6.69999 15.2 6.99999 15 6.99999C14.9 6.99999 14.8 6.89999 14.8 6.79999C14.8 6.69999 14.8 6.69999 14.8 6.69999C14.8 6.79999 14.7 6.89999 14.5 6.89999C14.4 6.89999 14.4 6.89999 14.4 6.79999C14.3 6.69999 14.3 6.49999 14.3 6.39999H14.2C14.2 6.59999 14.2 6.69999 14.2 6.69999C14.2 6.69999 14.1 6.79999 14 6.79999C13.9 6.79999 13.8 6.79999 13.8 6.69999C13.8 6.59999 13.7 6.59999 13.7 6.59999C13.7 6.59999 13.7 6.89999 13.5 6.89999C13.4 6.89999 13.4 6.89999 13.3 6.89999C13.2 6.79999 13.1 6.59999 13.1 6.59999C13.1 6.69999 13.1 6.79999 13.1 6.99999C13 6.89999 13 6.89999 12.9 6.99999C12.8 6.99999 12.8 6.99999 12.7 6.99999C12.6 6.89999 12.6 6.79999 12.6 6.79999C12.6 6.89999 12.6 7.09999 12.4 7.09999C12.3 7.09999 12.3 7.09999 12.3 7.09999C12.2 6.99999 12.2 6.79999 12.2 6.79999L12 6.69999C12 6.69999 12 6.79999 12 6.89999C12 7.09999 12.2 7.19999 12.3 7.09999C12.5 7.09999 12.5 6.89999 12.5 6.89999C12.5 6.89999 12.6 7.09999 12.8 6.99999C12.9 6.99999 13 6.89999 13 6.79999C13 6.69999 13 6.69999 13 6.69999C13 6.79999 13.2 6.89999 13.3 6.89999C13.5 6.89999 13.6 6.69999 13.6 6.69999C13.6 6.79999 13.7 6.89999 13.9 6.89999C14 6.89999 14.1 6.79999 14.1 6.79999V6.69999C14.1 6.79999 14.2 6.89999 14.4 6.89999C14.6 6.89999 14.7 6.69999 14.7 6.69999C14.7 6.79999 14.8 6.89999 14.9 6.89999C15 6.89999 15.1 6.89999 15.1 6.79999C15.2 6.69999 15.2 6.69999 15.2 6.69999C15.2 6.79999 15.2 6.89999 15.4 6.99999C15.9 7.09999 16 6.89999 16 6.89999Z" fill="black"/>
<path d="M12.6 6.79998C12.6 6.79998 12.7 6.69998 12.6 6.79998C12.7 6.69998 12.6 6.59998 12.6 6.59998C12.5 6.59998 12.5 6.59998 12.6 6.79998C12.5 6.69998 12.5 6.79998 12.6 6.79998Z" fill="#FFCC00"/>
<path d="M12.6 6.79998C12.5 6.79998 12.5 6.69998 12.6 6.79998C12.5 6.69998 12.5 6.59998 12.6 6.59998C12.6 6.59998 12.7 6.59998 12.6 6.79998C12.7 6.69998 12.6 6.79998 12.6 6.79998ZM12.6 6.59998C12.5 6.59998 12.5 6.59998 12.6 6.59998C12.5 6.69998 12.6 6.79998 12.6 6.79998C12.6 6.79998 12.7 6.69998 12.6 6.59998C12.7 6.59998 12.6 6.59998 12.6 6.59998Z" fill="black"/>
<path d="M13.7 6.59996C13.8 6.59996 13.8 6.49996 13.7 6.59996C13.8 6.49996 13.7 6.39996 13.7 6.39996C13.7 6.39996 13.7 6.39996 13.7 6.59996C13.7 6.49996 13.7 6.59996 13.7 6.59996Z" fill="#FFCC00"/>
<path d="M13.7 6.59996C13.7 6.59996 13.7 6.49996 13.7 6.59996C13.6 6.49996 13.6 6.39996 13.7 6.39996C13.8 6.39996 13.8 6.39996 13.7 6.59996C13.8 6.49996 13.8 6.59996 13.7 6.59996ZM13.7 6.39996C13.7 6.39996 13.7 6.49996 13.7 6.39996C13.6 6.49996 13.7 6.59996 13.7 6.59996C13.7 6.59996 13.8 6.49996 13.7 6.39996C13.8 6.49996 13.8 6.39996 13.7 6.39996Z" fill="black"/>
<path d="M14.9 6.59996C15 6.59996 15 6.59996 14.9 6.59996C15 6.49996 14.9 6.39996 14.9 6.39996C14.9 6.39996 14.8 6.49996 14.9 6.59996C14.8 6.59996 14.9 6.59996 14.9 6.59996Z" fill="#FFCC00"/>
<path d="M14.9 6.59996C14.9 6.59996 14.8 6.59996 14.9 6.59996C14.8 6.49996 14.8 6.39996 14.9 6.39996C15 6.39996 15 6.49996 14.9 6.59996C15 6.59996 15 6.59996 14.9 6.59996ZM14.9 6.39996C14.9 6.39996 14.8 6.49996 14.9 6.39996C14.8 6.49996 14.9 6.59996 14.9 6.59996C14.9 6.59996 15 6.59996 14.9 6.39996C15 6.49996 15 6.39996 14.9 6.39996Z" fill="black"/>
<path d="M16.1 6.79998C16.1 6.79998 16.2 6.79998 16.1 6.79998C16.2 6.69998 16.1 6.59998 16.1 6.59998C16 6.59998 16 6.69998 16.1 6.79998C16 6.79998 16 6.79998 16.1 6.79998Z" fill="#FFCC00"/>
<path d="M16.1 6.79998C16 6.79998 16 6.79998 16.1 6.79998C16 6.69998 16 6.59998 16.1 6.59998C16.1 6.59998 16.2 6.69998 16.1 6.79998C16.2 6.79998 16.1 6.79998 16.1 6.79998ZM16.1 6.59998C16 6.59998 16 6.69998 16.1 6.59998C16 6.69998 16.1 6.79998 16.1 6.79998C16.1 6.79998 16.1 6.79998 16.1 6.59998C16.1 6.69998 16.1 6.59998 16.1 6.59998Z" fill="black"/>
<path d="M14.3 6.49995C14.2 6.59995 14 6.59995 14 6.59995C14 6.49995 14 6.39995 14 6.39995C13.8 6.39995 13.8 6.29995 13.8 6.29995C13.8 6.19995 14 6.19995 14 6.19995C14 6.09995 14 5.99995 14 5.99995C14.1 5.99995 14.2 6.09995 14.2 6.09995C14.2 6.09995 14.1 6.19995 14.1 5.99995H14.2C14.2 5.99995 14.2 5.79995 14.3 5.69995C14.4 5.69995 14.4 5.99995 14.4 5.99995H14.5C14.5 6.19995 14.4 6.29995 14.4 6.29995C14.4 6.29995 14.5 6.19995 14.6 6.19995C14.6 6.19995 14.6 6.29995 14.6 6.39995C14.6 6.39995 14.8 6.39995 14.8 6.49995C14.8 6.49995 14.8 6.59995 14.6 6.59995C14.6 6.59995 14.6 6.69995 14.6 6.79995C14.6 6.79995 14.4 6.79995 14.4 6.69995H14.3" fill="#FFCC00"/>
<path d="M14.6 6.59995L14.4 6.49995H14.1C14.1 6.59995 13.9 6.59995 13.9 6.59995C13.9 6.49995 13.9 6.49995 13.9 6.39995C13.7 6.29995 13.7 6.29995 13.7 6.29995C13.7 6.19995 13.9 6.19995 13.9 6.19995C13.9 6.09995 13.9 6.09995 13.9 5.99995C14 5.99995 14 5.99995 14 6.09995C14 6.09995 14 5.99995 14 5.89995H14.1C14.1 5.79995 14.1 5.69995 14.2 5.69995C14.3 5.69995 14.3 5.89995 14.3 5.89995H14.4C14.4 5.99995 14.4 6.09995 14.4 6.09995L14.5 5.99995C14.5 5.99995 14.5 6.09995 14.5 6.19995C14.5 6.19995 14.7 6.19995 14.7 6.29995C14.7 6.29995 14.7 6.39995 14.5 6.39995C14.6 6.49995 14.7 6.59995 14.6 6.59995ZM13.8 6.29995C13.8 6.29995 13.8 6.39995 14 6.39995V6.49995L14.2 6.39995H14.5C14.5 6.49995 14.7 6.49995 14.7 6.49995C14.7 6.39995 14.7 6.39995 14.7 6.39995C14.9 6.39995 14.9 6.29995 14.9 6.29995C14.9 6.19995 14.7 6.19995 14.7 6.19995V6.09995C14.6 6.09995 14.6 6.09995 14.5 6.19995L14.4 6.29995C14.4 6.29995 14.4 6.29995 14.5 6.19995C14.5 6.19995 14.6 6.09995 14.5 5.99995H14.4C14.4 5.99995 14.4 5.79995 14.3 5.79995C14.2 5.79995 14.2 5.99995 14.2 5.99995H14.1C14.1 6.09995 14.1 6.19995 14.1 6.19995L14.2 6.29995C14.2 6.29995 14.2 6.29995 14.1 6.19995C14.1 6.19995 14 6.09995 13.9 6.09995V6.19995C14 6.29995 13.9 6.29995 13.8 6.29995Z" fill="black"/>
<path d="M14.3 6.49998C14.4 6.49998 14.5 6.39998 14.5 6.29998C14.5 6.19998 14.4 6.09998 14.3 6.09998C14.2 6.09998 14.1 6.19998 14.1 6.29998C14.2 6.49998 14.2 6.49998 14.3 6.49998Z" fill="white"/>
<path d="M14.3 6.49998C14.2 6.49998 14.1 6.39998 14.1 6.29998C14.1 6.19998 14.2 6.09998 14.3 6.09998C14.4 6.09998 14.5 6.19998 14.5 6.29998C14.5 6.49998 14.4 6.49998 14.3 6.49998ZM14.3 6.19998C14.2 6.19998 14.1 6.29998 14.1 6.39998C14.1 6.49998 14.2 6.59998 14.3 6.59998C14.4 6.59998 14.5 6.49998 14.5 6.39998C14.5 6.29998 14.4 6.19998 14.3 6.19998Z" fill="black"/>
<path d="M14.3 6.49999C14.4 6.49999 14.4 6.39999 14.3 6.49999C14.4 6.39999 14.3 6.29999 14.3 6.29999C14.3 6.29999 14.2 6.29999 14.3 6.49999C14.2 6.39999 14.3 6.49999 14.3 6.49999Z" fill="white"/>
<path d="M14.3 6.49999C14.3 6.49999 14.2 6.39999 14.3 6.49999C14.2 6.39999 14.3 6.29999 14.3 6.29999C14.4 6.29999 14.4 6.29999 14.3 6.49999C14.4 6.39999 14.4 6.49999 14.3 6.49999ZM14.3 6.29999C14.3 6.29999 14.2 6.29999 14.3 6.29999C14.2 6.39999 14.3 6.49999 14.3 6.49999C14.4 6.49999 14.4 6.39999 14.3 6.29999C14.4 6.29999 14.4 6.29999 14.3 6.29999Z" fill="black"/>
<path d="M15.5 6.59996C15.6 6.69996 15.7 6.79996 15.7 6.79996C15.7 6.69996 15.7 6.59996 15.7 6.59996C16 6.59996 16 6.49996 16 6.49996C16 6.39996 15.8 6.39996 15.8 6.39996C15.9 6.39996 15.9 6.29996 15.9 6.29996C15.8 6.29996 15.7 6.39996 15.7 6.39996C15.7 6.39996 15.8 6.39996 15.9 6.19996H15.8C15.8 6.19996 15.8 5.99996 15.8 5.89996C15.7 5.89996 15.7 6.09996 15.7 6.09996C15.5 5.99996 15.4 5.99996 15.4 5.99996C15.3 6.19996 15.4 6.29996 15.4 6.29996C15.4 6.29996 15.3 6.19996 15.2 6.09996C15.2 6.09996 15.2 6.19996 15.2 6.29996H15C15 6.29996 15 6.39996 15.2 6.49996L15.1 6.59996C15.1 6.59996 15.3 6.59996 15.3 6.49996H15.4L15.5 6.59996Z" fill="#FFCC00"/>
<path d="M15.8 6.79999C15.8 6.79999 15.6 6.69999 15.6 6.59999L15.4 6.49999C15.4 6.59999 15.2 6.59999 15.2 6.59999C15.2 6.49999 15.2 6.49999 15.3 6.49999C15 6.39999 15 6.29999 15 6.29999C15 6.19999 15.2 6.29999 15.2 6.29999C15.2 6.19999 15.2 6.09999 15.2 6.09999C15.3 6.09999 15.3 6.09999 15.3 6.19999C15.3 6.19999 15.3 6.09999 15.3 5.99999C15.3 5.99999 15.4 5.99999 15.4 6.09999L15.5 5.89999C15.6 5.89999 15.6 6.09999 15.5 6.19999H15.6C15.6 6.29999 15.6 6.29999 15.5 6.39999H15.6C15.6 6.39999 15.6 6.49999 15.5 6.49999L15.7 6.59999C15.7 6.59999 15.7 6.69999 15.5 6.69999C15.8 6.59999 15.8 6.69999 15.8 6.79999ZM15.4 6.49999L15.7 6.59999C15.7 6.69999 15.8 6.69999 15.8 6.79999C15.8 6.69999 15.8 6.69999 15.8 6.69999C16 6.59999 16 6.59999 16 6.49999C16 6.39999 15.8 6.39999 15.8 6.39999L15.9 6.29999C15.8 6.29999 15.8 6.29999 15.7 6.29999H15.6C15.6 6.29999 15.6 6.29999 15.7 6.29999C15.7 6.29999 15.8 6.19999 15.8 6.09999H15.7C15.7 6.09999 15.7 5.89999 15.7 5.79999C15.6 5.79999 15.6 5.99999 15.6 5.99999L15.5 5.89999C15.5 5.99999 15.5 6.09999 15.5 6.09999V6.19999C15.5 6.19999 15.5 6.19999 15.5 6.09999L15.4 5.99999C15.4 5.99999 15.4 6.09999 15.4 6.19999H15.2C15.2 6.19999 15.2 6.29999 15.4 6.39999L15.3 6.49999C15.2 6.59999 15.3 6.59999 15.4 6.49999Z" fill="black"/>
<path d="M15.5 6.59999C15.4 6.59999 15.4 6.49999 15.4 6.39999C15.4 6.29999 15.5 6.29999 15.6 6.29999C15.7 6.29999 15.7 6.39999 15.7 6.49999C15.7 6.59999 15.6 6.59999 15.5 6.59999Z" fill="white"/>
<path d="M15.5 6.59999C15.4 6.59999 15.3 6.49999 15.3 6.39999C15.3 6.39999 15.3 6.29999 15.4 6.29999H15.5C15.6 6.29999 15.6 6.39999 15.6 6.49999C15.7 6.59999 15.6 6.59999 15.5 6.59999ZM15.5 6.29999C15.4 6.29999 15.4 6.39999 15.3 6.39999C15.3 6.49999 15.3 6.59999 15.4 6.59999C15.5 6.59999 15.6 6.59999 15.6 6.49999C15.7 6.39999 15.6 6.29999 15.5 6.29999Z" fill="black"/>
<path d="M15.5 6.59996L15.4 6.49996L15.5 6.39996L15.6 6.49996L15.5 6.59996Z" fill="white"/>
<path d="M15.5 6.59996C15.5 6.59996 15.5 6.49996 15.5 6.59996C15.4 6.49996 15.4 6.49996 15.4 6.49996C15.4 6.49996 15.4 6.49996 15.4 6.39996C15.4 6.39996 15.4 6.39996 15.5 6.39996C15.5 6.39996 15.5 6.39996 15.6 6.39996C15.6 6.39996 15.6 6.49996 15.5 6.59996C15.6 6.49996 15.6 6.49996 15.5 6.59996ZM15.5 6.39996C15.4 6.39996 15.4 6.39996 15.5 6.39996C15.4 6.49996 15.4 6.49996 15.4 6.49996C15.4 6.49996 15.4 6.49996 15.5 6.49996C15.5 6.49996 15.5 6.49996 15.6 6.49996C15.6 6.49996 15.6 6.49996 15.6 6.39996C15.6 6.49996 15.6 6.39996 15.5 6.39996C15.6 6.39996 15.6 6.39996 15.5 6.39996Z" fill="black"/>
<path d="M13.1 6.59999C13 6.69999 12.9 6.79999 12.9 6.79999C12.9 6.69999 12.9 6.59999 12.9 6.59999C12.7 6.59999 12.7 6.49999 12.7 6.49999C12.7 6.39999 12.9 6.39999 12.9 6.39999C12.8 6.29999 12.8 6.29999 12.8 6.29999C12.9 6.29999 13 6.39999 13 6.39999C13 6.39999 12.9 6.39999 12.9 6.09999H13C13 6.09999 13 5.89999 13.1 5.79999C13.2 5.79999 13.2 5.99999 13.2 5.99999L13.3 5.89999C13.3 6.09999 13.2 6.19999 13.2 6.19999C13.2 6.19999 13.3 6.09999 13.4 5.99999C13.4 5.99999 13.4 6.09999 13.4 6.19999H13.6C13.6 6.19999 13.6 6.29999 13.4 6.29999C13.4 6.29999 13.5 6.39999 13.4 6.39999C13.4 6.39999 13.2 6.39999 13.2 6.29999H13.1V6.59999Z" fill="#FFCC00"/>
<path d="M12.8 6.69995C12.8 6.59995 12.8 6.59995 12.8 6.49995C12.6 6.49995 12.6 6.39995 12.6 6.39995C12.6 6.29995 12.8 6.29995 12.8 6.29995C12.8 6.19995 12.7 6.19995 12.7 6.19995C12.8 6.19995 12.8 6.19995 12.8 6.19995C12.8 6.19995 12.7 6.09995 12.7 5.99995H12.8C12.8 5.99995 12.8 5.79995 12.9 5.69995C13 5.69995 13 5.89995 13 5.89995H13.1C13.1 5.99995 13.1 6.09995 13.1 6.09995L13.2 5.99995C13.2 5.99995 13.2 6.09995 13.2 6.19995C13.2 6.19995 13.4 6.19995 13.4 6.29995C13.4 6.29995 13.4 6.39995 13.2 6.39995C13.2 6.39995 13.3 6.49995 13.2 6.49995C13.2 6.49995 13 6.49995 13 6.39995H12.7C13 6.69995 12.8 6.69995 12.8 6.69995ZM12.6 6.49995C12.6 6.49995 12.6 6.59995 12.8 6.59995V6.69995L13 6.59995H13.3C13.3 6.69995 13.5 6.69995 13.5 6.69995C13.5 6.59995 13.5 6.59995 13.5 6.59995C13.7 6.49995 13.7 6.49995 13.7 6.49995C13.7 6.39995 13.5 6.49995 13.5 6.49995C13.5 6.39995 13.5 6.39995 13.5 6.39995C13.4 6.39995 13.4 6.49995 13.4 6.49995C13.4 6.49995 13.4 6.59995 13.3 6.59995C13.3 6.59995 13.3 6.59995 13.3 6.49995C13.3 6.49995 13.3 6.39995 13.3 6.29995C13.3 6.29995 13.2 6.29995 13.2 6.39995C13.2 6.39995 13.2 6.19995 13.1 6.19995C13 6.19995 13 6.49995 13 6.49995H12.9C12.9 6.59995 12.9 6.69995 13 6.69995H13.1C13.1 6.69995 13.1 6.69995 13 6.69995C13 6.69995 12.9 6.59995 12.8 6.69995C12.8 6.69995 12.8 6.79995 12.9 6.79995C12.8 6.39995 12.6 6.39995 12.6 6.49995Z" fill="black"/>
<path d="M13.1 6.59999C13.2 6.59999 13.2 6.49999 13.2 6.39999C13.2 6.29999 13.1 6.29999 13 6.29999C12.9 6.29999 12.9 6.39999 12.9 6.49999C12.9 6.59999 13 6.59999 13.1 6.59999Z" fill="white"/>
<path d="M13.1 6.59999C13 6.59999 12.9 6.49999 12.9 6.49999V6.39999L13 6.29999H13.1L13.2 6.39999V6.49999C13.2 6.59999 13.2 6.59999 13.1 6.59999ZM13.1 6.29999C13 6.29999 13 6.29999 13 6.39999V6.49999C13 6.59999 13.1 6.59999 13.2 6.59999C13.2 6.59999 13.3 6.59999 13.3 6.49999V6.39999C13.2 6.39999 13.2 6.39999 13.1 6.29999C13.2 6.29999 13.1 6.29999 13.1 6.29999Z" fill="black"/>
<path d="M13.1 6.49999C13.2 6.49999 13.2 6.49999 13.1 6.49999C13.2 6.39999 13.1 6.29999 13.1 6.29999C13 6.39999 13 6.39999 13.1 6.49999C13 6.49999 13.1 6.49999 13.1 6.49999Z" fill="white"/>
<path d="M13.1 6.49996C13 6.49996 13 6.49996 13.1 6.49996C13 6.39996 13 6.39996 13 6.39996C13 6.39996 13 6.39996 13.1 6.39996C13.1 6.39996 13.2 6.39996 13.2 6.49996C13.2 6.49996 13.2 6.49996 13.1 6.49996C13.2 6.49996 13.1 6.49996 13.1 6.49996ZM13.1 6.39996C13.1 6.39996 13 6.39996 13.1 6.39996C13 6.39996 13 6.39996 13.1 6.39996C13 6.49996 13 6.49996 13 6.49996C13 6.49996 13 6.49996 13.1 6.49996C13.1 6.49996 13.1 6.49996 13.2 6.49996C13.2 6.49996 13.2 6.49996 13.1 6.39996C13.2 6.39996 13.1 6.39996 13.1 6.39996Z" fill="black"/>
<path d="M16.6 6.9C16.6 6.9 16.6 6.8 16.5 6.8C16.4 6.8 16.4 6.9 16.3 6.8V6.7C16.3 6.7 16.2 6.7 16.1 6.5C16.1 6.5 16.2 6.4 16.3 6.5V6.4L16.5 6.5C16.5 6.5 16.4 6.3 16.5 6.2C16.5 6.2 16.6 6.2 16.6 6.3C16.6 6.3 16.6 6.1 16.9 6.2C16.9 6.2 16.8 6.3 16.8 6.4C16.8 6.5 16.7 6.5 16.7 6.6V6.7V6.8C16.7 6.8 16.7 6.9 16.6 6.9Z" fill="#FFCC00"/>
<path d="M16.6 6.89998C16.5 6.79998 16.5 6.79998 16.5 6.79998C16.5 6.79998 16.5 6.79998 16.4 6.79998C16.4 6.79998 16.4 6.79998 16.3 6.79998V6.69998C16.3 6.69998 16.2 6.59998 16.2 6.49998C16.2 6.49998 16.3 6.39998 16.4 6.39998V6.29998C16.4 6.29998 16.5 6.29998 16.6 6.39998C16.6 6.29998 16.6 6.19998 16.7 6.09998C16.7 6.09998 16.8 6.09998 16.8 6.19998C16.8 6.19998 16.9 6.09998 17.1 6.09998C17.1 6.09998 17 6.19998 17 6.29998C17 6.29998 17 6.39998 16.9 6.39998V6.49998V6.59998V6.69998C16.7 6.79998 16.7 6.89998 16.6 6.89998ZM16.5 6.79998C16.6 6.79998 16.6 6.79998 16.5 6.79998C16.6 6.89998 16.6 6.89998 16.5 6.79998C16.6 6.89998 16.6 6.79998 16.6 6.79998V6.69998V6.59998C16.6 6.59998 16.6 6.59998 16.6 6.49998L16.7 6.39998C16.7 6.39998 16.8 6.29998 16.8 6.19998C16.6 6.19998 16.5 6.29998 16.5 6.29998C16.5 6.19998 16.4 6.19998 16.4 6.19998C16.3 6.29998 16.3 6.39998 16.4 6.49998C16.4 6.39998 16.3 6.39998 16.2 6.39998V6.49998C16.1 6.49998 16 6.49998 16 6.49998C16 6.59998 16.1 6.69998 16.1 6.69998V6.79998C16.4 6.89998 16.4 6.89998 16.5 6.79998C16.5 6.89998 16.5 6.89998 16.5 6.79998Z" fill="black"/>
<path d="M16.5 6.69998C16.5 6.59998 16.6 6.59998 16.7 6.59998C16.7 6.59998 16.7 6.59998 16.8 6.59998V6.69998V6.79998V6.89998C16.6 6.89998 16.5 6.79998 16.5 6.69998Z" fill="white"/>
<path d="M16.7 6.89998C16.7 6.89998 16.6 6.89998 16.7 6.89998C16.6 6.89998 16.5 6.79998 16.5 6.69998C16.5 6.59998 16.6 6.59998 16.7 6.59998C16.7 6.59998 16.7 6.59998 16.8 6.59998V6.69998C16.7 6.69998 16.7 6.79998 16.7 6.89998C16.7 6.79998 16.7 6.89998 16.7 6.89998ZM16.5 6.69998C16.5 6.79998 16.5 6.89998 16.6 6.89998V6.79998V6.69998V6.59998C16.6 6.59998 16.6 6.59998 16.5 6.59998C16.6 6.59998 16.5 6.59998 16.5 6.69998Z" fill="black"/>
<path d="M16.6 6.69998L16.7 6.59998C16.7 6.59998 16.7 6.59998 16.8 6.59998V6.69998C16.6 6.79998 16.6 6.79998 16.6 6.69998Z" fill="white"/>
<path d="M16.7 6.79998C16.6 6.79998 16.6 6.79998 16.7 6.79998C16.6 6.69998 16.6 6.69998 16.6 6.69998C16.6 6.69998 16.6 6.69998 16.6 6.59998C16.6 6.59998 16.6 6.59998 16.7 6.59998C16.7 6.59998 16.7 6.59998 16.8 6.59998C16.7 6.69998 16.7 6.79998 16.7 6.79998ZM16.7 6.59998C16.7 6.59998 16.6 6.69998 16.7 6.59998C16.6 6.69998 16.6 6.69998 16.7 6.59998C16.6 6.69998 16.6 6.69998 16.6 6.69998C16.6 6.69998 16.6 6.69998 16.7 6.69998C16.7 6.79998 16.7 6.69998 16.7 6.59998C16.7 6.69998 16.7 6.69998 16.7 6.59998C16.7 6.69998 16.7 6.69998 16.7 6.59998Z" fill="black"/>
<path d="M12 6.89997C12 6.89997 12 6.79997 12.1 6.79997C12.2 6.79997 12.2 6.89997 12.3 6.89997V6.79997C12.3 6.79997 12.4 6.79997 12.5 6.69997C12.5 6.69997 12.4 6.59997 12.3 6.59997V6.49997C12.3 6.49997 12.1 6.49997 12.1 6.59997C12.1 6.59997 12.2 6.39997 12.1 6.29997C12.1 6.29997 12 6.29997 12 6.39997C12 6.39997 12 6.19997 11.7 6.29997C11.7 6.29997 11.8 6.39997 11.8 6.49997C11.8 6.59997 11.9 6.59997 11.9 6.69997V6.79997V6.89997C12 6.79997 12 6.79997 12 6.89997Z" fill="#FFCC00"/>
<path d="M12 6.89995C12 6.89995 11.9 6.79995 12 6.79995V6.69995V6.59995C12 6.59995 12 6.59995 12 6.49995L11.9 6.39995C11.9 6.29995 11.8 6.19995 11.8 6.19995C12 6.19995 12 6.29995 12.1 6.29995C12 6.19995 12 6.19995 12 6.19995C12.1 6.29995 12 6.39995 12 6.49995C12 6.39995 12.2 6.39995 12.2 6.39995V6.49995C12.4 6.49995 12.4 6.59995 12.4 6.59995C12.4 6.69995 12.3 6.69995 12.2 6.79995V6.89995C12.1 6.89995 12.1 6.89995 12.1 6.89995C12.1 6.89995 12.1 6.89995 12 6.89995C12.1 6.79995 12.1 6.79995 12 6.89995C12 6.79995 12 6.89995 12 6.89995ZM11.7 6.19995C11.7 6.19995 11.8 6.29995 11.8 6.39995C11.8 6.39995 11.8 6.49995 11.9 6.49995V6.59995V6.69995V6.79995V6.89995C11.9 6.89995 11.9 6.89995 12 6.79995C12 6.79995 12 6.79995 12.1 6.79995C12.1 6.79995 12.1 6.79995 12.2 6.79995C12.2 6.79995 12.2 6.79995 12.3 6.79995V6.69995C12.3 6.69995 12.4 6.69995 12.5 6.59995C12.5 6.59995 12.4 6.49995 12.3 6.49995V6.39995C12.3 6.39995 12.2 6.39995 12.1 6.49995C12.1 6.39995 12.1 6.29995 12.1 6.19995C12.1 6.19995 12 6.19995 12 6.29995C11.9 6.29995 11.9 6.19995 11.7 6.19995Z" fill="black"/>
<path d="M12.1 6.69998C12.1 6.59998 12 6.59998 11.9 6.59998C11.9 6.59998 11.9 6.59998 11.8 6.59998V6.69998V6.79998V6.89998C12.1 6.79998 12.2 6.79998 12.1 6.69998Z" fill="white"/>
<path d="M12 6.9C12 6.8 12 6.8 12 6.9C12 6.8 12 6.7 11.9 6.7V6.6C11.9 6.6 11.9 6.6 12 6.6C12.1 6.6 12.2 6.7 12.2 6.7V6.8C12.1 6.8 12.1 6.8 12 6.9ZM12 6.8C12.1 6.8 12.1 6.8 12.1 6.7V6.6C12.1 6.5 12 6.5 11.9 6.5C11.9 6.5 11.9 6.5 11.8 6.5V6.6C12 6.7 12 6.7 12 6.8Z" fill="black"/>
<path d="M12.1 6.7C12.1 6.6 12 6.6 12.1 6.7C12 6.6 12 6.6 11.9 6.7V6.8C12 6.8 12 6.8 12.1 6.7C12.1 6.8 12.1 6.7 12.1 6.7Z" fill="white"/>
<path d="M12 6.79998C12 6.79998 12 6.69998 11.9 6.69998C11.9 6.69998 11.9 6.69998 12 6.69998C12 6.69998 12.1 6.69998 12.1 6.79998C12.1 6.69998 12.1 6.79998 12 6.79998ZM12 6.79998C12.1 6.79998 12.1 6.79998 12.1 6.69998C12.1 6.69998 12.1 6.59998 12 6.59998C12 6.59998 12 6.59998 11.9 6.59998C12 6.69998 12 6.69998 12 6.79998Z" fill="black"/>
<path d="M16.3 7.89996C14.1 7.19996 12.3 7.89996 12.3 7.89996C12.3 7.79996 14.1 7.09996 16.3 7.89996Z" fill="black"/>
<path d="M16.5 7.29995C15.2 6.89995 14.1 6.89995 13.3 6.99995C12.5 7.09995 12 7.29995 12 7.29995C12.3 7.19995 12.8 6.99995 13.4 6.99995C14.1 6.89995 15.3 6.89995 16.5 7.29995Z" fill="black"/>
<path d="M14.3 7.09998L14.1 7.19998L14.3 7.29998L14.5 7.19998L14.3 7.09998Z" fill="#FF0000"/>
<path d="M14.3 7.29998L14.1 7.19998L14.3 7.09998L14.5 7.19998L14.3 7.29998ZM14.1 7.19998L14.3 7.29998L14.5 7.19998L14.3 7.09998L14.1 7.19998Z" fill="black"/>
</svg>
