<svg width="28" height="20" viewBox="0 0 28 20" fill="none" xmlns="http://www.w3.org/2000/svg">
<rect width="28" height="20" rx="2" fill="white"/>
<mask id="mask0" mask-type="alpha" maskUnits="userSpaceOnUse" x="0" y="0" width="28" height="20">
<rect width="28" height="20" rx="2" fill="white"/>
</mask>
<g mask="url(#mask0)">
<rect width="28" height="20" fill="#E42235"/>
</g>
<g clip-path="url(#clip0)">
<rect x="2.66667" y="2.66667" width="22.6667" height="14.6667" fill="#079B77"/>
<mask id="mask1" mask-type="alpha" maskUnits="userSpaceOnUse" x="2" y="2" width="24" height="16">
<rect x="2.66667" y="2.66667" width="22.6667" height="14.6667" fill="white"/>
</mask>
<g mask="url(#mask1)">
<path fill-rule="evenodd" clip-rule="evenodd" d="M4.39317 10.1318C4.77068 10.7359 5.31265 11.1347 5.81745 11.2371C6.09536 11.2934 5.58654 10.0189 5.80827 9.88033C5.99746 9.76211 6.90772 10.822 6.98743 10.6009C7.17082 10.0921 7.06264 9.37163 6.65463 8.71869C6.0693 7.78196 6.04645 8.40022 4.46406 7.72915C4.62951 8.68883 3.80784 9.19508 4.39317 10.1318Z" fill="#FFD938"/>
<path fill-rule="evenodd" clip-rule="evenodd" d="M14 10L25.3333 2.66667H2.66667L14 10ZM14 10L2.66667 17.3333H25.3333L14 10Z" fill="#FFD93B"/>
<path fill-rule="evenodd" clip-rule="evenodd" d="M14 13.3333C15.841 13.3333 17.3333 11.8409 17.3333 10C17.3333 8.15905 15.841 6.66667 14 6.66667C12.1591 6.66667 10.6667 8.15905 10.6667 10C10.6667 11.8409 12.1591 13.3333 14 13.3333Z" fill="url(#paint0_linear)"/>
<path fill-rule="evenodd" clip-rule="evenodd" d="M14 11.0284L12.4326 12.1574L13.0219 10.3178L11.4639 9.17595L13.3955 9.16801L14 7.33333L14.6045 9.16801L16.5362 9.17595L14.9781 10.3178L15.5674 12.1574L14 11.0284Z" fill="#FFD938"/>
</g>
</g>
<defs>
<linearGradient id="paint0_linear" x1="10.6667" y1="6.66667" x2="10.6667" y2="13.3333" gradientUnits="userSpaceOnUse">
<stop stop-color="#E21C30"/>
<stop offset="1" stop-color="#CE1225"/>
</linearGradient>
<clipPath id="clip0">
<rect x="2.66667" y="2.66667" width="23" height="15" fill="white"/>
</clipPath>
</defs>
</svg>
