<svg width="28" height="20" viewBox="0 0 28 20" fill="none" xmlns="http://www.w3.org/2000/svg">
<rect width="28" height="20" rx="2" fill="#D01129"/>
<mask id="mask0" mask-type="alpha" maskUnits="userSpaceOnUse" x="0" y="0" width="28" height="20">
<rect width="28" height="20" rx="2" fill="white"/>
</mask>
<g mask="url(#mask0)">
</g>
<g clip-path="url(#clip0)">
<g clip-path="url(#clip1)">
<path fill-rule="evenodd" clip-rule="evenodd" d="M13.8882 10.0409C14.5491 10.0409 15.0849 9.47828 15.0849 8.78446C15.0849 8.09052 14.5491 7.52795 13.8882 7.52795C13.2272 7.52795 12.6915 8.09052 12.6915 8.78446C12.6915 9.47828 13.2272 10.0409 13.8882 10.0409Z" fill="#FFF101"/>
<path fill-rule="evenodd" clip-rule="evenodd" d="M12.7973 8.27927C13.1362 8.16575 13.5759 8.29786 13.8652 8.58936C14.1723 8.53064 14.4802 8.12575 14.5757 7.76526C14.4708 6.56734 13.7245 5.65982 13.4975 5.03706C13.4257 4.84024 13.093 4.53076 12.747 4.67486C12.4625 4.79339 12.3186 4.70116 11.363 5.20159C10.8463 5.47217 10.4114 5.75009 10.1823 5.79853C9.95297 5.84697 9.71111 5.89015 9.52773 5.73933C9.27549 5.53186 8.99262 5.47449 8.82602 5.31816C8.6219 5.1266 8.49095 4.98202 8.35289 4.92342C8.21483 4.86471 7.98113 4.99511 8.07981 5.30544C8.30245 6.00636 8.8273 6.11988 9.05262 6.77504C9.15899 7.08477 9.31021 7.31755 9.64819 7.08281C9.98617 6.84807 10.4638 6.53627 11.2782 6.50349C11.8251 6.48134 12.3903 6.27021 12.6499 5.92379C12.6474 6.22349 12.748 6.46911 12.7215 6.85896C12.695 7.24893 12.6992 7.73394 12.7973 8.27927Z" fill="white"/>
<path fill-rule="evenodd" clip-rule="evenodd" d="M13.438 8.31217C13.3376 7.72244 13.5197 7.63743 13.3023 6.94617C13.1715 6.53051 13.088 6.00954 13.0859 5.76709L12.9985 5.79376C13.0006 6.0362 13.0843 6.5573 13.2149 6.97296C13.4252 7.64134 13.2617 7.74287 13.3416 8.2822C13.3663 8.28746 13.4182 8.30483 13.438 8.31217Z" fill="#FFF101"/>
<path fill-rule="evenodd" clip-rule="evenodd" d="M12.9235 8.24746C12.9242 8.17247 12.9197 8.09419 12.9086 8.02691C13.0623 7.98813 13.3254 8.13725 13.3181 8.02642C13.3159 7.99131 13.3193 7.8778 13.3214 7.81761C13.318 7.91168 12.952 7.7529 12.889 7.79388C12.8213 7.45076 12.9052 7.09773 12.8515 6.88232C12.9737 6.84722 13.1983 6.92379 13.1708 6.82324C13.1552 6.77174 13.1254 6.64367 13.1057 6.56355C13.1249 6.64746 12.9466 6.57798 12.8862 6.62593C12.8549 6.43988 12.8091 6.08685 12.81 5.9255L12.6499 5.92379C12.6474 6.22348 12.748 6.46911 12.7215 6.85896C12.695 7.24893 12.6992 7.73394 12.7973 8.27926C12.8324 8.2685 12.8902 8.25468 12.9235 8.24746Z" fill="#FFF101"/>
<path fill-rule="evenodd" clip-rule="evenodd" d="M12.5192 5.50801C12.2806 5.86972 11.7107 6.11938 11.1837 6.17455C10.567 6.23914 10.1529 6.45467 9.848 6.66568C9.82179 6.61614 9.77449 6.58948 9.73266 6.55682C9.28656 6.2099 9.46994 5.73981 9.63887 5.80697C9.57515 5.78104 9.5381 5.74605 9.50326 5.71975C9.44431 5.67388 9.27421 5.84966 9.29553 6.1288C9.30462 6.2477 9.40155 6.42311 9.48043 6.51608C9.33643 6.48856 9.26746 6.4499 9.18287 6.34263C9.23041 6.31156 9.29192 6.29394 9.34155 6.2899C9.32466 6.24734 9.30113 6.20012 9.29553 6.1288C9.22505 6.12819 9.13907 6.154 9.06532 6.2066C8.88835 6.02152 8.70614 5.87388 8.60047 5.65541C8.43142 5.30544 8.60338 5.08452 8.82602 5.31816C8.6219 5.1266 8.49095 4.98201 8.35289 4.92342C8.21483 4.86471 7.98113 4.9951 8.07981 5.30544C8.30245 6.00636 8.8273 6.11987 9.05262 6.77504C9.15899 7.08477 9.31581 7.32611 9.64819 7.08281C9.692 7.05076 9.70365 7.04318 9.74175 7.0148C9.84718 6.95082 10.0143 7.05822 9.99643 7.29174C10.0818 7.0773 10.0273 7.01162 9.95483 6.88305C9.90124 6.91302 9.90555 6.73749 9.87247 6.71437C10.0621 6.59058 10.2928 6.46642 10.5838 6.37798C10.5946 6.48281 10.6221 6.59412 10.714 6.57798C10.7633 6.56648 10.8132 6.55608 10.8658 6.54691C10.7739 6.56305 10.748 6.44122 10.7374 6.33651C10.8753 6.30324 11.0261 6.27804 11.1913 6.26385C11.3817 6.24746 11.5784 6.20685 11.7632 6.14385C11.7907 6.2444 11.8476 6.41382 11.9423 6.38055C12.0263 6.35229 12.108 6.32036 12.1846 6.2833C12.0529 6.34923 12.001 6.16097 11.9693 6.0614C12.2101 5.95143 12.4153 5.80146 12.538 5.6225L12.5192 5.50801Z" fill="#FFF101"/>
<path fill-rule="evenodd" clip-rule="evenodd" d="M13.5732 5.68759C13.6894 5.59291 13.7893 5.54814 13.689 5.34765C13.5249 5.01982 13.6268 5.0187 13.2677 4.81014C12.9018 4.59803 12.9481 4.58139 12.464 4.76059C12.3449 4.80463 12.3715 4.84965 12.3924 5.03093C12.4372 5.42163 12.5225 5.73627 12.6004 6.05773C12.9047 6.01602 13.3729 5.85089 13.5732 5.68759Z" fill="#FFF101"/>
<path fill-rule="evenodd" clip-rule="evenodd" d="M12.4375 5.59877C12.3737 5.40697 12.3908 5.43302 12.6222 5.49149C12.6979 5.23865 12.8025 5.02524 12.8611 4.82059C12.9266 4.59148 12.9471 4.55026 13.0435 4.60641C13.1667 4.67809 13.3021 4.75381 13.3903 4.79931C13.5443 4.87858 13.5216 4.90634 13.4481 5.03234C13.3746 5.15833 13.1341 5.41369 12.9858 5.68012C13.1814 5.8247 13.2442 5.83779 13.1052 5.90006C12.9497 5.96966 12.6913 6.0559 12.5825 6.07632C12.5626 5.95045 12.4982 5.78067 12.4375 5.59877Z" fill="#FFF101"/>
<path fill-rule="evenodd" clip-rule="evenodd" d="M10.1409 7.40245L10.1255 7.59975L9.98699 7.46764L9.83204 7.5781L9.84229 7.38116L9.66393 7.32453L9.81631 7.20979L9.74909 7.02679L9.92793 7.08159L10.0224 6.91217L10.0942 7.09309L10.2787 7.06385L10.1883 7.23645L10.3244 7.36979L10.1409 7.40245Z" fill="#FFF101"/>
<path fill-rule="evenodd" clip-rule="evenodd" d="M14.017 10.029C13.7538 9.77749 13.6429 9.31168 13.7388 8.90287C13.5368 8.65309 13.0489 8.57541 12.7038 8.66887C11.7681 9.3633 11.3927 10.4957 10.9925 11.0135C10.866 11.1771 10.7771 11.6342 11.0691 11.8769C11.3091 12.0763 11.305 12.2532 12.1955 12.8719C12.677 13.2065 13.1236 13.463 13.2783 13.6472C13.433 13.8314 13.5894 14.0298 13.5567 14.2719C13.5117 14.605 13.6057 14.891 13.5602 15.1205C13.5042 15.4018 13.4504 15.5933 13.4711 15.7481C13.4918 15.903 13.7161 16.0503 13.9228 15.8054C14.3895 15.2525 14.2208 14.7185 14.6486 14.1861C14.8507 13.9344 14.9672 13.6805 14.6047 13.4905C14.242 13.3007 13.746 13.0221 13.3117 12.2982C13.0201 11.812 12.5634 11.4035 12.1477 11.3407C12.3962 11.1933 12.5486 10.9788 12.8834 10.8079C13.2183 10.6371 13.6162 10.3909 14.017 10.029Z" fill="white"/>
<path fill-rule="evenodd" clip-rule="evenodd" d="M13.7237 9.42997C13.2876 9.81615 13.1263 9.69297 12.6649 10.2363C12.3875 10.5631 11.9995 10.8996 11.8005 11.0226L11.8662 11.0887C12.0652 10.9656 12.4532 10.6291 12.7307 10.3024C13.1769 9.777 13.3423 9.87486 13.7473 9.53248C13.7393 9.50752 13.7275 9.45162 13.7237 9.42997Z" fill="#FFF101"/>
<path fill-rule="evenodd" clip-rule="evenodd" d="M13.9275 9.93015C13.8654 9.96697 13.8031 10.0103 13.7531 10.0539C13.6443 9.93357 13.6357 9.61969 13.5481 9.68195C13.5201 9.70128 13.4248 9.7551 13.374 9.78324C13.4535 9.73932 13.5053 10.1514 13.5707 10.1883C13.3215 10.4214 12.9884 10.5216 12.8376 10.6782C12.7476 10.5845 12.6984 10.3421 12.6292 10.4174C12.5946 10.4572 12.5038 10.5484 12.4476 10.6064C12.5072 10.5469 12.539 10.7438 12.6087 10.7747C12.471 10.8963 12.2027 11.1144 12.069 11.1942L12.1477 11.3407C12.3962 11.1933 12.5486 10.9788 12.8834 10.8079C13.2182 10.6371 13.6162 10.3909 14.017 10.029C13.9906 10.0024 13.9501 9.95682 13.9275 9.93015Z" fill="#FFF101"/>
<path fill-rule="evenodd" clip-rule="evenodd" d="M11.8702 11.6674C12.2878 11.7035 12.7787 12.0969 13.0877 12.5485C13.4493 13.0771 13.8342 13.3457 14.1607 13.5174C14.1329 13.5661 14.1346 13.6224 14.1286 13.6768C14.0655 14.2559 13.5861 14.3242 13.5569 14.137C13.5674 14.2079 13.5571 14.2591 13.5529 14.304C13.5445 14.3805 13.7746 14.4472 13.9941 14.2883C14.0876 14.2205 14.1837 14.0448 14.2211 13.9266C14.2703 14.0712 14.2729 14.1533 14.2268 14.2838C14.1773 14.2561 14.1321 14.2089 14.1039 14.166C14.0772 14.2026 14.0501 14.2476 13.9941 14.2883C14.0288 14.3528 14.0931 14.418 14.1734 14.4587C14.1092 14.7122 14.0785 14.9517 13.9511 15.1569C13.7471 15.4856 13.4788 15.4397 13.5602 15.1205C13.5042 15.4018 13.4505 15.5933 13.4711 15.7481C13.4918 15.903 13.7161 16.0503 13.9228 15.8054C14.3895 15.2525 14.2208 14.7185 14.6486 14.186C14.8507 13.9344 14.9715 13.6712 14.6047 13.4905C14.5562 13.4668 14.5442 13.4601 14.5018 13.4395C14.3962 13.3757 14.4014 13.17 14.6028 13.0695C14.3833 13.0991 14.3564 13.1815 14.2866 13.3117C14.338 13.3453 14.1911 13.4292 14.1885 13.4709C13.9916 13.3604 13.774 13.2127 13.5554 12.9922C13.6366 12.9301 13.7147 12.8494 13.6553 12.7739C13.6211 12.7349 13.5876 12.6945 13.5537 12.6514C13.6131 12.727 13.5256 12.8112 13.4444 12.8734C13.348 12.7646 13.2519 12.6401 13.1576 12.497C13.0489 12.332 12.917 12.1734 12.7726 12.0369C12.8418 11.9616 12.9531 11.8253 12.8783 11.7557C12.8131 11.6934 12.7458 11.6351 12.677 11.5841C12.7972 11.6709 12.6678 11.8122 12.6016 11.8908C12.3904 11.7268 12.1641 11.6152 11.9552 11.5933L11.8702 11.6674Z" fill="#FFF101"/>
<path fill-rule="evenodd" clip-rule="evenodd" d="M11.3218 10.6977C11.1855 10.6394 11.2527 10.5605 11.1375 10.752C10.9491 11.065 10.9127 10.9929 10.9204 11.4238C10.9282 11.8624 11.0093 11.7924 11.3993 12.143C11.699 11.907 12.0568 11.5503 12.2829 11.3187C12.0964 11.0629 11.5565 10.7984 11.3218 10.6977Z" fill="#FFF101"/>
<path fill-rule="evenodd" clip-rule="evenodd" d="M11.9859 11.6963C11.8596 11.8503 11.8725 11.8218 11.8051 11.582C11.5586 11.6395 11.3686 11.7059 11.1706 11.755C10.9488 11.8099 10.9047 11.8119 10.9027 11.6963C10.9002 11.5483 10.8951 11.3874 10.8885 11.2844C10.8769 11.1048 10.9111 11.1114 11.0518 11.1154C11.1925 11.1191 11.4849 11.1555 11.7788 11.1571C11.8003 10.9069 11.7797 10.8433 11.9006 10.9386C12.0356 11.0451 12.236 11.2371 12.3073 11.3257C12.2134 11.4067 12.1056 11.5502 11.9859 11.6963Z" fill="#FFF101"/>
<path fill-rule="evenodd" clip-rule="evenodd" d="M14.6219 12.8829L14.7923 12.7982L14.7526 12.9901L14.9213 13.0758L14.7537 13.1649L14.7961 13.3555L14.6252 13.2742L14.5078 13.4269L14.4637 13.2368L14.2767 13.2356L14.3902 13.08L14.2737 12.9268L14.4614 12.9227L14.5033 12.7324L14.6219 12.8829Z" fill="#FFF101"/>
<path fill-rule="evenodd" clip-rule="evenodd" d="M14.8503 8.04513C14.7745 8.41002 14.4456 8.74385 14.0606 8.86116C13.9555 9.16966 14.1354 9.65198 14.3851 9.91926C15.4256 10.4227 16.5474 10.1979 17.1745 10.3029C17.3728 10.336 17.7943 10.1883 17.8485 9.80158C17.893 9.48366 18.0409 9.39902 18.106 8.27987C18.1412 7.67473 18.1294 7.1403 18.2041 6.90764C18.2788 6.67498 18.3642 6.43339 18.5802 6.34213C18.8774 6.21651 19.0662 5.98788 19.2785 5.91461C19.5384 5.82483 19.7232 5.77798 19.8405 5.68183C19.9579 5.58568 19.9673 5.30801 19.662 5.24256C18.9725 5.09455 18.6165 5.51498 17.9634 5.39217C17.6548 5.33418 17.387 5.3551 17.4117 5.77993C17.4364 6.20464 17.4547 6.79486 17.0747 7.55168C16.8194 8.06006 16.711 8.6795 16.8668 9.08892C16.621 8.93663 16.368 8.90532 16.0597 8.68636C15.7513 8.46727 15.3492 8.22862 14.8503 8.04513Z" fill="white"/>
<path fill-rule="evenodd" clip-rule="evenodd" d="M14.5028 8.61125C15.0395 8.81468 15.0185 9.02287 15.6974 9.17088C16.1056 9.25981 16.5771 9.44428 16.7782 9.56367L16.7997 9.47082C16.5988 9.35143 16.1271 9.16709 15.719 9.07804C15.0625 8.93492 15.0605 8.73553 14.5757 8.53847C14.5591 8.55841 14.5188 8.59694 14.5028 8.61125Z" fill="#FFF101"/>
<path fill-rule="evenodd" clip-rule="evenodd" d="M14.8134 8.17578C14.875 8.21382 14.9418 8.24881 15.0028 8.27254C14.958 8.43156 14.7033 8.59645 14.7985 8.64501C14.8285 8.66079 14.9204 8.72049 14.969 8.75254C14.8931 8.70226 15.207 8.44905 15.2048 8.37113C15.5218 8.48122 15.7709 8.73407 15.9755 8.7929C15.9433 8.92159 15.7678 9.08746 15.8645 9.11278C15.9148 9.12428 16.0353 9.16122 16.1113 9.18336C16.0324 9.1589 16.179 9.03144 16.1696 8.95278C16.3387 9.01712 16.6527 9.15205 16.7854 9.23364L16.8668 9.08893C16.621 8.93663 16.368 8.90532 16.0597 8.68636C15.7513 8.46728 15.3492 8.22862 14.8503 8.04514C14.8416 8.08232 14.8242 8.14189 14.8134 8.17578Z" fill="#FFF101"/>
<path fill-rule="evenodd" clip-rule="evenodd" d="M17.2751 9.17785C17.096 8.78006 17.1751 8.137 17.3932 7.63021C17.6484 7.03706 17.6775 6.55278 17.6558 6.17015C17.7099 6.17113 17.7554 6.1414 17.8034 6.11963C18.3125 5.88758 18.6086 6.28929 18.4687 6.40929C18.522 6.36428 18.5694 6.34825 18.6085 6.32966C18.6758 6.29883 18.6158 6.05639 18.375 5.93626C18.2724 5.88501 18.0793 5.8855 17.963 5.91058C18.0579 5.79351 18.1242 5.75021 18.2549 5.72684C18.2569 5.78568 18.2405 5.85039 18.2191 5.89749C18.2627 5.90336 18.3134 5.90556 18.375 5.93626C18.4108 5.87241 18.4324 5.7814 18.4259 5.68795C18.6671 5.61969 18.8799 5.52782 19.1129 5.54103C19.4861 5.5622 19.5824 5.82911 19.2785 5.91461C19.5384 5.82483 19.7232 5.77798 19.8405 5.68183C19.9579 5.58568 19.9673 5.30801 19.662 5.24256C18.9725 5.09455 18.6165 5.51498 17.9634 5.39217C17.6548 5.33418 17.3772 5.35596 17.4117 5.77993C17.4163 5.83584 17.4167 5.85015 17.4211 5.89895C17.4211 6.02691 17.249 6.12501 17.0654 5.99204C17.1995 6.177 17.2809 6.16024 17.4231 6.15865C17.4252 6.09492 17.5678 6.18654 17.6035 6.16807C17.6108 6.40244 17.5978 6.67424 17.5252 6.98311C17.4334 6.94042 17.328 6.90972 17.2952 7.00146C17.2801 7.05198 17.2637 7.10262 17.245 7.15498C17.2776 7.06324 17.391 7.10079 17.4827 7.14348C17.4412 7.2855 17.3866 7.43522 17.3157 7.59253C17.2339 7.77382 17.1692 7.97296 17.1287 8.17259C17.032 8.14727 16.8639 8.11425 16.8439 8.21712C16.8252 8.30752 16.8107 8.39779 16.803 8.48599C16.8145 8.33321 16.9957 8.38018 17.0937 8.4011C17.0641 8.6751 17.0851 8.93663 17.1714 9.13773L17.2751 9.17785Z" fill="#FFF101"/>
<path fill-rule="evenodd" clip-rule="evenodd" d="M16.5586 10.0094C16.5786 10.1626 16.5656 10.2757 16.7811 10.2847C17.1335 10.2995 17.1049 10.3451 17.4565 10.1227C17.8143 9.89629 17.8238 9.941 17.9181 9.41121C17.9412 9.28094 17.8908 9.28253 17.7308 9.21085C17.3863 9.05623 17.0852 9.06679 16.7811 8.97688C16.6633 9.2745 16.5241 9.74571 16.5586 10.0094Z" fill="#FFF101"/>
<path fill-rule="evenodd" clip-rule="evenodd" d="M17.2411 9.05834C17.4313 9.09602 17.4012 9.09859 17.2373 9.27987C17.408 9.4751 17.5387 9.61246 17.6782 9.76806C17.8345 9.94225 17.8581 9.98139 17.7637 10.041C17.6429 10.1172 17.5129 10.2023 17.4312 10.2599C17.2888 10.3602 17.2772 10.3257 17.21 10.1958C17.1428 10.066 17.0454 9.78409 16.8999 9.5162C16.6828 9.62165 16.6406 9.67229 16.6588 9.51473C16.6791 9.33859 16.7373 9.06042 16.7748 8.95131C16.8885 8.99608 17.0607 9.02238 17.2411 9.05834Z" fill="#FFF101"/>
<path fill-rule="evenodd" clip-rule="evenodd" d="M16.9018 6.06813L16.7467 5.95547L16.925 5.89553L16.9112 5.69933L17.0685 5.80722L17.2046 5.67339L17.223 5.86936L17.4075 5.89969L17.2729 6.03498L17.3654 6.2055L17.1802 6.18018L17.1121 6.36269L17.0149 6.19413L16.8369 6.25125L16.9018 6.06813Z" fill="#FFF101"/>
</g>
<g clip-path="url(#clip2)">
<path fill-rule="evenodd" clip-rule="evenodd" d="M13.8602 8.59487C13.5705 8.30301 13.1333 8.17476 12.7995 8.28654L12.7902 8.28068C12.7025 7.79335 12.6827 7.32267 12.7142 6.85841C12.7264 6.67882 12.7159 6.54737 12.6807 6.31298C12.6661 6.21577 12.6641 6.20216 12.659 6.16192C12.6486 6.0812 12.6431 6.01285 12.6426 5.94544C12.3863 6.2704 11.8442 6.48822 11.2785 6.51112C10.6092 6.53806 10.1913 6.71477 9.65221 7.08918C9.35271 7.2972 9.18169 7.1734 9.04577 6.77764C8.95577 6.51595 8.84603 6.36489 8.58279 6.08682L8.56254 6.06543C8.28686 5.77409 8.16701 5.60415 8.0729 5.30786C7.98501 5.03146 8.17489 4.83947 8.35562 4.91633C8.36792 4.92155 8.38028 4.92749 8.39275 4.93417C8.45095 4.9653 8.51068 5.01132 8.58972 5.08345C8.61678 5.10815 8.6961 5.18392 8.75753 5.24259L8.75754 5.24261L8.75755 5.24261C8.79122 5.27478 8.81952 5.30181 8.83087 5.31246C8.83987 5.32091 8.84917 5.32907 8.85889 5.33706C8.84508 5.32796 8.83071 5.32201 8.81601 5.319L8.74753 5.25372C8.68615 5.19509 8.60708 5.11956 8.58016 5.09499C8.50195 5.02361 8.44307 4.97824 8.38614 4.94779C8.37404 4.94131 8.36206 4.93556 8.35016 4.93051C8.18105 4.85858 8.00272 5.03889 8.08671 5.30302C8.17994 5.59654 8.29864 5.76485 8.57287 6.05465L8.59312 6.07604C8.85775 6.35558 8.96856 6.50811 9.05947 6.77245C9.19265 7.16025 9.35466 7.27751 9.64417 7.07643C10.1853 6.70061 10.6056 6.52291 11.2779 6.49584C11.8495 6.4727 12.3966 6.24932 12.6442 5.91906L12.6572 5.92386C12.6566 5.99762 12.662 6.07115 12.6734 6.15988C12.6786 6.19996 12.6805 6.21353 12.6951 6.3106C12.7304 6.54605 12.7411 6.67848 12.7287 6.8595C12.6975 7.31982 12.7168 7.78644 12.803 8.2694L12.7951 8.27198L12.8045 8.27784L12.803 8.2694C13.141 8.16041 13.5791 8.29053 13.8639 8.58183C14.1515 8.52684 14.4674 8.14558 14.5684 7.76595C14.5185 7.1962 14.3345 6.681 14.0037 6.04813C13.9526 5.95048 13.8132 5.69423 13.7456 5.5699L13.7085 5.50156C13.603 5.3043 13.5364 5.16528 13.4907 5.03979C13.396 4.77997 13.0417 4.56033 12.7497 4.68196C12.7099 4.69852 12.6713 4.7117 12.629 4.72355C12.6018 4.73114 12.5742 4.73796 12.5365 4.7466C12.1476 4.83563 11.9323 4.91199 11.3663 5.20843L11.3185 5.23358C11.2097 5.29119 10.9476 5.43588 10.7844 5.52593L10.7843 5.52603C10.7151 5.56422 10.6637 5.59257 10.6495 5.60025C10.4253 5.721 10.285 5.78461 10.1837 5.80602C9.84872 5.87679 9.67937 5.87376 9.52323 5.74534C9.47406 5.7049 9.42151 5.66832 9.36362 5.63347C9.34867 5.62448 9.33352 5.61567 9.31787 5.60689L9.32251 5.60116L9.32049 5.59102C9.33777 5.60067 9.35444 5.61032 9.37086 5.62021C9.42933 5.65541 9.48247 5.69238 9.53222 5.7333C9.68379 5.85797 9.8499 5.86094 10.1808 5.79103C10.2803 5.76999 10.4199 5.70675 10.6428 5.58664C10.657 5.579 10.7082 5.55072 10.7773 5.5126L10.7774 5.51252L10.7775 5.5125C10.9406 5.42247 11.203 5.27762 11.3119 5.21993L11.3598 5.19474C11.927 4.89771 12.1434 4.82094 12.5334 4.73166C12.5709 4.72307 12.5983 4.7163 12.6252 4.70878C12.667 4.69708 12.7051 4.68407 12.7443 4.66775C13.0447 4.54264 13.4069 4.76721 13.5043 5.03433C13.5497 5.15896 13.616 5.29742 13.7212 5.49407L13.7581 5.56213C13.8257 5.68635 13.9653 5.94294 14.0165 6.04078C14.3482 6.67532 14.5328 7.19231 14.5827 7.7673C14.4801 8.15481 14.1603 8.5407 13.8602 8.59487ZM9.30489 5.5824L9.32049 5.59102L9.32015 5.58933C9.31506 5.58673 9.30997 5.58443 9.30489 5.5824ZM9.25219 5.57152C9.26968 5.57181 9.28728 5.57541 9.30489 5.5824C9.2782 5.56782 9.24987 5.55309 9.21862 5.53744C9.20344 5.52984 9.1698 5.51338 9.13847 5.49808L9.13811 5.49493C9.12572 5.48904 9.11362 5.48409 9.10176 5.48014L9.07358 5.46635C8.982 5.42091 8.91945 5.38483 8.86893 5.34513L8.86895 5.34434C8.86564 5.34172 8.86228 5.3393 8.85889 5.33706L8.86893 5.34513L8.86862 5.35682L8.8638 5.36018C8.85963 5.35695 8.85553 5.3537 8.85151 5.35041L8.85161 5.35034C8.85451 5.35226 8.85737 5.35433 8.8602 5.35656L8.86054 5.34409L8.85161 5.35034C8.85129 5.35013 8.85097 5.34992 8.85065 5.34971C8.84042 5.34133 8.83064 5.33275 8.82116 5.32386L8.81601 5.319C8.72245 5.29982 8.61546 5.39938 8.55467 5.55961L8.56547 5.5688L8.8638 5.36018C8.91025 5.39614 8.9665 5.42923 9.0448 5.46887C8.93088 5.46332 8.83519 5.56965 8.71295 5.84175L8.72403 5.85102L9.13382 5.51267C9.1647 5.52775 9.19747 5.54379 9.21235 5.55124C9.22617 5.55816 9.23941 5.5649 9.25219 5.57152ZM9.29912 5.59649C9.28408 5.58826 9.26852 5.57999 9.25219 5.57152C9.12231 5.56937 8.99871 5.74949 8.92461 6.07012L8.93723 6.07687L9.31787 5.60689L9.3047 5.59955L9.30515 5.59899L9.31379 5.60308L9.31142 5.59125L9.30515 5.59899L9.29912 5.59649ZM8.94637 6.04199C9.02943 5.70793 9.16615 5.54476 9.29912 5.59649L9.3047 5.59955L8.94637 6.04199ZM8.94637 6.04199L8.93876 6.07372L8.92614 6.06697L8.94637 6.04199ZM9.11902 5.50545L9.13382 5.51267L9.1396 5.5079L9.13847 5.49808L9.11905 5.4886L9.10176 5.48014C9.08217 5.4736 9.06325 5.46977 9.0448 5.46887L9.06736 5.48018L9.09668 5.49452C8.96902 5.45257 8.87157 5.53348 8.73958 5.81873L8.71503 5.839L8.72612 5.84827L8.73958 5.81873L9.11902 5.50545ZM9.121 5.50381C9.11276 5.50025 9.10466 5.49715 9.09668 5.49452L9.11304 5.50253L9.11902 5.50545L9.121 5.50381ZM9.121 5.50381L9.1321 5.50886L9.1306 5.49588L9.121 5.50381ZM8.57754 5.54199L8.85151 5.35041C8.85122 5.35018 8.85094 5.34995 8.85065 5.34971C8.76302 5.29294 8.64647 5.37944 8.57754 5.54199ZM8.57754 5.54199L8.5574 5.55608L8.5682 5.56527C8.5712 5.55735 8.57432 5.54959 8.57754 5.54199Z" fill="black"/>
<path fill-rule="evenodd" clip-rule="evenodd" d="M13.4174 7.76051C13.407 7.98656 13.4106 8.10818 13.4451 8.31082L13.4356 8.31938C13.4246 8.3153 13.4103 8.31042 13.3955 8.30535C13.3735 8.29777 13.3501 8.28977 13.3344 8.28337C13.3081 8.10568 13.3059 7.99503 13.3155 7.78639L13.3175 7.74305C13.329 7.47497 13.3087 7.29542 13.208 6.97536C13.0866 6.58908 12.9936 6.06183 12.9965 5.78642L13.0932 5.76702C13.0955 6.03355 13.1882 6.55912 13.3092 6.94378C13.4104 7.26579 13.431 7.44722 13.4194 7.7171L13.4174 7.76051ZM13.4404 8.30496L13.4308 8.31351C13.4301 8.30921 13.4294 8.30495 13.4287 8.30072C13.4328 8.3022 13.4368 8.30362 13.4404 8.30496ZM13.3431 8.2747C13.3616 8.27866 13.4004 8.2908 13.4287 8.30072C13.3959 8.10432 13.3927 7.98208 13.4029 7.75978L13.4048 7.71641C13.4164 7.44831 13.396 7.26872 13.2953 6.94857C13.1739 6.56249 13.0809 6.03538 13.0879 5.77443L13.0058 5.79369C13.0081 6.06 13.1009 6.58571 13.2218 6.97056C13.3231 7.29249 13.3436 7.47389 13.332 7.74374L13.33 7.78713C13.3205 7.99483 13.3227 8.10455 13.3431 8.2747Z" fill="black"/>
<path fill-rule="evenodd" clip-rule="evenodd" d="M11.7186 5.01058C11.637 5.04732 11.6377 5.17755 11.7036 5.3804C11.7564 5.54262 11.8498 5.74642 11.9622 5.95459L11.9755 5.94877L11.7285 5.01556L11.7186 5.01058ZM12.9158 8.0256C12.9264 8.09059 12.9315 8.16839 12.9308 8.24753L12.925 8.25494L12.9 8.26047C12.8636 8.26863 12.8223 8.27789 12.7902 8.28068C12.7025 7.79335 12.6827 7.32267 12.7142 6.85841C12.7264 6.67881 12.7159 6.54737 12.6807 6.31298C12.6661 6.21576 12.6641 6.20216 12.659 6.16192C12.6475 6.07252 12.642 5.9983 12.65 5.91614L12.8173 5.92554C12.8165 6.06387 12.8531 6.38194 12.8915 6.61336C12.9122 6.60185 12.9413 6.59871 12.9871 6.59959L13.0058 6.60007C13.0484 6.60129 13.0648 6.60085 13.0798 6.59669C13.097 6.59191 13.1027 6.58323 13.0986 6.56533L13.1128 6.56163C13.1179 6.58236 13.1402 6.67488 13.1388 6.6692L13.1409 6.67765C13.1584 6.74997 13.1699 6.79489 13.1778 6.82113C13.187 6.85482 13.1717 6.87447 13.1366 6.8816C13.1118 6.88664 13.0877 6.8864 13.0183 6.88263C12.9981 6.88152 12.9868 6.88097 12.9742 6.88053C12.9415 6.87938 12.9146 6.87984 12.8929 6.8802C12.8795 6.88042 12.8681 6.88061 12.8585 6.88038C12.8801 6.96702 12.8815 7.0458 12.8731 7.2677C12.865 7.48325 12.8661 7.5934 12.8845 7.72353C12.8874 7.74362 12.8906 7.76335 12.8943 7.78277C12.9216 7.7724 12.9703 7.78094 13.0939 7.80998L13.1022 7.81194C13.1778 7.82966 13.2173 7.83742 13.2518 7.83971C13.2934 7.84248 13.3134 7.83502 13.3141 7.81739L13.3131 7.84603C13.3 7.85424 13.2789 7.85684 13.2509 7.85497C13.2154 7.85261 13.1754 7.84477 13.099 7.82686L13.0907 7.8249C12.9601 7.79421 12.9133 7.78706 12.8928 7.80038L12.8819 7.79543C12.8774 7.77265 12.8735 7.74945 12.8701 7.72578C12.8515 7.59441 12.8504 7.48357 12.8586 7.26709C12.8669 7.04696 12.8655 6.96881 12.8496 6.87494C12.8816 6.86574 12.9205 6.86335 12.9747 6.86525C12.9874 6.86569 12.9987 6.86625 13.0191 6.86736C13.087 6.87105 13.1107 6.87129 13.1338 6.86659C13.1613 6.86101 13.1704 6.84935 13.1639 6.82555C13.1559 6.79913 13.1444 6.75407 13.1268 6.68143L13.1247 6.67297C13.1257 6.67692 13.1148 6.63213 13.1066 6.59812C13.1141 6.58941 13.1164 6.57731 13.1128 6.56175L13.0987 6.56545L13.1066 6.59812C13.1014 6.60422 13.0936 6.60867 13.0835 6.61147C13.0666 6.61617 13.0497 6.61663 13.0054 6.61535L12.9868 6.61488C12.9367 6.61392 12.9082 6.61804 12.8906 6.63202L12.879 6.62726C12.8398 6.39416 12.8019 6.06719 12.8099 5.93314L12.6572 5.92385C12.6566 5.99762 12.662 6.07115 12.6734 6.15988C12.6786 6.19995 12.6805 6.21353 12.6951 6.3106C12.7304 6.54605 12.7411 6.67848 12.7287 6.8595C12.6973 7.32251 12.7171 7.79188 12.7953 8.27192C12.8248 8.26285 12.8755 8.2502 12.9163 8.24123L12.9162 8.24738L12.922 8.23997L12.9163 8.24123C12.9167 8.16508 12.9118 8.0903 12.9069 8.01947C12.9478 8.00915 12.9973 8.01085 13.0608 8.02193C13.0821 8.02565 13.1034 8.03007 13.1333 8.03677C13.225 8.05733 13.2386 8.05999 13.2656 8.06053C13.299 8.06119 13.3125 8.05162 13.3108 8.02692C13.3092 8.00057 13.3104 7.93054 13.3131 7.84603C13.3229 7.83991 13.3282 7.83069 13.3286 7.8179L13.3141 7.81733L13.3141 7.81732L13.3286 7.81789C13.3253 7.91418 13.3236 7.99741 13.3254 8.02589C13.3277 8.06135 13.3062 8.07663 13.2653 8.07582C13.2369 8.07525 13.2234 8.07262 13.1302 8.05172C13.1005 8.04506 13.0795 8.04069 13.0584 8.03702C12.9967 8.02624 12.9489 8.0246 12.9158 8.0256ZM11.7168 5.02853L11.7145 5.01966L11.7244 5.02463C11.7218 5.02581 11.7193 5.02711 11.7168 5.02853ZM11.9452 5.89146C11.8466 5.70361 11.7651 5.52219 11.7174 5.37546C11.6562 5.18716 11.6534 5.06581 11.7168 5.02853L11.9452 5.89146ZM11.9452 5.89146C11.9549 5.90994 11.9648 5.92848 11.9748 5.94705L11.9615 5.95287L11.9452 5.89146ZM11.7611 6.1484L11.761 6.14845L11.761 6.14846L11.7606 6.14861L11.7655 6.16511C11.8344 6.13815 11.9033 6.1065 11.9722 6.07046L11.9667 6.05426L11.9664 6.0544L11.9664 6.05439L11.9663 6.05446L11.7611 6.1484ZM11.7611 6.1484C11.8294 6.12165 11.8978 6.09024 11.9663 6.05446L11.9664 6.0544L11.9719 6.07059L11.7658 6.16494L11.761 6.14846L11.7611 6.1484ZM10.582 6.37656C10.582 6.37659 10.5819 6.37661 10.5818 6.37663L10.5857 6.39352L10.7392 6.34606L10.7358 6.32905C10.7357 6.32907 10.7356 6.32909 10.7356 6.32911L10.7356 6.3291L10.7355 6.32914C10.6831 6.34354 10.6321 6.3593 10.5821 6.37653L10.582 6.37656L10.582 6.37656ZM10.582 6.37656L10.5859 6.39344C10.6357 6.37624 10.6867 6.36049 10.739 6.34611L10.7356 6.32911C10.7355 6.32912 10.7355 6.32913 10.7355 6.32914L10.5821 6.37653C10.5821 6.37654 10.5821 6.37655 10.582 6.37656Z" fill="black"/>
<path fill-rule="evenodd" clip-rule="evenodd" d="M11.183 6.16695C11.7404 6.10859 12.2878 5.84539 12.5132 5.50366L12.5264 5.50671L12.5439 5.62697C12.4248 5.80074 12.2243 5.95332 11.9762 6.05898C11.9756 6.05714 11.9863 6.09104 11.9896 6.10128C11.9953 6.11864 12.0004 6.13353 12.0058 6.14772C12.0495 6.26396 12.1011 6.31363 12.1769 6.2786C12.1584 6.28748 12.1394 6.29617 12.1198 6.30466C12.0667 6.29809 12.0263 6.24394 11.9922 6.15334C11.9868 6.1389 11.9816 6.12379 11.9759 6.10621C11.9725 6.0959 11.9618 6.06193 11.9664 6.05439C12.2162 5.94031 12.4147 5.78932 12.5308 5.6238L12.515 5.52745C12.5185 5.52244 12.5219 5.51741 12.5252 5.51236L12.512 5.5093L12.515 5.52745C12.2809 5.86603 11.7376 6.12425 11.1844 6.18216C10.6497 6.23816 10.2398 6.4037 9.84163 6.6694C9.82504 6.63804 9.80511 6.61956 9.75502 6.58292L9.75483 6.58278C9.74156 6.57307 9.73559 6.56863 9.72832 6.56296C9.5267 6.40616 9.43445 6.20875 9.44787 6.02603C9.45724 5.89835 9.52055 5.80308 9.59348 5.79354C9.60705 5.80115 9.62111 5.80794 9.63624 5.8141L9.64145 5.79982C9.62531 5.7934 9.60917 5.79149 9.59348 5.79354C9.5803 5.78615 9.56759 5.77799 9.55481 5.76888C9.54275 5.76028 9.51082 5.73523 9.5015 5.72791C9.49998 5.72672 9.49906 5.72599 9.49892 5.72589C9.42849 5.67109 9.28486 5.89342 9.30279 6.12819C9.31091 6.23448 9.39687 6.40611 9.48586 6.511L9.47912 6.5236C9.33187 6.49546 9.26207 6.45507 9.17902 6.33614C9.22179 6.30818 9.27858 6.28917 9.33092 6.28326L9.33483 6.29285L9.33507 6.29244L9.34099 6.28228C9.33772 6.28255 9.33443 6.28287 9.33112 6.28324C9.33105 6.28325 9.33098 6.28325 9.33092 6.28326L9.32018 6.25698C9.30978 6.23109 9.30211 6.20835 9.29803 6.18654C9.29488 6.16963 9.29389 6.15327 9.29547 6.13645C9.29329 6.13643 9.29111 6.13644 9.28891 6.13647C9.21793 6.13749 9.13652 6.16483 9.06018 6.21202C9.0493 6.20064 9.03804 6.18902 9.02617 6.17693C9.00575 6.15612 8.95279 6.10339 8.9157 6.06647C8.89741 6.04826 8.88297 6.03389 8.87821 6.02909C8.73548 5.88526 8.65455 5.78412 8.59397 5.65887C8.51391 5.49312 8.5044 5.34216 8.56052 5.26335C8.59793 5.21083 8.65711 5.19996 8.72404 5.23128C8.73205 5.23893 8.73993 5.24645 8.74753 5.25372C8.76104 5.26662 8.77369 5.2787 8.78474 5.28924C8.69645 5.21414 8.61643 5.21038 8.57219 5.27251C8.52001 5.34578 8.52914 5.49085 8.60696 5.65195C8.66662 5.77531 8.74665 5.87532 8.88829 6.01806C8.89302 6.02283 8.90739 6.03713 8.92562 6.05527C8.96271 6.0922 9.01581 6.14506 9.03631 6.16596C9.04822 6.1781 9.05953 6.18976 9.06123 6.20028C9.12887 6.15203 9.20988 6.12395 9.28811 6.12719C9.27046 5.88273 9.42276 5.6476 9.50751 5.71354C9.50768 5.71367 9.50879 5.71455 9.5106 5.71596C9.52052 5.72375 9.55142 5.74798 9.56298 5.75622C9.58808 5.77411 9.61278 5.78815 9.6415 5.79984L9.63629 5.81412C9.55656 5.78242 9.47314 5.88075 9.46239 6.0272C9.44937 6.20451 9.53928 6.39692 9.737 6.55068C9.74412 6.55624 9.75 6.56061 9.76315 6.57023L9.76334 6.57037C9.81523 6.60832 9.83633 6.62789 9.84399 6.6593C10.2336 6.38964 10.6457 6.22321 11.183 6.16695ZM9.33748 6.29794C9.28589 6.30292 9.22895 6.32121 9.18848 6.33775C9.267 6.43734 9.33121 6.47713 9.46127 6.50446C9.41458 6.44577 9.36985 6.37087 9.33748 6.29794ZM8.79478 5.27817C8.77067 5.2576 8.7469 5.24198 8.72404 5.23128C8.66736 5.17716 8.60375 5.11652 8.58016 5.09499C8.50195 5.02361 8.44307 4.97824 8.38614 4.94779C8.37404 4.94132 8.36206 4.93556 8.35016 4.93051C8.18105 4.85859 8.00272 5.03889 8.08671 5.30302C8.17994 5.59654 8.29864 5.76485 8.57287 6.05465L8.59312 6.07604C8.85775 6.35558 8.96856 6.50811 9.05947 6.77245C9.12109 6.95189 9.18677 7.06943 9.2698 7.13003C9.3686 7.20214 9.4902 7.18913 9.64403 7.07654C9.66224 7.06321 9.6749 7.05409 9.69618 7.03883L9.69682 7.03837C9.71111 7.02808 9.72235 7.01987 9.7381 7.00818C9.85538 6.93702 9.99905 7.05575 10.0047 7.24863C10.0003 7.26145 9.99527 7.27481 9.98971 7.28879L10.0037 7.29235C10.0048 7.2774 10.0052 7.26281 10.0047 7.24863C10.0434 7.13732 10.0407 7.0669 10.0049 6.9899C9.99817 6.97534 9.99022 6.96024 9.97927 6.94077C9.97907 6.94042 9.97885 6.94002 9.9786 6.93958C9.97288 6.92945 9.95419 6.89633 9.95825 6.8898C9.93974 6.90016 9.92477 6.89183 9.91424 6.86997C9.90701 6.85498 9.90225 6.83702 9.89464 6.80083L9.89279 6.79202C9.88313 6.74606 9.87694 6.72668 9.86843 6.72073L9.86862 6.70788C10.0936 6.56105 10.3209 6.44993 10.5911 6.37716C10.605 6.51368 10.6402 6.58318 10.7124 6.57051C10.7468 6.56248 10.7804 6.55525 10.814 6.54871C10.8291 6.55602 10.8467 6.55801 10.867 6.55445C10.8166 6.56324 10.767 6.57344 10.7152 6.58552C10.6304 6.60041 10.5914 6.52338 10.5859 6.38532C10.3294 6.46327 10.1056 6.57212 9.88427 6.71568C9.89278 6.72727 9.89847 6.74807 9.90701 6.78872L9.90886 6.79753C9.91619 6.83237 9.92077 6.84966 9.92723 6.86307C9.93449 6.87814 9.94133 6.88194 9.9611 6.87916L9.99181 6.93299C10.0029 6.95279 10.0111 6.96821 10.018 6.98319C10.0599 7.07326 10.0586 7.1555 10.0031 7.29469L9.98917 7.29113C10.005 7.08414 9.8599 6.95193 9.74596 7.02103C9.73071 7.03239 9.71941 7.04065 9.70505 7.05098L9.70441 7.05144C9.68313 7.06671 9.67052 7.07579 9.65236 7.08908C9.49393 7.20504 9.36584 7.21874 9.26149 7.14259C9.17531 7.07969 9.10834 6.95984 9.04577 6.77764C8.95577 6.51595 8.84603 6.36489 8.58279 6.08682L8.56254 6.06543C8.28686 5.77409 8.16701 5.60415 8.0729 5.30786C7.98501 5.03146 8.17489 4.83947 8.35562 4.91633C8.36792 4.92155 8.38028 4.92749 8.39275 4.93417C8.45095 4.9653 8.51068 5.01132 8.58972 5.08345C8.61679 5.10816 8.69612 5.18394 8.75754 5.24261C8.77108 5.25554 8.78374 5.26763 8.79478 5.27817ZM10.8646 6.53937L10.867 6.55445L10.8646 6.53937C10.8646 6.53937 10.8646 6.53937 10.8646 6.53937ZM10.8646 6.53937C10.7932 6.55191 10.7591 6.47848 10.7446 6.3357C10.8817 6.30956 11.0323 6.28518 11.1919 6.27147C11.3849 6.25485 11.5821 6.21365 11.7655 6.15112C11.8035 6.31885 11.8607 6.41728 11.9446 6.3878C12.0318 6.35846 12.1107 6.32712 12.1826 6.29269C12.1843 6.2919 12.186 6.29107 12.1878 6.2902L12.1816 6.27635C12.18 6.2771 12.1785 6.27785 12.1769 6.2786C12.1784 6.2779 12.18 6.27716 12.1815 6.2764L12.1877 6.29024C12.186 6.29106 12.1843 6.29187 12.1826 6.29269C12.1598 6.30322 12.139 6.30703 12.1198 6.30466C12.0642 6.3289 12.0044 6.35162 11.9401 6.37327C11.869 6.39823 11.8149 6.30513 11.7702 6.14174C11.5786 6.19874 11.3826 6.23971 11.1907 6.25623C11.0304 6.27 10.8791 6.29449 10.7358 6.32906C10.7431 6.45007 10.7665 6.52571 10.814 6.54871C10.8309 6.54543 10.8477 6.54232 10.8646 6.53937ZM8.79478 5.27817C8.80685 5.28846 8.819 5.29999 8.83116 5.31275L8.82116 5.32386C8.81431 5.31743 8.80132 5.30507 8.78474 5.28924C8.79665 5.29938 8.80872 5.31082 8.82087 5.32357L8.83087 5.31246C8.82408 5.30609 8.81122 5.29386 8.79478 5.27817Z" fill="black"/>
<path fill-rule="evenodd" clip-rule="evenodd" d="M13.7459 8.90469C13.6499 9.31397 13.7627 9.77565 14.0219 10.0233L14.0218 10.0348C13.6638 10.3581 13.2857 10.6111 12.8866 10.8148C12.7693 10.8747 12.6694 10.9418 12.5601 11.0294C12.5331 11.0511 12.5062 11.0734 12.4716 11.1027C12.4747 11.1 12.4056 11.1587 12.3866 11.1747C12.3013 11.2462 12.2377 11.2943 12.1692 11.3365C12.5655 11.407 13.0162 11.7911 13.3179 12.2941C13.6748 12.8892 14.03 13.1812 14.6079 13.4837C14.9292 13.652 14.9125 13.8693 14.6542 14.191C14.4821 14.4051 14.4137 14.5782 14.3139 14.9646C14.2051 15.3855 14.1294 15.5721 13.9282 15.8104C13.7441 16.0285 13.491 15.952 13.4639 15.7492C13.4542 15.6767 13.4598 15.5946 13.4797 15.4804C13.4887 15.4291 13.5251 15.2536 13.5432 15.1668L13.5531 15.1189C13.5555 15.1068 13.5575 15.095 13.5593 15.0832C13.5589 15.0995 13.5612 15.1149 13.5658 15.1292L13.5573 15.1705C13.5392 15.2574 13.5029 15.4322 13.494 15.4831C13.4744 15.5959 13.4689 15.6765 13.4783 15.7471C13.5037 15.9368 13.7414 16.0087 13.9173 15.8003C14.1166 15.5642 14.1916 15.3794 14.2998 14.9605C14.4002 14.5722 14.4692 14.3974 14.643 14.1811C14.8962 13.8659 14.9119 13.6601 14.6014 13.4974C14.0213 13.1937 13.6642 12.9001 13.3055 12.3023C13.0007 11.794 12.5429 11.4082 12.1467 11.3482L12.1441 11.334C12.2189 11.2897 12.2853 11.2399 12.3775 11.1627C12.3965 11.1468 12.4656 11.0882 12.4624 11.0908C12.4972 11.0614 12.5241 11.0391 12.5513 11.0173C12.6612 10.929 12.762 10.8614 12.8802 10.8011C13.2759 10.5991 13.6509 10.3485 14.0061 10.0288L14.0121 10.0346L14.0123 10.0232L14.0061 10.0288C13.747 9.7758 13.6353 9.31239 13.7332 8.90781C13.544 8.67385 13.0715 8.57716 12.708 8.6751C12.3582 8.93469 12.067 9.26721 11.7907 9.69164C11.7146 9.8085 11.5607 10.0762 11.411 10.3369L11.411 10.3369C11.2553 10.6076 11.1042 10.8707 11.0492 10.9489C11.032 10.9734 11.015 10.9966 10.9982 11.0183C10.8312 11.2343 10.8272 11.6661 11.0736 11.8709C11.0851 11.8805 11.0963 11.8902 11.1072 11.9C11.1405 11.9302 11.1707 11.9614 11.2063 12.0014L11.2483 12.0497L11.2483 12.0497L11.2484 12.0498C11.2764 12.0821 11.3101 12.121 11.3255 12.1382C11.379 12.198 11.4323 12.2532 11.4961 12.3135C11.6607 12.469 11.8835 12.646 12.1995 12.8655C12.3603 12.9773 12.8659 13.3112 12.8634 13.3095C13.0869 13.4603 13.2135 13.5585 13.2837 13.6422C13.5094 13.9109 13.5918 14.0668 13.5639 14.273C13.5524 14.3583 13.549 14.4341 13.5523 14.529L13.5453 14.5276L13.5379 14.5346C13.5343 14.4365 13.5376 14.3588 13.5495 14.2708C13.5766 14.0707 13.4958 13.9177 13.2728 13.6523C13.2038 13.5701 13.0779 13.4724 12.8555 13.3224C12.8582 13.3242 12.3524 12.9901 12.1914 12.8783C11.8749 12.6583 11.6515 12.4809 11.4863 12.3249C11.4222 12.2643 11.3686 12.2088 11.3149 12.1487C11.2994 12.1313 11.2655 12.0922 11.2374 12.0598L11.1957 12.0118C11.1604 11.9722 11.1305 11.9414 11.0976 11.9116C11.0869 11.9019 11.0759 11.8924 11.0646 11.8829C10.8111 11.6722 10.8152 11.2307 10.9869 11.0086C11.0035 10.9871 11.0204 10.9642 11.0375 10.9398C11.092 10.8622 11.2425 10.6004 11.3977 10.3303L11.3977 10.3303L11.3977 10.3303L11.3977 10.3303L11.3977 10.3303L11.3977 10.3303L11.3977 10.3303C11.5478 10.0692 11.7022 9.80047 11.7787 9.68301C12.0559 9.25719 12.3482 8.92337 12.702 8.66146C13.0728 8.56102 13.551 8.65889 13.7459 8.90469ZM13.5387 14.5531L13.5379 14.5346L13.5367 14.5357C13.5371 14.5417 13.5378 14.5475 13.5387 14.5531ZM13.5562 14.6066C13.5476 14.5905 13.5417 14.5727 13.5387 14.5531C13.5411 14.6061 13.5454 14.6652 13.5513 14.7348L13.5523 14.7465L13.5499 14.7484C13.5512 14.7626 13.5532 14.776 13.5559 14.7888C13.5672 14.9282 13.5695 15.0005 13.5613 15.0678L13.5603 15.0684C13.5597 15.0734 13.5594 15.0784 13.5593 15.0832L13.5613 15.0678L13.5708 15.0625L13.5763 15.0654C13.5757 15.0707 13.575 15.0761 13.5743 15.0814L13.5739 15.0812C13.5741 15.0776 13.5743 15.074 13.5748 15.0703L13.5643 15.0762L13.5739 15.0812C13.5739 15.0823 13.5739 15.0833 13.5738 15.0844C13.572 15.0968 13.5699 15.1092 13.5673 15.122L13.5658 15.1292C13.5968 15.2239 13.7325 15.2714 13.8949 15.2465L13.8971 15.232L13.5763 15.0654C13.5829 15.0083 13.5821 14.9472 13.5748 14.8459C13.6271 14.9524 13.7627 14.9864 14.0486 14.9615L14.0507 14.9468L13.5667 14.7434L13.5658 14.7335C13.5618 14.6868 13.5586 14.645 13.5562 14.6066ZM13.5532 14.5513C13.554 14.569 13.555 14.5873 13.5562 14.6066C13.6195 14.7255 13.8298 14.7477 14.131 14.6549L14.1303 14.6401L13.5523 14.529L13.5529 14.5446L13.5522 14.5445L13.5513 14.5346L13.5427 14.5427L13.5522 14.5445L13.5532 14.5513ZM14.0969 14.6492C13.78 14.7406 13.5771 14.6979 13.5532 14.5513L13.5529 14.5446L14.0969 14.6492ZM14.0969 14.6492L14.1269 14.6402L14.1277 14.6551L14.0969 14.6492ZM13.5681 14.7605L13.5667 14.7434L13.5599 14.7405L13.5523 14.7465L13.5559 14.7888C13.5602 14.8097 13.5665 14.8287 13.5748 14.8459C13.5735 14.8274 13.572 14.8076 13.5703 14.7862C13.5994 14.9232 13.715 14.9714 14.0163 14.9488L14.0453 14.961L14.0474 14.9463L14.0163 14.9488L13.5681 14.7605ZM13.5658 14.7595C13.567 14.7688 13.5684 14.7777 13.5703 14.7862L13.5681 14.7605L13.5658 14.7595ZM13.5658 14.7595L13.5644 14.7469L13.5545 14.7547L13.5658 14.7595ZM13.869 15.2345L13.5743 15.0814C13.5741 15.0824 13.574 15.0834 13.5738 15.0844C13.5725 15.1912 13.7016 15.2531 13.869 15.2345ZM13.869 15.2345L13.8906 15.2457L13.8928 15.2313C13.8848 15.2326 13.8768 15.2336 13.869 15.2345Z" fill="black"/>
<path fill-rule="evenodd" clip-rule="evenodd" d="M13.2616 9.73386C13.4753 9.61819 13.5642 9.56119 13.719 9.42412L13.7308 9.42856C13.7329 9.44051 13.7361 9.45615 13.7394 9.47246C13.7442 9.49609 13.7493 9.52113 13.7519 9.53842C13.6137 9.65527 13.5332 9.70572 13.3339 9.81358L13.2929 9.83596C13.0838 9.95119 12.9425 10.0644 12.7361 10.3075C12.4782 10.6111 12.0899 10.9592 11.8612 11.0942L11.7968 11.016C12.0155 10.8808 12.4026 10.5337 12.6594 10.2312C12.8671 9.98665 13.0099 9.87231 13.2206 9.75622L13.2616 9.73386ZM13.7165 9.43136L13.7283 9.43581C13.7252 9.43862 13.722 9.44141 13.7189 9.44416C13.718 9.43959 13.7172 9.43529 13.7165 9.43136ZM13.7189 9.44416C13.5688 9.57616 13.4785 9.63367 13.2683 9.74745L13.2274 9.76975C13.0181 9.88502 12.8768 9.99824 12.6703 10.2414C12.4126 10.545 12.0242 10.8931 11.8055 11.0171L11.8625 11.0821C12.0811 10.9469 12.4683 10.5998 12.7252 10.2973C12.9329 10.0528 13.0756 9.93848 13.2861 9.82242L13.3273 9.79999C13.5257 9.69257 13.6055 9.64255 13.7404 9.53492C13.7343 9.5161 13.7248 9.4744 13.7189 9.44416Z" fill="black"/>
<path fill-rule="evenodd" clip-rule="evenodd" d="M12.597 11.8967L12.6059 11.8846C12.6663 11.9314 12.7236 11.9803 12.7775 12.0313L12.768 12.0429L12.597 11.8967ZM12.5973 11.8969C12.6573 11.9434 12.7142 11.992 12.7677 12.0426L12.7772 12.031L12.6062 11.8848L12.5973 11.8969ZM13.5606 13.0075C13.5608 13.0077 13.561 13.0078 13.5612 13.008L13.5724 12.9963L13.5722 12.996C13.5723 12.9962 13.5724 12.9963 13.5725 12.9964L13.5613 13.0082L13.5606 13.0075ZM13.4396 12.8801L13.5606 13.0075C13.5211 12.9681 13.481 12.9259 13.4396 12.8801ZM13.4392 12.8796C13.4393 12.8798 13.4395 12.8799 13.4396 12.8801L13.4392 12.8796L13.4392 12.8796ZM13.4507 12.8682L13.4392 12.8796C13.4392 12.8795 13.4391 12.8795 13.4391 12.8794L13.4506 12.868L13.4507 12.8682ZM13.4512 12.8686L13.5722 12.996C13.5326 12.9567 13.4926 12.9145 13.4512 12.8686ZM13.4512 12.8686L13.4507 12.8682L13.4508 12.8682C13.4509 12.8683 13.451 12.8685 13.4512 12.8686Z" fill="black"/>
<path fill-rule="evenodd" clip-rule="evenodd" d="M11.8748 11.6733L11.8708 11.6598C11.8766 11.6603 11.8825 11.6609 11.8883 11.6615L11.8748 11.6733ZM12.7257 11.6312C12.7378 11.6606 12.7357 11.6943 12.721 11.7315C12.7076 11.7654 12.685 11.8005 12.6525 11.8413C12.6404 11.8565 12.6284 11.8708 12.5973 11.8969C12.3779 11.7267 12.1543 11.6218 11.9599 11.5992L11.8883 11.6615C12.2847 11.7051 12.7693 12.07 13.0936 12.544C13.407 13.0022 13.7484 13.292 14.1669 13.5214C14.1493 13.5523 14.144 13.5797 14.1389 13.6438L14.1388 13.6455C14.1375 13.6607 14.1368 13.6686 14.1359 13.6777C14.1073 13.9394 13.9906 14.122 13.8332 14.2011C13.7233 14.2564 13.6131 14.2465 13.5687 14.1852C13.5682 14.1692 13.5667 14.1534 13.5641 14.1358L13.5497 14.1382C13.5525 14.1562 13.5591 14.1719 13.5687 14.1852C13.5695 14.2116 13.5676 14.2382 13.5636 14.273C13.5617 14.2893 13.5608 14.2967 13.5601 14.3048C13.5501 14.3963 13.8053 14.4157 13.9899 14.282C14.0735 14.2215 14.172 14.0577 14.2142 13.9242L14.228 13.924C14.2782 14.0718 14.2798 14.1555 14.2234 14.2905C14.179 14.2658 14.135 14.2237 14.1038 14.1789C14.1066 14.175 14.1088 14.1719 14.1097 14.1706L14.1092 14.1706L14.0979 14.1703C14.0998 14.1731 14.1017 14.176 14.1036 14.1787C14.1037 14.1788 14.1037 14.1789 14.1038 14.1789C14.103 14.18 14.1022 14.1812 14.1013 14.1823C14.0946 14.1919 14.0857 14.2043 14.0819 14.2094C14.0701 14.2254 14.0592 14.2388 14.0471 14.2516C14.0404 14.2587 14.0334 14.2655 14.0263 14.2711C14.0178 14.2778 14.0091 14.2829 14.0004 14.2846C14.0015 14.2865 14.0026 14.2885 14.0037 14.2905C14.04 14.3545 14.1032 14.4148 14.1804 14.4607C14.1672 14.5127 14.1642 14.5258 14.1353 14.6531C14.0773 14.9089 14.0378 15.0312 13.9572 15.1611C13.8606 15.3168 13.7408 15.4009 13.6477 15.3893C13.5856 15.3815 13.5471 15.3331 13.5395 15.2564C13.5461 15.2243 13.5523 15.1944 13.5572 15.1708C13.5388 15.2896 13.5757 15.3649 13.6495 15.3741C13.736 15.3849 13.8511 15.3041 13.945 15.1528C14.0244 15.0248 14.0635 14.9037 14.1212 14.6495C14.1501 14.522 14.1531 14.509 14.1702 14.4656C14.0965 14.4282 14.0328 14.3686 13.9964 14.2959C13.8037 14.4341 13.5336 14.4133 13.5456 14.3032C13.5464 14.2951 13.5472 14.2875 13.5491 14.2711C13.5555 14.2166 13.5564 14.1831 13.5497 14.1382L13.5641 14.1358C13.5779 14.2241 13.7007 14.2508 13.8269 14.1874C13.9796 14.1105 14.0934 13.9326 14.1214 13.6759C14.1224 13.6671 14.123 13.6593 14.1242 13.6442L14.1244 13.6425C14.1297 13.5761 14.1353 13.5471 14.1574 13.5243C13.7399 13.3046 13.3967 13.0133 13.0817 12.553C12.7549 12.0752 12.2642 11.7091 11.8696 11.675L11.8655 11.6615L11.9559 11.5857C12.1586 11.6069 12.3846 11.7129 12.5961 11.8857C12.6175 11.8606 12.6293 11.8465 12.6413 11.8315C12.673 11.7917 12.6949 11.7578 12.7075 11.7257C12.7291 11.6711 12.7212 11.6273 12.6765 11.5931C12.6928 11.6052 12.7092 11.618 12.7257 11.6312ZM13.5811 12.6976C13.586 12.7523 13.5353 12.8113 13.4391 12.8786C13.3391 12.7658 13.2433 12.6404 13.1516 12.5013C13.0421 12.3352 12.9103 12.1775 12.7674 12.0316C12.8799 11.9091 12.9295 11.8136 12.8734 11.7614C12.8229 11.7132 12.7739 11.6699 12.7257 11.6312C12.718 11.6126 12.7046 11.5957 12.6849 11.5807C12.7495 11.6287 12.8151 11.6851 12.8831 11.75C12.9494 11.8117 12.8969 11.9126 12.7775 12.0313C12.9209 12.1669 13.0535 12.3256 13.1635 12.4926C13.2548 12.6311 13.3503 12.7559 13.4401 12.8672C13.5508 12.7825 13.5942 12.715 13.5481 12.6562C13.559 12.6702 13.57 12.684 13.5811 12.6976ZM13.5593 12.6465L13.5481 12.6562C13.5481 12.6562 13.5481 12.6562 13.5481 12.6562L13.5593 12.6465ZM14.1836 13.4595C13.9546 13.3301 13.7531 13.181 13.5605 12.9867C13.6715 12.9129 13.7157 12.8387 13.6609 12.7691C13.6259 12.7291 13.5925 12.6888 13.5593 12.6465L13.5593 12.6465C13.5724 12.6632 13.5796 12.6802 13.5811 12.6976C13.6037 12.7253 13.6265 12.7524 13.6499 12.7791C13.6966 12.8384 13.6567 12.9053 13.5511 12.986C13.7463 13.1954 13.9515 13.3465 14.1851 13.4777L14.1958 13.4714C14.1965 13.46 14.2088 13.4459 14.2479 13.4083L14.2546 13.4019C14.2773 13.3799 14.2899 13.3659 14.2977 13.3523C14.3087 13.3331 14.3073 13.3162 14.2905 13.3052C14.2952 13.3098 14.3165 13.2706 14.3257 13.2537C14.3267 13.2519 14.3275 13.2504 14.3282 13.2492C14.3829 13.1498 14.4363 13.1063 14.5632 13.0834C14.4069 13.185 14.3807 13.3751 14.4982 13.4461C14.5152 13.4544 14.5271 13.4603 14.5434 13.4685L14.5439 13.4688C14.5771 13.4854 14.5805 13.4871 14.6016 13.4974C14.7713 13.581 14.8428 13.6851 14.8327 13.811C14.8243 13.9168 14.7602 14.0353 14.643 14.1811C14.4692 14.3974 14.4002 14.5722 14.2998 14.9606C14.1916 15.3794 14.1166 15.5642 13.9173 15.8003C13.7414 16.0087 13.5037 15.9368 13.4783 15.7471C13.4689 15.6765 13.4744 15.5959 13.494 15.4831C13.5005 15.446 13.5216 15.3431 13.5395 15.2564C13.5369 15.2299 13.538 15.2 13.5431 15.1672C13.5431 15.1671 13.5431 15.167 13.5432 15.1668C13.5484 15.1416 13.5521 15.1238 13.5531 15.1189L13.5672 15.1225C13.5629 15.1393 13.5596 15.1554 13.5572 15.1708C13.5573 15.1707 13.5573 15.1706 13.5573 15.1705C13.5626 15.145 13.5663 15.1271 13.5673 15.1221L13.5532 15.1185C13.5489 15.1354 13.5455 15.1516 13.5431 15.1672C13.525 15.2541 13.4886 15.4292 13.4797 15.4804C13.4598 15.5946 13.4542 15.6767 13.4639 15.7492C13.491 15.952 13.7441 16.0286 13.9282 15.8105C14.1294 15.5721 14.2051 15.3855 14.3139 14.9646C14.4137 14.5782 14.4821 14.4051 14.6541 14.191C14.7731 14.0429 14.8385 13.9221 14.8473 13.8123C14.8579 13.6793 14.7826 13.5697 14.6078 13.4836C14.5867 13.4733 14.5833 13.4716 14.5502 13.455L14.5497 13.4547C14.5333 13.4465 14.5214 13.4406 14.5048 13.4326C14.3908 13.3636 14.4273 13.1655 14.6059 13.0764L14.6019 13.0619C14.4406 13.0836 14.378 13.128 14.3156 13.2415C14.3103 13.2511 14.2953 13.2795 14.2865 13.2961C14.2833 13.3021 14.281 13.3066 14.2803 13.3079C14.2919 13.3242 14.2926 13.3316 14.2852 13.3444C14.2784 13.3563 14.2664 13.3696 14.2447 13.3906L14.2381 13.397C14.2034 13.4304 14.1887 13.4458 14.1836 13.4595ZM14.5632 13.0834C14.5747 13.0759 14.5868 13.069 14.5997 13.0626L14.6037 13.0771C14.5894 13.079 14.576 13.0811 14.5632 13.0834ZM12.6849 11.5807C12.6837 11.5797 12.6824 11.5788 12.6812 11.5778L12.6728 11.5904C12.6741 11.5913 12.6753 11.5922 12.6765 11.5931C12.6752 11.5922 12.674 11.5913 12.6728 11.5903L12.6811 11.5778C12.6824 11.5787 12.6837 11.5797 12.6849 11.5807ZM14.1126 14.1656C14.1427 14.2102 14.1862 14.2527 14.22 14.2811C14.2627 14.1599 14.2635 14.0816 14.2211 13.9498C14.1959 14.0217 14.1565 14.0998 14.1126 14.1656Z" fill="black"/>
<path fill-rule="evenodd" clip-rule="evenodd" d="M14.6239 12.8735L14.5089 12.7275L14.4962 12.7306L14.4543 12.921L14.2735 12.9192L14.268 12.9316L14.3845 13.0848L14.2709 13.2309L14.2767 13.2432L14.4636 13.2445L14.5008 13.4287L14.5135 13.4317L14.6308 13.279L14.7931 13.3624L14.8032 13.3537L14.7608 13.1631L14.9246 13.0827L14.9245 13.069L14.7558 12.9832L14.7995 12.7998L14.7892 12.7913L14.6239 12.8735ZM14.7821 12.8117L14.625 12.8898L14.6163 12.8878L14.5067 12.7487L14.5104 12.7341L14.4977 12.7372L14.5067 12.7487L14.4615 12.9303L14.288 12.9342L14.2794 12.9221L14.2738 12.9345L14.288 12.9342L14.396 13.0846L14.2911 13.2285L14.2767 13.2279L14.2825 13.2402L14.2911 13.2285L14.4708 13.235L14.5116 13.4106L14.5022 13.4221L14.5149 13.4251L14.5116 13.4106L14.6282 13.2673L14.7861 13.3423L14.789 13.3572L14.7991 13.3485L14.7861 13.3423L14.7504 13.1581L14.9054 13.0757L14.9181 13.0827L14.918 13.069L14.9054 13.0757L14.7455 12.9885L14.7821 12.8117ZM14.7821 12.8117L14.7955 12.8051L14.7852 12.7965L14.7821 12.8117Z" fill="black"/>
<path fill-rule="evenodd" clip-rule="evenodd" d="M14.0586 8.85382C14.4441 8.73636 14.7686 8.40281 14.8431 8.04351L14.8527 8.03792C15.2986 8.20191 15.6967 8.41926 16.0638 8.68003C16.2161 8.7882 16.307 8.83163 16.5741 8.93988C16.7014 8.99145 16.7764 9.0258 16.8526 9.07142C16.7127 8.67582 16.8042 8.07398 17.0682 7.54811C17.3806 6.9261 17.4438 6.45743 17.4045 5.7804C17.3826 5.40402 17.5701 5.31051 17.9647 5.38464C18.2221 5.43305 18.4058 5.4091 18.7528 5.31285L18.7797 5.30538C19.1733 5.19601 19.3681 5.17167 19.6635 5.23508C19.9353 5.29336 19.9987 5.56199 19.845 5.68786C19.7867 5.7356 19.7117 5.77284 19.5958 5.81506C19.5593 5.82835 19.4467 5.8661 19.3653 5.8934L19.3653 5.89341C19.3254 5.90678 19.293 5.91763 19.2808 5.92188L19.2686 5.92627C19.2806 5.9186 19.2908 5.90962 19.2994 5.89949L19.3611 5.87875L19.3612 5.87874C19.4425 5.85146 19.5547 5.81383 19.591 5.80061C19.7055 5.7589 19.7793 5.72229 19.836 5.6758C19.9799 5.55803 19.9204 5.30576 19.6606 5.25006C19.368 5.18725 19.175 5.21135 18.7835 5.32016L18.7565 5.32764C18.4076 5.42441 18.2221 5.44859 17.9621 5.39969C17.5754 5.32705 17.3978 5.41563 17.419 5.77947C17.4585 6.45905 17.3949 6.93035 17.0811 7.55524C16.8143 8.0866 16.725 8.69576 16.8736 9.08609L16.8631 9.09551C16.7812 9.04478 16.7054 9.00946 16.5689 8.95414C16.3007 8.84549 16.2091 8.80172 16.0556 8.69269C15.6917 8.43414 15.2972 8.21839 14.8556 8.0552L14.8574 8.04676L14.8478 8.05235L14.8556 8.0552C14.7765 8.41701 14.4501 8.75043 14.0674 8.86373C13.969 9.15266 14.1254 9.63043 14.3881 9.91232C14.53 9.98099 14.6775 10.038 14.831 10.0846C15.3041 10.228 15.6916 10.2593 16.4614 10.2612C16.8566 10.2621 17.0108 10.2677 17.1757 10.2953C17.4374 10.3391 17.7956 10.1269 17.8413 9.80048C17.8489 9.74628 17.8597 9.69661 17.8754 9.63975C17.8852 9.60459 17.928 9.4645 17.9239 9.47827C17.9457 9.40563 17.9627 9.34209 17.9793 9.26875C18.0334 9.03013 18.073 8.72199 18.0987 8.27941C18.1086 8.1088 18.1113 8.04122 18.1242 7.67698C18.1404 7.22079 18.1554 7.03545 18.1972 6.9052C18.3063 6.56534 18.3935 6.41275 18.5774 6.33505C18.6511 6.30391 18.7194 6.26651 18.7943 6.2175L18.7968 6.22458L18.8061 6.2278C18.7289 6.27857 18.6588 6.31716 18.5829 6.34923C18.4043 6.42466 18.3187 6.57434 18.211 6.91008C18.1698 7.03828 18.1549 7.22332 18.1388 7.67755C18.1259 8.04193 18.1232 8.10956 18.1132 8.28034C18.0874 8.72374 18.0478 9.03274 17.9935 9.27229C17.9768 9.34602 17.9596 9.40989 17.9378 9.48286C17.9418 9.4693 17.8991 9.6091 17.8894 9.64403C17.8738 9.70025 17.8632 9.74925 17.8557 9.8027C17.8087 10.1384 17.4425 10.3554 17.1734 10.3104C17.0096 10.283 16.8557 10.2774 16.4614 10.2765C15.6902 10.2746 15.3018 10.2432 14.827 10.0993C14.6727 10.0525 14.5246 9.99521 14.3798 9.92462C14.1115 9.63733 13.9532 9.15378 14.0586 8.85382ZM18.8211 6.21789L18.8061 6.2278L18.8077 6.22834C18.8124 6.22501 18.8168 6.22152 18.8211 6.21789ZM18.8563 6.17548C18.8473 6.19121 18.8356 6.20539 18.8211 6.21789C18.8453 6.20167 18.8703 6.18425 18.8964 6.16545C18.9111 6.15489 18.9434 6.13111 18.9737 6.10881L18.9766 6.11006C18.9876 6.10173 18.9978 6.09318 19.007 6.08436L19.0374 6.06198C19.0902 6.02371 19.1309 5.99642 19.1703 5.97365C19.1934 5.96026 19.2157 5.94877 19.2374 5.93907L19.2402 5.94061C19.2505 5.93654 19.26 5.93174 19.2686 5.92627C19.2583 5.93012 19.2479 5.93438 19.2374 5.93907L19.2286 5.93406L19.228 5.92665C19.2334 5.92422 19.2387 5.92189 19.244 5.91966L19.2442 5.92183C19.2407 5.92351 19.2371 5.92508 19.2334 5.92654L19.245 5.93309L19.2442 5.92183C19.2492 5.9194 19.2539 5.91674 19.2584 5.91387C19.2644 5.91156 19.2703 5.90939 19.2762 5.90735L19.2994 5.89949C19.3643 5.82245 19.3304 5.67921 19.2168 5.54719L19.2019 5.55241L19.228 5.92665C19.207 5.93621 19.1855 5.94738 19.1633 5.96025C19.1274 5.98102 19.0905 6.00542 19.0447 6.0382C19.1061 5.93741 19.0662 5.79713 18.903 5.55001L18.8898 5.55546L18.964 6.09726C18.9342 6.11927 18.9026 6.14247 18.8882 6.15284L18.8563 6.17548ZM18.8123 6.20561C18.8267 6.19601 18.8413 6.18597 18.8563 6.17548C18.923 6.05843 18.8362 5.85598 18.6088 5.62835L18.5969 5.63645L18.7943 6.2175L18.807 6.20917L18.8072 6.20988L18.7995 6.21569L18.8105 6.21945L18.8072 6.20988L18.8123 6.20561ZM18.6212 5.6622C18.8551 5.90464 18.9214 6.11052 18.8123 6.20561L18.807 6.20917L18.6212 5.6622ZM18.6212 5.6622L18.5988 5.63941L18.6107 5.63131L18.6212 5.6622ZM18.9774 6.08742L18.964 6.09726L18.9651 6.10494L18.9737 6.10881L18.99 6.09683L18.99 6.09681L19.007 6.08436C19.0221 6.06982 19.0347 6.05453 19.0447 6.0382L19.0292 6.04939L18.9976 6.07255C19.0959 5.97751 19.0779 5.8483 18.9087 5.58576L18.9043 5.55328L18.8911 5.55873L18.9087 5.58576L18.9774 6.08742ZM18.9778 6.09007C18.9849 6.08435 18.9915 6.07851 18.9976 6.07255L18.9816 6.08437L18.9774 6.08742L18.9778 6.09007ZM18.9778 6.09007L18.9681 6.09764L18.9795 6.10276L18.9778 6.09007ZM19.2201 5.57678L19.244 5.91966C19.2488 5.91765 19.2536 5.91571 19.2584 5.91387C19.3475 5.85666 19.329 5.71425 19.2201 5.57678ZM19.2201 5.57678L19.2183 5.55144L19.2034 5.55666C19.2092 5.56335 19.2147 5.57006 19.2201 5.57678Z" fill="black"/>
<path fill-rule="evenodd" clip-rule="evenodd" d="M14.6097 8.66317C14.5751 8.64786 14.5387 8.63298 14.5004 8.61844L14.4981 8.60543C14.5075 8.59704 14.5193 8.58587 14.5315 8.57435C14.5482 8.55854 14.5657 8.5421 14.5783 8.53133C14.5973 8.53907 14.6159 8.54691 14.634 8.55487C14.7749 8.61685 14.8366 8.65418 15.0231 8.7798C15.2468 8.93043 15.4014 9.00098 15.7205 9.07055C16.1 9.15336 16.5814 9.33233 16.8068 9.47263L16.7746 9.57032C16.5536 9.43913 16.0738 9.26068 15.6959 9.17837C15.3749 9.10838 15.2186 9.03708 14.9935 8.88545C14.8087 8.76102 14.7482 8.72431 14.6097 8.66317ZM14.5076 8.61706L14.5053 8.60406C14.5092 8.60553 14.5131 8.60701 14.5169 8.6085C14.5136 8.61156 14.5105 8.61444 14.5076 8.61706ZM14.5811 8.54349C14.5687 8.55848 14.5393 8.58775 14.5169 8.6085C14.5513 8.62171 14.584 8.63522 14.6154 8.64907C14.7548 8.71065 14.8159 8.74769 15.0014 8.87258C15.2251 9.02326 15.3797 9.09381 15.6988 9.16339C16.0781 9.24602 16.5594 9.42498 16.7711 9.56185L16.7961 9.47747C16.5756 9.34647 16.0957 9.16802 15.7176 9.08552C15.3966 9.01555 15.2403 8.94425 15.0152 8.79267C14.8294 8.66751 14.7683 8.63051 14.6283 8.56897C14.6273 8.56854 14.6264 8.56811 14.6254 8.56768C14.6084 8.56021 14.5913 8.55274 14.5811 8.54349Z" fill="black"/>
<path fill-rule="evenodd" clip-rule="evenodd" d="M17.4917 7.14572C17.5105 7.08943 17.5266 7.03628 17.5405 6.98495L17.5243 6.98106L17.5243 6.98128L17.5243 6.98128C17.5243 6.98132 17.5242 6.98136 17.5242 6.98139L17.4758 7.14109C17.4758 7.14114 17.4757 7.14119 17.4757 7.14124L17.4757 7.14124L17.4757 7.14143L17.4917 7.14572ZM17.4757 7.14124L17.4917 7.14553L17.5404 6.98516L17.5243 6.98128L17.5242 6.98139C17.5105 7.03236 17.4945 7.08515 17.4758 7.14109L17.4757 7.14124ZM15.0002 8.2797C14.9412 8.25673 14.8745 8.22239 14.8097 8.18236L14.8065 8.17337L14.8146 8.14748L14.8146 8.14748C14.826 8.11062 14.839 8.0684 14.8527 8.03792C15.2986 8.20191 15.6967 8.41926 16.0638 8.68002C16.2161 8.78819 16.307 8.83163 16.5742 8.93988C16.7114 8.99547 16.7878 9.03107 16.8731 9.09281L16.7817 9.24023C16.6677 9.17012 16.3861 9.04388 16.1772 8.96385C16.1764 8.98547 16.1669 9.01026 16.1493 9.04253C16.1453 9.04988 16.141 9.0573 16.1352 9.06738C16.1077 9.11438 16.1023 9.12444 16.0976 9.14085C16.0918 9.16042 16.0959 9.17061 16.1134 9.17603L16.1094 9.19073L16.1092 9.19069L16.1132 9.17599L16.0823 9.16688C16.0797 9.15838 16.0802 9.14812 16.0836 9.13636C16.089 9.11811 16.0944 9.10801 16.1227 9.0594C16.1286 9.04943 16.1327 9.04212 16.1366 9.03494C16.1561 8.99925 16.1647 8.97389 16.1623 8.95373L16.172 8.94559C16.3826 9.02567 16.6722 9.15519 16.7791 9.22974L16.8631 9.09551C16.7812 9.04478 16.7055 9.00946 16.5689 8.95414C16.3007 8.84549 16.2091 8.80171 16.0556 8.69269C15.6895 8.43263 15.2926 8.21588 14.8573 8.04694C14.85 8.07843 14.835 8.1313 14.8222 8.1723L14.8171 8.16919L14.8203 8.17818L14.8222 8.1723C14.8846 8.21057 14.9488 8.24358 15.0097 8.2747C15.0075 8.2825 15.0048 8.29041 15.0016 8.29844C14.9832 8.34451 14.9515 8.39021 14.8988 8.45255L14.8734 8.4822L14.8431 8.51769C14.8236 8.54096 14.8103 8.55824 14.8008 8.57335C14.7792 8.60762 14.7791 8.6266 14.8018 8.63818C14.8244 8.65007 14.8845 8.68814 14.9497 8.73083C14.9499 8.74274 14.9548 8.75218 14.9651 8.759L14.9728 8.74606L14.9729 8.74607L14.9651 8.75901C14.892 8.71077 14.8199 8.66481 14.7953 8.65189C14.7627 8.63524 14.7629 8.60582 14.7886 8.56492C14.7986 8.54908 14.8122 8.53133 14.8322 8.50757L14.8627 8.47183L14.8879 8.44241C14.9396 8.38125 14.9706 8.33662 14.9882 8.29253L14.9887 8.29136C14.9915 8.28426 14.9941 8.27772 15.0002 8.2797ZM14.9728 8.74606L14.9497 8.73083C14.9494 8.71516 14.9575 8.69521 14.9724 8.67136C14.9915 8.64068 15.0182 8.60773 15.0691 8.5496L15.0756 8.54214C15.1696 8.43483 15.1982 8.39698 15.1975 8.37135L15.2071 8.36387C15.3246 8.40469 15.4344 8.46369 15.5769 8.55593L15.582 8.5593L15.582 8.5593L15.582 8.5593L15.582 8.55931L15.582 8.55931L15.5821 8.55933C15.6108 8.5783 15.7508 8.6707 15.7907 8.69521C15.8658 8.74133 15.9242 8.77024 15.9825 8.79484C15.9761 8.82034 15.9642 8.84821 15.9466 8.88071C15.9376 8.89724 15.9277 8.91414 15.9142 8.93617L15.9135 8.93732C15.8695 9.0091 15.8608 9.02338 15.8544 9.03864C15.8528 9.04243 15.8513 9.04628 15.8495 9.05109L15.8493 9.05172C15.8374 9.08323 15.8418 9.09896 15.8661 9.10531C15.8929 9.11144 15.9372 9.12397 16.0114 9.14589L16.0171 9.14757L16.0676 9.16254L16.0823 9.16688C16.0857 9.17801 16.0946 9.18614 16.1092 9.19069L16.0636 9.17725L16.0131 9.16228L16.0075 9.16061C15.9336 9.13878 15.8894 9.12628 15.8628 9.1202C15.8283 9.11117 15.821 9.08522 15.8357 9.0461L15.8361 9.0451L15.8361 9.04509L15.8361 9.04507L15.8361 9.04507C15.8381 9.03994 15.8396 9.03586 15.8413 9.03184C15.8479 9.01616 15.8569 9.00148 15.9009 8.92961L15.902 8.9279C15.9153 8.90608 15.9251 8.88939 15.9339 8.87315C15.94 8.8619 15.9454 8.85125 15.9503 8.84153L15.9503 8.84152C15.9591 8.8241 15.9664 8.8097 15.9735 8.80027C15.9189 8.78456 15.8594 8.75514 15.7834 8.70841C15.743 8.68364 15.6016 8.59029 15.574 8.57204L15.5739 8.57202L15.5739 8.572L15.5693 8.56894C15.4312 8.4796 15.3243 8.42175 15.2113 8.38149C15.2063 8.41161 15.1753 8.45086 15.0863 8.55249L15.0798 8.55994C15.0295 8.61744 15.0031 8.65001 14.9845 8.67975C14.9623 8.7153 14.9588 8.73674 14.9728 8.74606ZM18.0857 8.69864C18.0962 8.60609 17.9885 8.54157 17.7882 8.50012C17.628 8.46698 17.4132 8.45005 17.1854 8.44813L17.1835 8.46318L18.0767 8.70513L18.0857 8.69864ZM18.0718 8.68803L18.0803 8.69033L18.0713 8.69683C18.0716 8.69387 18.0718 8.69094 18.0718 8.68803ZM17.246 8.4643C17.4502 8.46848 17.6405 8.48515 17.7854 8.51513C17.9713 8.5536 18.0728 8.61171 18.0718 8.68803L17.246 8.4643ZM17.246 8.4643C17.2259 8.46388 17.2056 8.46359 17.1853 8.46342L17.1872 8.44837L17.246 8.4643ZM17.103 8.40196C17.1126 8.3239 17.1259 8.2479 17.143 8.17419L17.1266 8.17138L17.0865 8.39988L17.103 8.40196ZM17.1029 8.40231L17.0864 8.40023C17.0961 8.3217 17.1095 8.24521 17.1267 8.171L17.1431 8.17381L17.1029 8.40231Z" fill="black"/>
<path fill-rule="evenodd" clip-rule="evenodd" d="M17.3998 7.63336C17.1691 8.16945 17.1125 8.79876 17.2817 9.17459L17.2725 9.18503L17.1647 9.14088C17.081 8.94577 17.0554 8.68731 17.0922 8.40859L17.0554 8.40066C17.0251 8.3943 17.0013 8.39015 16.9782 8.38764C16.8768 8.37662 16.8188 8.40193 16.8107 8.48178C16.8126 8.46059 16.8149 8.43904 16.8176 8.41711C16.8465 8.37637 16.9023 8.36402 16.9797 8.37243C17.0034 8.375 17.0276 8.37922 17.0582 8.38567C17.0666 8.38743 17.0929 8.39314 17.1009 8.40196C17.0702 8.68651 17.0955 8.94228 17.1739 9.13056L17.2611 9.16432C17.2635 9.16997 17.266 9.17558 17.2685 9.18112L17.2776 9.17068L17.2611 9.16432C17.0989 8.78216 17.1576 8.159 17.3866 7.62706C17.6078 7.11282 17.6761 6.65738 17.6559 6.16251C17.6896 6.16312 17.7155 6.15414 17.7684 6.12806L17.7709 6.12682C17.7854 6.11966 17.7922 6.1164 17.8005 6.11262C18.0306 6.00774 18.2396 6.02258 18.3835 6.12614C18.4836 6.1981 18.5305 6.30251 18.5029 6.37356C18.4905 6.38161 18.4794 6.39041 18.4641 6.40333L18.4733 6.41522C18.487 6.40345 18.4968 6.38933 18.5029 6.37356C18.5227 6.36078 18.5461 6.34984 18.5959 6.32715L18.6056 6.32265C18.686 6.28584 18.5745 6.04423 18.3719 5.94317C18.3719 5.94317 18.3719 5.94317 18.3719 5.94317C18.2802 5.8974 18.0959 5.88972 17.9645 5.91807L17.9575 5.90563C18.0544 5.78593 18.1226 5.74274 18.2621 5.72658C18.2639 5.77941 18.2512 5.84048 18.2299 5.89115L18.22 5.88991L18.2203 5.89035L18.2257 5.90079C18.2271 5.89769 18.2285 5.89455 18.2298 5.89136C18.2298 5.89129 18.2299 5.89122 18.2299 5.89115L18.2351 5.89181C18.2766 5.8968 18.3039 5.90127 18.3272 5.90998C18.3418 5.91541 18.3548 5.9225 18.3687 5.93239C18.3698 5.93042 18.3709 5.92843 18.372 5.92641C18.4066 5.8613 18.4248 5.77367 18.424 5.68057C18.4625 5.66967 18.5002 5.65828 18.554 5.64146C18.7253 5.58795 18.7547 5.57921 18.8276 5.56235C18.9316 5.53832 19.0229 5.52828 19.1133 5.5334C19.29 5.54342 19.4193 5.61025 19.4563 5.70068C19.481 5.76093 19.4604 5.82015 19.4012 5.86532C19.3874 5.86996 19.3739 5.87447 19.3612 5.87873C19.3474 5.88336 19.3345 5.88768 19.323 5.89154C19.429 5.84886 19.4721 5.778 19.4429 5.70671C19.4086 5.62263 19.2843 5.55841 19.1125 5.54867C19.0236 5.54363 18.9335 5.55353 18.8308 5.57728C18.7583 5.59403 18.7291 5.60274 18.5582 5.65612C18.5042 5.67297 18.4664 5.6844 18.4332 5.68739C18.4391 5.77312 18.4218 5.86076 18.38 5.93032C18.5904 6.03646 18.7082 6.29235 18.6115 6.33662L18.6017 6.34118C18.5217 6.37758 18.5114 6.38302 18.4732 6.41525L18.4641 6.40337C18.5301 6.34674 18.4907 6.22176 18.3753 6.13875C18.2356 6.03827 18.032 6.0238 17.8063 6.12665C17.7981 6.13035 17.7915 6.13357 17.7771 6.14066L17.7746 6.1419C17.7197 6.16894 17.6923 6.17846 17.6631 6.1697C17.6908 6.65883 17.6221 7.11672 17.3998 7.63336ZM19.3271 5.90622C19.3561 5.89458 19.3809 5.88077 19.4012 5.86532C19.4757 5.84029 19.5604 5.81176 19.591 5.80061C19.7055 5.7589 19.7793 5.72229 19.836 5.6758C19.9799 5.55803 19.9204 5.30576 19.6606 5.25006C19.368 5.18725 19.175 5.21135 18.7835 5.32016L18.7565 5.32764C18.4076 5.42441 18.2221 5.44859 17.9621 5.39969C17.7832 5.36608 17.6535 5.36705 17.562 5.41224C17.4531 5.46602 17.403 5.58309 17.419 5.77929C17.4196 5.78738 17.4201 5.79258 17.4205 5.79778C17.4212 5.80717 17.4219 5.81657 17.4238 5.84299L17.4241 5.84616C17.4254 5.86454 17.4266 5.87878 17.4283 5.89896C17.4283 6.0412 17.2587 6.11243 17.0969 6.02122C17.0885 6.01073 17.0799 5.99948 17.0712 5.98742L17.0612 5.99834C17.073 6.00687 17.0849 6.01449 17.0969 6.02122C17.1446 6.08088 17.1874 6.11568 17.232 6.13376C17.2738 6.15073 17.3057 6.15323 17.394 6.15149C17.4082 6.15121 17.4146 6.1511 17.4159 6.15839C17.4166 6.1366 17.4307 6.12709 17.4536 6.12823C17.4694 6.12901 17.4869 6.13366 17.5195 6.14446L17.5238 6.14589C17.5724 6.16205 17.5907 6.1662 17.6003 6.16121L17.6108 6.16782C17.6195 6.44531 17.5974 6.70779 17.5223 6.99011C17.4027 6.9345 17.3279 6.93174 17.3022 7.00376C17.2916 7.03885 17.2808 7.07304 17.2694 7.10698C17.2558 7.11707 17.2454 7.13206 17.2382 7.15231L17.2518 7.15766C17.2518 7.15766 17.2518 7.15766 17.2518 7.15766C17.2578 7.14077 17.2637 7.12391 17.2694 7.10698C17.3121 7.07525 17.386 7.09188 17.4896 7.14572C17.4466 7.29302 17.3911 7.44296 17.3223 7.59581C17.24 7.77824 17.1758 7.97693 17.127 8.18001C16.9699 8.13889 16.866 8.14152 16.851 8.21874C16.8366 8.28856 16.8254 8.35441 16.8176 8.41711C16.8061 8.43339 16.7988 8.45421 16.7962 8.48004C16.796 8.48179 16.7959 8.48355 16.7957 8.48529L16.8102 8.4866C16.8104 8.48497 16.8105 8.48336 16.8107 8.48178C16.8105 8.48342 16.8104 8.48505 16.8102 8.48669L16.7957 8.48539M17.5965 6.17825C17.5826 6.18034 17.5626 6.17481 17.5194 6.16047L17.5151 6.15905C17.4838 6.14866 17.467 6.1442 17.4529 6.1435C17.4372 6.14272 17.4308 6.14704 17.4232 6.1663L17.3943 6.16678C17.3041 6.16856 17.271 6.16595 17.2267 6.14803C17.1714 6.12561 17.1196 6.07946 17.0596 5.99668L17.0695 5.98575C17.2323 6.10363 17.4138 6.03789 17.4138 5.89966C17.4121 5.88011 17.4109 5.8658 17.4096 5.84735L17.4093 5.84416C17.4074 5.81777 17.4067 5.80839 17.406 5.79902C17.4055 5.79384 17.4051 5.78865 17.4045 5.78059C17.388 5.57852 17.4408 5.4552 17.5558 5.3984C17.6507 5.3515 17.783 5.35052 17.9647 5.38464C18.2221 5.43305 18.4058 5.4091 18.7528 5.31285L18.7797 5.30538C19.1733 5.19601 19.3681 5.17167 19.6635 5.23508C19.9353 5.29336 19.9987 5.56199 19.845 5.68786C19.7867 5.7356 19.7117 5.77284 19.5958 5.81506C19.5593 5.82835 19.4467 5.8661 19.3653 5.8934C19.3515 5.89803 19.3386 5.90236 19.3271 5.90622C19.3126 5.91204 19.297 5.91732 19.2804 5.922L19.2762 5.90735C19.2843 5.90455 19.3011 5.89889 19.323 5.89154C19.3087 5.89731 19.2932 5.90256 19.2766 5.90723L19.2808 5.92188C19.2888 5.9191 19.3054 5.9135 19.3271 5.90622M17.9822 5.899C18.0541 5.88596 18.1382 5.88276 18.2145 5.8898C18.2362 5.84027 18.2496 5.77941 18.2561 5.73438C18.1347 5.75608 18.0699 5.7945 17.9822 5.899Z" fill="black"/>
</g>
</g>
<defs>
<clipPath id="clip0">
<rect x="8" y="2.66666" width="12" height="14.6667" fill="white"/>
</clipPath>
<clipPath id="clip1">
<rect x="8" y="2.66666" width="12" height="13.3333" fill="white"/>
</clipPath>
<clipPath id="clip2">
<rect x="8" y="4.62385" width="12" height="12" fill="white"/>
</clipPath>
</defs>
</svg>
