<svg width="28" height="20" viewBox="0 0 28 20" fill="none" xmlns="http://www.w3.org/2000/svg">
<rect width="28" height="20" rx="2" fill="white"/>
<mask id="mask0" mask-type="alpha" maskUnits="userSpaceOnUse" x="0" y="0" width="28" height="20">
<rect width="28" height="20" rx="2" fill="white"/>
</mask>
<g mask="url(#mask0)">
<path fill-rule="evenodd" clip-rule="evenodd" d="M0 5.33333H28V0H0V5.33333Z" fill="#262626"/>
<path fill-rule="evenodd" clip-rule="evenodd" d="M0 20H28V14.6667H0V20Z" fill="#018301"/>
<path fill-rule="evenodd" clip-rule="evenodd" d="M0 14.6667H28V5.33333H0V14.6667Z" fill="white"/>
<path fill-rule="evenodd" clip-rule="evenodd" d="M0 13.3333H28V6.66667H0V13.3333Z" fill="#DC0808"/>
</g>
<g clip-path="url(#clip0)">
<path fill-rule="evenodd" clip-rule="evenodd" d="M14 16.6667C15.3333 16.6667 17.3333 14.0501 17.3333 10C17.3333 5.94992 15.3333 3.33334 14 3.33334C12.6667 3.33334 10.6667 5.94992 10.6667 10C10.6667 14.0501 12.6667 16.6667 14 16.6667Z" fill="#BC0000"/>
<mask id="mask1" mask-type="alpha" maskUnits="userSpaceOnUse" x="10" y="3" width="8" height="14">
<path fill-rule="evenodd" clip-rule="evenodd" d="M14 16.6667C15.3333 16.6667 17.3333 14.0501 17.3333 10C17.3333 5.94992 15.3333 3.33334 14 3.33334C12.6667 3.33334 10.6667 5.94992 10.6667 10C10.6667 14.0501 12.6667 16.6667 14 16.6667Z" fill="white"/>
</mask>
<g mask="url(#mask1)">
<path fill-rule="evenodd" clip-rule="evenodd" d="M8.66668 17.3333C10.5076 17.3333 12 14.0501 12 10C12 5.94992 10.5076 2.66667 8.66668 2.66667C6.82573 2.66667 5.33334 5.94992 5.33334 10C5.33334 14.0501 6.82573 17.3333 8.66668 17.3333Z" fill="#262626"/>
<path fill-rule="evenodd" clip-rule="evenodd" d="M19.3333 17.3333C21.1743 17.3333 22.6667 14.0501 22.6667 10C22.6667 5.94992 21.1743 2.66667 19.3333 2.66667C17.4924 2.66667 16 5.94992 16 10C16 14.0501 17.4924 17.3333 19.3333 17.3333Z" fill="#262626"/>
<g filter="url(#filter0_d)">
<path fill-rule="evenodd" clip-rule="evenodd" d="M14 8.00001C14.3682 8.00001 14.6667 6.8061 14.6667 5.33334C14.6667 3.86058 14.3682 2.66667 14 2.66667C13.6318 2.66667 13.3333 3.86058 13.3333 5.33334C13.3333 6.8061 13.6318 8.00001 14 8.00001ZM14 12C14.3682 12 14.6667 11.1046 14.6667 10C14.6667 8.89544 14.3682 8.00001 14 8.00001C13.6318 8.00001 13.3333 8.89544 13.3333 10C13.3333 11.1046 13.6318 12 14 12ZM14 12C13.6318 12 13.3333 13.1939 13.3333 14.6667C13.3333 16.1394 13.6318 17.3333 14 17.3333C14.3682 17.3333 14.6667 16.1394 14.6667 14.6667C14.6667 13.1939 14.3682 12 14 12Z" fill="url(#paint0_linear)"/>
</g>
</g>
</g>
<defs>
<filter id="filter0_d" x="13.3333" y="2.66667" width="1.33333" height="15.6667" filterUnits="userSpaceOnUse" color-interpolation-filters="sRGB">
<feFlood flood-opacity="0" result="BackgroundImageFix"/>
<feColorMatrix in="SourceAlpha" type="matrix" values="0 0 0 0 0 0 0 0 0 0 0 0 0 0 0 0 0 0 127 0"/>
<feOffset dy="1"/>
<feColorMatrix type="matrix" values="0 0 0 0 0 0 0 0 0 0 0 0 0 0 0 0 0 0 0.06 0"/>
<feBlend mode="normal" in2="BackgroundImageFix" result="effect1_dropShadow"/>
<feBlend mode="normal" in="SourceGraphic" in2="effect1_dropShadow" result="shape"/>
</filter>
<linearGradient id="paint0_linear" x1="13.3333" y1="2.66667" x2="13.3333" y2="17.3333" gradientUnits="userSpaceOnUse">
<stop stop-color="white"/>
<stop offset="1" stop-color="#F0F0F0"/>
</linearGradient>
<clipPath id="clip0">
<rect x="10.6667" y="2.66667" width="7" height="14" fill="white"/>
</clipPath>
</defs>
</svg>
