<svg width="28" height="20" viewBox="0 0 28 20" fill="none" xmlns="http://www.w3.org/2000/svg">
<rect width="28" height="20" rx="2" fill="white"/>
<mask id="mask0" mask-type="alpha" maskUnits="userSpaceOnUse" x="0" y="0" width="28" height="20">
<rect width="28" height="20" rx="2" fill="white"/>
</mask>
<g mask="url(#mask0)">
<rect width="28" height="20" fill="#E6BE53"/>
<path fill-rule="evenodd" clip-rule="evenodd" d="M1.33333 17.6667C1.33333 18.2189 1.78104 18.6667 2.33333 18.6667H25.6667C26.2189 18.6667 26.6667 18.2189 26.6667 17.6667V2.33333C26.6667 1.78104 26.2189 1.33333 25.6667 1.33333H2.33333C1.78104 1.33333 1.33333 1.78104 1.33333 2.33333V17.6667Z" fill="#E01826"/>
<path fill-rule="evenodd" clip-rule="evenodd" d="M13.0233 3.65888C12.5532 3.8156 12.4123 4.41231 12.7628 4.76274L13.1381 5.13806C13.2631 5.26309 13.4327 5.33332 13.6095 5.33332H14.3905C14.5673 5.33332 14.7369 5.26309 14.8619 5.13806L15.2373 4.76274C15.5877 4.4123 15.4468 3.8156 14.9767 3.65888L14.2108 3.4036C14.074 3.35798 13.926 3.35798 13.7892 3.4036L13.0233 3.65888ZM14.4714 6.86192C14.2111 7.12227 13.789 7.12227 13.5286 6.86192L13.3333 6.66666L12.3398 5.67309C12.1369 5.47019 11.8269 5.41988 11.5702 5.54821L11.494 5.58634C11.087 5.78984 10.999 6.33227 11.3207 6.65403L11.3333 6.66666L12.3269 7.66022C12.5298 7.86313 12.5801 8.17311 12.4518 8.42977L12.038 9.2574C12.013 9.30733 12 9.36238 12 9.4182C12 9.6855 11.7187 9.85934 11.4796 9.73981L11.1567 9.57835C10.9156 9.45781 10.8635 9.1365 11.0541 8.9459C11.2083 8.79168 11.2083 8.54164 11.0541 8.38741L10.7432 8.07649C10.6925 8.02582 10.6503 7.96732 10.6183 7.90323L10.0327 6.73211C10.011 6.68861 9.99406 6.64285 9.98226 6.59566L9.67305 5.35882C9.5369 4.81422 8.82977 4.67142 8.49296 5.12051L7.46668 6.48888C7.38013 6.60428 7.33334 6.74463 7.33334 6.88888V9.17594C7.33334 9.27944 7.35744 9.38152 7.40373 9.47409L7.95163 10.5699C7.98367 10.634 8.02584 10.6925 8.07651 10.7432L9.25685 11.9235C9.30751 11.9742 9.36602 12.0163 9.43011 12.0484L10.6037 12.6352C10.6451 12.6559 10.6908 12.6667 10.7371 12.6667C11.0517 12.6667 11.1518 13.0908 10.8704 13.2315L10.7159 13.3087C10.6833 13.325 10.6535 13.3465 10.6278 13.3722L10.3333 13.6667C10.1492 13.8508 9.85077 13.8508 9.66668 13.6667C9.48258 13.4826 9.18411 13.4826 9.00001 13.6667L8.94592 13.7207C8.77916 13.8875 8.73782 14.1423 8.84328 14.3532L9.14908 14.9648C9.26201 15.1907 9.49285 15.3333 9.74537 15.3333H10.5093C10.6128 15.3333 10.7149 15.3092 10.8074 15.2629L11.8012 14.766C11.9303 14.7015 12.0349 14.5969 12.0994 14.4679L12.4016 13.8634C12.532 13.6026 12.8796 13.5462 13.0857 13.7524C13.2297 13.8964 13.252 14.1219 13.1391 14.2914L12.3698 15.4453C12.1656 15.7516 12.2484 16.1656 12.5547 16.3698L13.6302 17.0868C13.8541 17.2361 14.1459 17.2361 14.3698 17.0868L15.4453 16.3698C15.7517 16.1656 15.8344 15.7516 15.6302 15.4453L14.8609 14.2914C14.748 14.1219 14.7703 13.8964 14.9143 13.7524C15.1204 13.5462 15.468 13.6026 15.5984 13.8634L15.9006 14.4679C15.9651 14.5969 16.0698 14.7015 16.1988 14.766L17.1926 15.2629C17.2852 15.3092 17.3872 15.3333 17.4907 15.3333H18.2547C18.5072 15.3333 18.738 15.1907 18.8509 14.9648L19.1567 14.3532C19.2622 14.1423 19.2209 13.8875 19.0541 13.7207L19 13.6667C18.8159 13.4826 18.5174 13.4826 18.3333 13.6667C18.1492 13.8508 17.8508 13.8508 17.6667 13.6667L17.3722 13.3722C17.3465 13.3465 17.3167 13.325 17.2842 13.3087L17.1296 13.2315C16.8482 13.0908 16.9484 12.6667 17.263 12.6667C17.3092 12.6667 17.3549 12.6559 17.3963 12.6352L18.5699 12.0484C18.634 12.0163 18.6925 11.9742 18.7432 11.9235L19.9235 10.7432C19.9742 10.6925 20.0163 10.634 20.0484 10.5699L20.5963 9.47409C20.6426 9.38152 20.6667 9.27944 20.6667 9.17594V6.88888C20.6667 6.74463 20.6199 6.60428 20.5333 6.48888L19.5071 5.12051C19.1703 4.67142 18.4631 4.81422 18.327 5.35882L18.0178 6.59566C18.006 6.64285 17.989 6.68861 17.9673 6.73211L17.3817 7.90323C17.3497 7.96732 17.3075 8.02582 17.2568 8.07649L16.9459 8.38742C16.7917 8.54164 16.7917 8.79168 16.9459 8.9459C17.1365 9.1365 17.0844 9.45781 16.8433 9.57835L16.5204 9.73981C16.2813 9.85934 16 9.6855 16 9.4182C16 9.36238 15.987 9.30733 15.9621 9.2574L15.5482 8.42977C15.4199 8.17311 15.4702 7.86313 15.6731 7.66022L16.6667 6.66666L16.6793 6.65403C17.0011 6.33227 16.913 5.78984 16.506 5.58634L16.4298 5.54821C16.1731 5.41988 15.8631 5.47019 15.6602 5.67309L14.6667 6.66666L14.4714 6.86192Z" fill="#E6BE53"/>
<path fill-rule="evenodd" clip-rule="evenodd" d="M12.6667 11.3333C12.6667 11.5788 13.08 11.6605 13.1996 11.4461C13.4321 11.0295 13.716 10.6667 14 10.6667C14.284 10.6667 14.5679 11.0295 14.8004 11.4461C14.9199 11.6605 15.3333 11.5788 15.3333 11.3333C15.3333 10.2288 14.7364 9.33334 14 9.33334C13.2636 9.33334 12.6667 10.2288 12.6667 11.3333Z" fill="#215F90"/>
</g>
</svg>
