<svg width="28" height="20" viewBox="0 0 28 20" fill="none" xmlns="http://www.w3.org/2000/svg">
<rect x="0.25" y="0.25" width="27.5" height="19.5" rx="1.75" fill="white" stroke="#F5F5F5" stroke-width="0.5"/>
<mask id="mask0" mask-type="alpha" maskUnits="userSpaceOnUse" x="0" y="0" width="28" height="20">
<rect x="0.25" y="0.25" width="27.5" height="19.5" rx="1.75" fill="white" stroke="white" stroke-width="0.5"/>
</mask>
<g mask="url(#mask0)">
<path fill-rule="evenodd" clip-rule="evenodd" d="M0 6.66667H28V0H0V6.66667Z" fill="#38BB56"/>
<path fill-rule="evenodd" clip-rule="evenodd" d="M0 20H28V13.3333H0V20Z" fill="#DE1B27"/>
<path fill-rule="evenodd" clip-rule="evenodd" d="M1.66666 5.33331C1.48257 5.33331 1.33333 5.48255 1.33333 5.66665V6.33331C1.33333 6.51741 1.48257 6.66665 1.66666 6.66665H2.33333C2.51742 6.66665 2.66666 6.51741 2.66666 6.33331V5.66665C2.66666 5.48255 2.51742 5.33331 2.33333 5.33331H1.66666ZM4.33333 5.33331C4.14923 5.33331 3.99999 5.48255 3.99999 5.66665V6.33331C3.99999 6.51741 4.14923 6.66665 4.33333 6.66665H4.99999C5.18409 6.66665 5.33333 6.51741 5.33333 6.33331V5.66665C5.33333 5.48255 5.18409 5.33331 4.99999 5.33331H4.33333ZM6.66666 5.66665C6.66666 5.48255 6.8159 5.33331 7 5.33331H7.66666C7.85076 5.33331 8 5.48255 8 5.66665V6.33331C8 6.51741 7.85076 6.66665 7.66666 6.66665H7C6.8159 6.66665 6.66666 6.51741 6.66666 6.33331V5.66665ZM9.66666 5.33331C9.48257 5.33331 9.33333 5.48255 9.33333 5.66665V6.33331C9.33333 6.51741 9.48257 6.66665 9.66666 6.66665H10.3333C10.5174 6.66665 10.6667 6.51741 10.6667 6.33331V5.66665C10.6667 5.48255 10.5174 5.33331 10.3333 5.33331H9.66666ZM12 5.66665C12 5.48255 12.1492 5.33331 12.3333 5.33331H13C13.1841 5.33331 13.3333 5.48255 13.3333 5.66665V6.33331C13.3333 6.51741 13.1841 6.66665 13 6.66665H12.3333C12.1492 6.66665 12 6.51741 12 6.33331V5.66665ZM15 5.33331C14.8159 5.33331 14.6667 5.48255 14.6667 5.66665V6.33331C14.6667 6.51741 14.8159 6.66665 15 6.66665H15.6667C15.8508 6.66665 16 6.51741 16 6.33331V5.66665C16 5.48255 15.8508 5.33331 15.6667 5.33331H15ZM17.3333 5.66665C17.3333 5.48255 17.4826 5.33331 17.6667 5.33331H18.3333C18.5174 5.33331 18.6667 5.48255 18.6667 5.66665V6.33331C18.6667 6.51741 18.5174 6.66665 18.3333 6.66665H17.6667C17.4826 6.66665 17.3333 6.51741 17.3333 6.33331V5.66665ZM20.3333 5.33331C20.1492 5.33331 20 5.48255 20 5.66665V6.33331C20 6.51741 20.1492 6.66665 20.3333 6.66665H21C21.1841 6.66665 21.3333 6.51741 21.3333 6.33331V5.66665C21.3333 5.48255 21.1841 5.33331 21 5.33331H20.3333ZM22.6667 5.66665C22.6667 5.48255 22.8159 5.33331 23 5.33331H23.6667C23.8508 5.33331 24 5.48255 24 5.66665V6.33331C24 6.51741 23.8508 6.66665 23.6667 6.66665H23C22.8159 6.66665 22.6667 6.51741 22.6667 6.33331V5.66665ZM25.6667 5.33331C25.4826 5.33331 25.3333 5.48255 25.3333 5.66665V6.33331C25.3333 6.51741 25.4826 6.66665 25.6667 6.66665H26.3333C26.5174 6.66665 26.6667 6.51741 26.6667 6.33331V5.66665C26.6667 5.48255 26.5174 5.33331 26.3333 5.33331H25.6667ZM1.33333 13.6666C1.33333 13.4826 1.48257 13.3333 1.66666 13.3333H2.33333C2.51742 13.3333 2.66666 13.4826 2.66666 13.6666V14.3333C2.66666 14.5174 2.51742 14.6666 2.33333 14.6666H1.66666C1.48257 14.6666 1.33333 14.5174 1.33333 14.3333V13.6666ZM4.33333 13.3333C4.14923 13.3333 3.99999 13.4826 3.99999 13.6666V14.3333C3.99999 14.5174 4.14923 14.6666 4.33333 14.6666H4.99999C5.18409 14.6666 5.33333 14.5174 5.33333 14.3333V13.6666C5.33333 13.4826 5.18409 13.3333 4.99999 13.3333H4.33333ZM6.66666 13.6666C6.66666 13.4826 6.8159 13.3333 7 13.3333H7.66666C7.85076 13.3333 8 13.4826 8 13.6666V14.3333C8 14.5174 7.85076 14.6666 7.66666 14.6666H7C6.8159 14.6666 6.66666 14.5174 6.66666 14.3333V13.6666ZM9.66666 13.3333C9.48257 13.3333 9.33333 13.4826 9.33333 13.6666V14.3333C9.33333 14.5174 9.48257 14.6666 9.66666 14.6666H10.3333C10.5174 14.6666 10.6667 14.5174 10.6667 14.3333V13.6666C10.6667 13.4826 10.5174 13.3333 10.3333 13.3333H9.66666ZM12 13.6666C12 13.4826 12.1492 13.3333 12.3333 13.3333H13C13.1841 13.3333 13.3333 13.4826 13.3333 13.6666V14.3333C13.3333 14.5174 13.1841 14.6666 13 14.6666H12.3333C12.1492 14.6666 12 14.5174 12 14.3333V13.6666ZM15 13.3333C14.8159 13.3333 14.6667 13.4826 14.6667 13.6666V14.3333C14.6667 14.5174 14.8159 14.6666 15 14.6666H15.6667C15.8508 14.6666 16 14.5174 16 14.3333V13.6666C16 13.4826 15.8508 13.3333 15.6667 13.3333H15ZM17.3333 13.6666C17.3333 13.4826 17.4826 13.3333 17.6667 13.3333H18.3333C18.5174 13.3333 18.6667 13.4826 18.6667 13.6666V14.3333C18.6667 14.5174 18.5174 14.6666 18.3333 14.6666H17.6667C17.4826 14.6666 17.3333 14.5174 17.3333 14.3333V13.6666ZM20.3333 13.3333C20.1492 13.3333 20 13.4826 20 13.6666V14.3333C20 14.5174 20.1492 14.6666 20.3333 14.6666H21C21.1841 14.6666 21.3333 14.5174 21.3333 14.3333V13.6666C21.3333 13.4826 21.1841 13.3333 21 13.3333H20.3333ZM22.6667 13.6666C22.6667 13.4826 22.8159 13.3333 23 13.3333H23.6667C23.8508 13.3333 24 13.4826 24 13.6666V14.3333C24 14.5174 23.8508 14.6666 23.6667 14.6666H23C22.8159 14.6666 22.6667 14.5174 22.6667 14.3333V13.6666ZM25.6667 13.3333C25.4826 13.3333 25.3333 13.4826 25.3333 13.6666V14.3333C25.3333 14.5174 25.4826 14.6666 25.6667 14.6666H26.3333C26.5174 14.6666 26.6667 14.5174 26.6667 14.3333V13.6666C26.6667 13.4826 26.5174 13.3333 26.3333 13.3333H25.6667Z" fill="white" fill-opacity="0.5"/>
<mask id="path-6-inside-1" fill="white">
<path fill-rule="evenodd" clip-rule="evenodd" d="M12.6535 8.52112C12.252 8.88691 12 9.41402 12 9.99998C12 11.1045 12.8954 12 14 12C15.1046 12 16 11.1045 16 9.99998C16 9.42508 15.7574 8.90683 15.3691 8.542"/>
</mask>
<path d="M12.2045 8.0283C11.6702 8.5151 11.3333 9.21867 11.3333 9.99998H12.6667C12.6667 9.60936 12.8338 9.25872 13.1025 9.01394L12.2045 8.0283ZM11.3333 9.99998C11.3333 11.4727 12.5272 12.6666 14 12.6666V11.3333C13.2636 11.3333 12.6667 10.7364 12.6667 9.99998H11.3333ZM14 12.6666C15.4728 12.6666 16.6667 11.4727 16.6667 9.99998H15.3333C15.3333 10.7364 14.7364 11.3333 14 11.3333V12.6666ZM16.6667 9.99998C16.6667 9.23349 16.3424 8.54167 15.8255 8.0561L14.9126 9.0279C15.1724 9.27199 15.3333 9.61666 15.3333 9.99998H16.6667Z" fill="#D80915" mask="url(#path-6-inside-1)"/>
<rect x="13.3333" y="9.33331" width="1.33333" height="2.66667" rx="0.666667" fill="#D80915"/>
</g>
</svg>
