<svg width="28" height="20" viewBox="0 0 28 20" fill="none" xmlns="http://www.w3.org/2000/svg">
<rect x="0.25" y="0.25" width="27.5" height="19.5" rx="1.75" fill="white" stroke="#F5F5F5" stroke-width="0.5"/>
<mask id="mask0" mask-type="alpha" maskUnits="userSpaceOnUse" x="0" y="0" width="28" height="20">
<rect x="0.25" y="0.25" width="27.5" height="19.5" rx="1.75" fill="white" stroke="white" stroke-width="0.5"/>
</mask>
<g mask="url(#mask0)">
<path fill-rule="evenodd" clip-rule="evenodd" d="M0 20H28V9.33334H12.4444L13.3333 10L0 20Z" fill="#DD1C34"/>
<path fill-rule="evenodd" clip-rule="evenodd" d="M28 9.33333H12.4444L0 0H28V9.33333Z" fill="#0D4BC3"/>
<path fill-rule="evenodd" clip-rule="evenodd" d="M2 3.99999C2.36819 3.99999 2.66667 3.70151 2.66667 3.33332C2.66667 2.96513 2.36819 2.66666 2 2.66666C1.63181 2.66666 1.33334 2.96513 1.33334 3.33332C1.33334 3.70151 1.63181 3.99999 2 3.99999ZM10 10.6667C10.3682 10.6667 10.6667 10.3682 10.6667 9.99999C10.6667 9.6318 10.3682 9.33332 10 9.33332C9.63181 9.33332 9.33334 9.6318 9.33334 9.99999C9.33334 10.3682 9.63181 10.6667 10 10.6667ZM2.66667 16.6667C2.66667 17.0348 2.36819 17.3333 2 17.3333C1.63181 17.3333 1.33334 17.0348 1.33334 16.6667C1.33334 16.2985 1.63181 16 2 16C2.36819 16 2.66667 16.2985 2.66667 16.6667ZM4.53208 11.3266L3.39106 13.0796L3.82379 11.0332C3.75415 10.9763 3.69038 10.9125 3.6335 10.8429L1.58707 11.2756L3.34004 10.1346C3.33561 10.0903 3.33334 10.0454 3.33334 9.99999C3.33334 9.95456 3.33561 9.90966 3.34004 9.8654L1.58707 8.72438L3.6335 9.15711C3.69038 9.08747 3.75415 9.0237 3.82379 8.96682L3.39106 6.92039L4.53208 8.67337C4.57634 8.66893 4.62124 8.66666 4.66667 8.66666C4.7121 8.66666 4.757 8.66893 4.80126 8.67337L5.94228 6.92039L5.50955 8.96682C5.57918 9.0237 5.64296 9.08747 5.69984 9.15711L7.74627 8.72438L5.99329 9.8654C5.99773 9.90966 6 9.95456 6 9.99999C6 10.0454 5.99773 10.0903 5.99329 10.1346L7.74627 11.2756L5.69984 10.8429C5.64296 10.9125 5.57918 10.9763 5.50955 11.0332L5.94228 13.0796L4.80126 11.3266C4.757 11.3311 4.7121 11.3333 4.66667 11.3333C4.62124 11.3333 4.57634 11.3311 4.53208 11.3266Z" fill="#FDD64D"/>
</g>
</svg>
