<svg width="29" height="20" viewBox="0 0 29 20" fill="none" xmlns="http://www.w3.org/2000/svg">
<path d="M2.09999 0H26.1C27.2 0 28.1 0.9 28.1 2V18C28.1 19.1 27.2 20 26.1 20H2.09999C0.999991 20 0.0999908 19.1 0.0999908 18V2C0.0999908 0.9 0.999991 0 2.09999 0Z" fill="white"/>
<path d="M26.7 0H1.89999C0.899994 0 0.0999908 0.8 0.0999908 1.8V6.4H28.1V1.4C28.1 0.7 27.5 0 26.7 0Z" fill="black"/>
<path d="M28.1 13.9H0.0999908V18C0.0999908 19.1 0.899994 19.9 1.89999 19.9H26.3C27.3 19.9 28.1 19.1 28.1 18V13.9Z" fill="#006600"/>
<path d="M28.1 7H17.3C16.9 6 15.7 4 14.9 4C14.1 4 12.9 6 12.5 7H0V13H12.5C12.9 14 14.1 16 14.9 16C15.7 16 16.9 14 17.3 13H28.1V7Z" fill="#BB0000"/>
<path d="M11.4 15.9L11.6 16L17.4 5.99998C17.7 5.89998 17.9 5.59998 18.1 5.29998C18.2 5.09998 18.7 4.19998 18.9 3.09998C18 3.79998 17.5 4.69998 17.4 4.89998C17.2 5.19998 17 5.49998 17.1 5.89998L11.4 15.9Z" fill="black" stroke="black" stroke-width="0.3333" stroke-miterlimit="10"/>
<path d="M11.4 15.9L11.6 16L17.4 5.99998C17.7 5.89998 17.9 5.59998 18.1 5.29998C18.2 5.09998 18.7 4.19998 18.9 3.09998C18 3.79998 17.5 4.69998 17.4 4.89998C17.2 5.19998 17 5.49998 17.1 5.89998L11.4 15.9Z" fill="white"/>
<path d="M18.5 15.9L18.3 16L12.5 5.99998C12.2 5.89998 12 5.59998 11.8 5.29998C11.7 5.09998 11.2 4.19998 11 3.09998C11.9 3.79998 12.4 4.69998 12.5 4.89998C12.7 5.19998 12.9 5.49998 12.8 5.89998L18.5 15.9Z" fill="black" stroke="black" stroke-width="0.3333" stroke-miterlimit="10"/>
<path d="M18.5 15.9L18.3 16L12.5 5.99998C12.2 5.89998 12 5.59998 11.8 5.29998C11.7 5.09998 11.2 4.19998 11 3.09998C11.9 3.79998 12.4 4.69998 12.5 4.89998C12.7 5.19998 12.9 5.49998 12.8 5.89998L18.5 15.9Z" fill="white"/>
<path d="M17.3 12.9C17.7 11.9 17.9 10.9 17.9 9.90002C17.9 8.90002 17.7 7.90002 17.3 6.90002C16.9 7.90002 16.7 8.90002 16.7 9.90002C16.7 10.9 16.9 11.9 17.3 12.9Z" fill="black"/>
<path d="M12.6 12.9C12.2 11.9 12 10.9 12 9.90002C12 8.90002 12.2 7.90002 12.6 6.90002C13 7.90002 13.2 8.90002 13.2 9.90002C13.2 10.9 13 11.9 12.6 12.9Z" fill="black"/>
<path d="M15 10.7C15.2761 10.7 15.5 10.3866 15.5 9.99999C15.5 9.61339 15.2761 9.29999 15 9.29999C14.7239 9.29999 14.5 9.61339 14.5 9.99999C14.5 10.3866 14.7239 10.7 15 10.7Z" fill="white"/>
<path d="M15.1 10.7C15.1 10.7 15.6 11.7 15.6 13.3C15.6 14.9 15.1 15.9 15.1 15.9V10.7Z" fill="white"/>
<path d="M14.8 9.2C14.8 9.2 14.3 8.2 14.3 6.6C14.3 5 14.8 4 14.8 4V9.2Z" fill="white"/>
<path d="M14.8 10.7C14.8 10.7 14.3 11.7 14.3 13.3C14.3 14.9 14.8 15.9 14.8 15.9V10.7Z" fill="white"/>
<path d="M15.1 9.2C15.1 9.2 15.6 8.2 15.6 6.6C15.6 5 15.1 4 15.1 4V9.2Z" fill="white"/>
</svg>
