<svg width="28" height="20" viewBox="0 0 28 20" fill="none" xmlns="http://www.w3.org/2000/svg">
<rect x="0.25" y="0.25" width="27.5" height="19.5" rx="1.75" fill="white" stroke="#F5F5F5" stroke-width="0.5"/>
<mask id="mask0" mask-type="alpha" maskUnits="userSpaceOnUse" x="0" y="0" width="28" height="20">
<rect x="0.25" y="0.25" width="27.5" height="19.5" rx="1.75" fill="white" stroke="white" stroke-width="0.5"/>
</mask>
<g mask="url(#mask0)">
<path fill-rule="evenodd" clip-rule="evenodd" d="M0 20H28V13.3333H0V20Z" fill="#262626"/>
<path fill-rule="evenodd" clip-rule="evenodd" d="M0 6.66667H28V0H0V6.66667Z" fill="#E32139"/>
<path fill-rule="evenodd" clip-rule="evenodd" d="M9.33332 11.0933L7.7659 12.1574L8.2935 10.3378L6.79717 9.17593L8.69068 9.11545L9.33332 7.33331L9.97597 9.11545L11.8695 9.17593L10.3731 10.3378L10.9008 12.1574L9.33332 11.0933Z" fill="#128A49"/>
<path fill-rule="evenodd" clip-rule="evenodd" d="M18.6667 11.0933L17.0992 12.1574L17.6268 10.3378L16.1305 9.17593L18.024 9.11545L18.6667 7.33331L19.3093 9.11545L21.2028 9.17593L19.7065 10.3378L20.2341 12.1574L18.6667 11.0933Z" fill="#128A49"/>
</g>
</svg>
