<svg width="28" height="20" viewBox="0 0 28 20" fill="none" xmlns="http://www.w3.org/2000/svg">
<rect width="28" height="20" rx="2" fill="white"/>
<mask id="mask0" mask-type="alpha" maskUnits="userSpaceOnUse" x="0" y="0" width="28" height="20">
<rect width="28" height="20" rx="2" fill="white"/>
</mask>
<g mask="url(#mask0)">
<path fill-rule="evenodd" clip-rule="evenodd" d="M0 20H28V0H0V20Z" fill="#30C375"/>
<rect x="4" width="4" height="20" fill="#DE414F"/>
</g>
<g clip-path="url(#clip0)">
<path fill-rule="evenodd" clip-rule="evenodd" d="M6 3.99998C7.10457 3.99998 8 3.40303 8 2.66665C8 1.93027 7.10457 1.33331 6 1.33331C4.89543 1.33331 4 1.93027 4 2.66665C4 3.40303 4.89543 3.99998 6 3.99998Z" fill="white"/>
<mask id="mask1" mask-type="alpha" maskUnits="userSpaceOnUse" x="4" y="1" width="4" height="3">
<path fill-rule="evenodd" clip-rule="evenodd" d="M6 3.99998C7.10457 3.99998 8 3.40303 8 2.66665C8 1.93027 7.10457 1.33331 6 1.33331C4.89543 1.33331 4 1.93027 4 2.66665C4 3.40303 4.89543 3.99998 6 3.99998Z" fill="white"/>
</mask>
<g mask="url(#mask1)">
<path fill-rule="evenodd" clip-rule="evenodd" d="M6.00001 3.33333C6.3682 3.33333 6.66668 3.03486 6.66668 2.66667C6.66668 2.29848 6.3682 2 6.00001 2C5.63182 2 5.33334 2.29848 5.33334 2.66667C5.33334 3.03486 5.63182 3.33333 6.00001 3.33333Z" fill="#DD404F"/>
<rect x="4" y="1.33331" width="2" height="1.33333" fill="#FBAF29"/>
<rect x="6" y="2.66663" width="2" height="1.33333" fill="#FBAF29"/>
</g>
</g>
<g clip-path="url(#clip1)">
<path fill-rule="evenodd" clip-rule="evenodd" d="M6 18.6667C7.10457 18.6667 8 18.0697 8 17.3333C8 16.597 7.10457 16 6 16C4.89543 16 4 16.597 4 17.3333C4 18.0697 4.89543 18.6667 6 18.6667Z" fill="white"/>
<mask id="mask2" mask-type="alpha" maskUnits="userSpaceOnUse" x="4" y="16" width="4" height="3">
<path fill-rule="evenodd" clip-rule="evenodd" d="M6 18.6667C7.10457 18.6667 8 18.0697 8 17.3333C8 16.597 7.10457 16 6 16C4.89543 16 4 16.597 4 17.3333C4 18.0697 4.89543 18.6667 6 18.6667Z" fill="white"/>
</mask>
<g mask="url(#mask2)">
<path fill-rule="evenodd" clip-rule="evenodd" d="M6.00001 18C6.3682 18 6.66668 17.7015 6.66668 17.3334C6.66668 16.9652 6.3682 16.6667 6.00001 16.6667C5.63182 16.6667 5.33334 16.9652 5.33334 17.3334C5.33334 17.7015 5.63182 18 6.00001 18Z" fill="#DD404F"/>
<rect x="4" y="16" width="2" height="1.33333" fill="#FBAF29"/>
<rect x="6" y="17.3333" width="2" height="1.33333" fill="#FBAF29"/>
</g>
</g>
<g clip-path="url(#clip2)">
<path fill-rule="evenodd" clip-rule="evenodd" d="M6 12C7.10457 12 8 11.403 8 10.6666C8 9.93027 7.10457 9.33331 6 9.33331C4.89543 9.33331 4 9.93027 4 10.6666C4 11.403 4.89543 12 6 12Z" fill="#28AE67"/>
<mask id="mask3" mask-type="alpha" maskUnits="userSpaceOnUse" x="4" y="9" width="4" height="3">
<path fill-rule="evenodd" clip-rule="evenodd" d="M6 12C7.10457 12 8 11.403 8 10.6666C8 9.93027 7.10457 9.33331 6 9.33331C4.89543 9.33331 4 9.93027 4 10.6666C4 11.403 4.89543 12 6 12Z" fill="white"/>
</mask>
<g mask="url(#mask3)">
<path fill-rule="evenodd" clip-rule="evenodd" d="M5.99999 11.3333C6.73637 11.3333 7.33332 11.0349 7.33332 10.6667C7.33332 10.2985 6.73637 10 5.99999 10C5.26361 10 4.66666 10.2985 4.66666 10.6667C4.66666 11.0349 5.26361 11.3333 5.99999 11.3333Z" fill="#DD404F"/>
</g>
</g>
<g clip-path="url(#clip3)">
<path fill-rule="evenodd" clip-rule="evenodd" d="M6 14.6666C7.10457 14.6666 8 14.3682 8 14C8 13.6318 7.10457 13.3333 6 13.3333C4.89543 13.3333 4 13.6318 4 14C4 14.3682 4.89543 14.6666 6 14.6666Z" fill="#28AE67"/>
<mask id="mask4" mask-type="alpha" maskUnits="userSpaceOnUse" x="4" y="13" width="4" height="2">
<path fill-rule="evenodd" clip-rule="evenodd" d="M6 14.6666C7.10457 14.6666 8 14.3682 8 14C8 13.6318 7.10457 13.3333 6 13.3333C4.89543 13.3333 4 13.6318 4 14C4 14.3682 4.89543 14.6666 6 14.6666Z" fill="white"/>
</mask>
<g mask="url(#mask4)">
</g>
</g>
<g clip-path="url(#clip4)">
<path fill-rule="evenodd" clip-rule="evenodd" d="M6 7.99998C7.10457 7.99998 8 7.40303 8 6.66665C8 5.93027 7.10457 5.33331 6 5.33331C4.89543 5.33331 4 5.93027 4 6.66665C4 7.40303 4.89543 7.99998 6 7.99998Z" fill="#FBAF29"/>
<mask id="mask5" mask-type="alpha" maskUnits="userSpaceOnUse" x="4" y="5" width="4" height="3">
<path fill-rule="evenodd" clip-rule="evenodd" d="M6 7.99998C7.10457 7.99998 8 7.40303 8 6.66665C8 5.93027 7.10457 5.33331 6 5.33331C4.89543 5.33331 4 5.93027 4 6.66665C4 7.40303 4.89543 7.99998 6 7.99998Z" fill="white"/>
</mask>
<g mask="url(#mask5)">
<path fill-rule="evenodd" clip-rule="evenodd" d="M6.00001 7.33333C6.3682 7.33333 6.66668 7.03486 6.66668 6.66667C6.66668 6.29848 6.3682 6 6.00001 6C5.63182 6 5.33334 6.29848 5.33334 6.66667C5.33334 7.03486 5.63182 7.33333 6.00001 7.33333Z" fill="#DD404F"/>
<rect x="4" y="5.33331" width="1.33333" height="2.66667" fill="#28AE67"/>
<rect x="6.66666" y="5.33331" width="1.33333" height="2.66667" fill="#28AE67"/>
</g>
</g>
<path fill-rule="evenodd" clip-rule="evenodd" d="M14.8226 4.23818C14.586 4.52023 14.6228 4.94073 14.9048 5.1774C15.1869 5.41407 15.6074 5.37728 15.844 5.09523C16.0807 4.81318 16.0439 4.39267 15.7619 4.15601C15.4798 3.91934 15.0593 3.95613 14.8226 4.23818ZM13.0952 6.82267C12.8131 6.586 12.3926 6.62279 12.156 6.90484C11.9193 7.18689 11.9561 7.6074 12.2381 7.84407C12.5202 8.08073 12.9407 8.04394 13.1774 7.76189C13.414 7.47984 13.3772 7.05934 13.0952 6.82267ZM11.7619 5.48934C11.4798 5.25267 11.0593 5.28946 10.8226 5.57151C10.586 5.85356 10.6228 6.27406 10.9048 6.51073C11.1869 6.7474 11.6074 6.71061 11.844 6.42856C12.0807 6.14651 12.0439 5.72601 11.7619 5.48934ZM14.4285 2.82267C14.1465 2.58601 13.726 2.62279 13.4893 2.90484C13.2526 3.18689 13.2894 3.6074 13.5715 3.84407C13.8535 4.08073 14.274 4.04394 14.5107 3.76189C14.7474 3.47984 14.7106 3.05934 14.4285 2.82267ZM13.7619 4.82267C13.4798 4.58601 13.0593 4.62279 12.8226 4.90484C12.586 5.18689 12.6228 5.6074 12.9048 5.84407C13.1869 6.08073 13.6074 6.04394 13.844 5.76189C14.0807 5.47984 14.0439 5.05934 13.7619 4.82267Z" fill="white"/>
<path fill-rule="evenodd" clip-rule="evenodd" d="M17.4761 9.45051C15.888 11.0386 13.3133 11.0386 11.7253 9.45051C11.5714 9.29664 11.4324 9.13349 11.3083 8.96288C12.8985 10.1191 15.1374 9.98015 16.5716 8.54598C18.0057 7.11181 18.1447 4.8729 16.9885 3.28278C17.1591 3.40683 17.3222 3.5458 17.4761 3.69968C19.0641 5.28773 19.0641 7.86246 17.4761 9.45051Z" fill="white"/>
<defs>
<clipPath id="clip0">
<rect x="4" y="1.33331" width="4" height="2.66667" fill="white"/>
</clipPath>
<clipPath id="clip1">
<rect x="4" y="16" width="4" height="2.66667" fill="white"/>
</clipPath>
<clipPath id="clip2">
<rect x="4" y="9.33331" width="4" height="2.66667" fill="white"/>
</clipPath>
<clipPath id="clip3">
<rect x="4" y="13.3333" width="4" height="1.33333" fill="white"/>
</clipPath>
<clipPath id="clip4">
<rect x="4" y="5.33331" width="4" height="2.66667" fill="white"/>
</clipPath>
</defs>
</svg>
