<svg width="28" height="20" viewBox="0 0 28 20" fill="none" xmlns="http://www.w3.org/2000/svg">
<path d="M26 20H1.90002C0.800024 20 0 19.1 0 18.1V1.9C0 0.8 0.900024 0 1.90002 0H26C27.1 0 27.9 0.9 27.9 1.9V18C28 19.1 27.1 20 26 20Z" fill="white"/>
<path d="M26 20H7V0H26C27 0 27.9 0.9 27.9 1.9V18.1C28 19.1 27.1 20 26 20Z" fill="#01411C"/>
<path d="M18.6 13.7C15.6 13.7 13.2 11.3 13.2 8.30002C13.2 6.50002 14.1 4.80002 15.5 3.90002C13 4.60002 11.2 6.90002 11.2 9.60002C11.2 12.9 13.9 15.6 17.2 15.6C19.7 15.6 21.9 14 22.8 11.8C21.8 12.9 20.3 13.7 18.6 13.7Z" fill="white"/>
<path d="M19.6 5.10004L20.4 6.30004L21.8 5.90004L20.9 7.00004L21.8 8.20004L20.4 7.70004L19.6 8.90004V7.50004L18.2 7.00004L19.6 6.60004V5.10004Z" fill="white"/>
</svg>
