<svg width="28" height="21" viewBox="0 0 28 21" fill="none" xmlns="http://www.w3.org/2000/svg">
<g clip-path="url(#clip0)">
<path d="M2 0H26.1C27.1 0 28 0.9 28 1.9V18C28 19.1 27.1 19.9 26.1 19.9H2C0.9 20 0 19.1 0 18.1V1.9C0 0.9 0.9 0 2 0Z" fill="white"/>
<path d="M26.1 0H2C0.9 0 0 0.9 0 1.9V5H28V1.9C28 0.9 27.1 0 26.1 0Z" fill="black"/>
<path d="M1.9 20.2H26C27.1 20.2 27.9 19.3 27.9 18.3V15.2H-0.0999985V18.3C1.52737e-06 19.3 0.900002 20.2 1.9 20.2Z" fill="black"/>
<path d="M13 7.10002C12.9 7.20002 12.8 7.30002 12.7 7.40002C12.7 7.40002 12.7 7.40002 12.6 7.40002C12.5 7.40002 12.4 7.40002 12.3 7.40002H12.2C12.1 7.30002 12 7.20002 11.9 7.10002C12.4 7.00002 12.7 7.00002 13 7.10002C13 7.00002 13 7.10002 13 7.10002Z" fill="black"/>
<path d="M11 7C11.3 7 11.6 7 11.9 7L11.8 7.1C11.7 7.2 11.7 7.2 11.6 7.3H11.5C11.4 7.3 11.3 7.3 11.2 7.3C11.1 7.3 11.1 7.2 11 7C11 7.1 11 7 11 7Z" fill="black"/>
<path d="M9.9 7C10.2 7 10.5 7 10.8 7C10.7 7.1 10.7 7.2 10.6 7.2C10.5 7.3 10.5 7.3 10.3 7.3C10.2 7.3 10.1 7.3 10 7.2C10 7.2 9.9 7.1 9.9 7C9.9 7.1 9.9 7.1 9.9 7Z" fill="black"/>
<path d="M13.8 10.9C13.8 10.8 13.8 10.6 13.8 10.5C13.8 10.4 13.8 10.3 13.8 10.2C13.8 10.1 13.8 10.1 13.7 10.1C13.2 10 12.7 9.8 12.3 9.5C11.8 9.1 11.5 8.7 11.4 8.1C11.3 7.9 11.3 7.6 11.3 7.4C11.4 7.4 11.5 7.4 11.7 7.4C11.7 7.4 11.7 7.4 11.7 7.5C11.7 8 11.9 8.4 12.1 8.8C12.3 9.1 12.6 9.4 13 9.6C13.3 9.7 13.5 9.8 13.8 9.9C13.8 9.9 13.8 9.9 13.9 9.9C13.9 9.6 13.9 9.4 13.9 9.2C13.7 9 13.5 9 13.4 9C12.8 8.8 12.5 8.3 12.4 7.7C12.4 7.5 12.4 7.5 12.5 7.5C12.6 7.5 12.6 7.5 12.7 7.5V7.6C12.8 8.1 13.1 8.5 13.6 8.6C13.7 8.6 13.7 8.6 13.7 8.5V8.4C13.7 8 13.7 7.5 13.7 7.1C13.7 7.1 13.7 7.1 13.7 7C13.8 7 14 7 14.1 7C14.1 7.4 14.1 7.9 14.1 8.3V8.4C14.1 8.5 14.1 8.5 14.2 8.5C14.7 8.4 15.1 7.9 15.1 7.4C15.1 7.4 15.1 7.4 15.1 7.3C15.2 7.3 15.3 7.3 15.4 7.3C15.4 7.3 15.4 7.3 15.4 7.4C15.4 7.6 15.4 7.8 15.2 8C15 8.4 14.7 8.7 14.2 8.8H14.1H14C14 9 14 9.3 14 9.5H14.1C14.3 9.5 14.6 9.4 14.8 9.3C15.4 9 15.8 8.6 16 8C16.1 7.8 16.2 7.5 16.2 7.2V7.1C16.3 7.1 16.4 7.1 16.5 7.1C16.5 7.2 16.5 7.2 16.5 7.3C16.4 7.7 16.4 8.1 16.2 8.4C16 8.7 15.8 9 15.6 9.2C15.2 9.5 14.8 9.7 14.3 9.8C14.2 9.8 14.2 9.8 14.1 9.8C14.1 9.8 14 9.8 14 9.9C14 10.1 14 10.3 14 10.5C14 10.5 14 10.6 14.1 10.6C14.4 10.6 14.6 10.5 14.9 10.4C15.4 10.2 15.8 10 16.2 9.6C16.6 9.3 16.8 8.9 17 8.4C17.2 8 17.3 7.6 17.3 7.1C17.4 7.1 17.5 7.1 17.7 7.1C17.7 7.6 17.6 8.1 17.4 8.6C17.2 9 16.9 9.4 16.6 9.8C16.1 10.3 15.5 10.6 14.8 10.8C14.6 10.9 14.3 10.9 14.1 10.9C14.1 10.9 14 10.9 14 11C14 11.3 14 11.7 14 12C14 12.1 14 12.1 14 12.2C14 12.2 14 12.3 14.1 12.3C14.4 12.4 14.8 12.4 15.1 12.5C15.3 12.5 15.5 12.6 15.8 12.6C15.8 12.6 15.9 12.6 15.9 12.7C15.9 12.8 15.9 12.8 15.9 12.9C14.6 12.9 13.2 12.9 11.9 12.9C11.9 12.8 11.9 12.7 11.9 12.7C11.9 12.7 11.9 12.7 12 12.7C12.2 12.7 12.4 12.6 12.6 12.6C13 12.5 13.3 12.5 13.7 12.4C13.7 12.4 13.8 12.4 13.8 12.3C13.8 11.9 13.8 11.5 13.8 11.1C13.8 11.1 13.8 11 13.7 11C13.3 10.9 12.9 10.9 12.5 10.7C12.1 10.5 11.7 10.3 11.3 10C11 9.9 10.7 9.5 10.4 9C10.2 8.6 10.1 8.1 10.1 7.6C10.1 7.5 10.1 7.5 10.2 7.5C10.3 7.5 10.4 7.5 10.5 7.5C10.5 8.7 11 9.6 11.9 10.3C12.5 10.6 13.1 10.9 13.8 10.9Z" fill="black"/>
<path d="M15 7C15.3 7 15.6 7 16 7C15.9 7.1 15.8 7.2 15.7 7.3H15.6C15.5 7.3 15.4 7.3 15.4 7.3C15.3 7.3 15.3 7.3 15.3 7.2C15.1 7.3 15.1 7.2 15 7C15 7.1 15 7.1 15 7Z" fill="black"/>
<path d="M13.5 6.70001C13.8 6.70001 14.1 6.70001 14.4 6.70001C14.4 6.70001 14.4 6.70001 14.4 6.80001C14.3 6.90001 14.3 7.00001 14.2 7.10001H14.1C14 7.10001 13.9 7.10001 13.8 7.10001C13.8 7.10001 13.8 7.10001 13.7 7.10001C13.7 7.00001 13.6 6.80001 13.5 6.70001Z" fill="black"/>
<path d="M17 7.10002C16.9 7.20002 16.9 7.30002 16.8 7.40002C16.7 7.50002 16.7 7.50002 16.6 7.50002C16.4 7.50002 16.3 7.50002 16.3 7.30002C16.3 7.20002 16.2 7.20002 16.1 7.10002C16.4 7.00002 16.7 7.00002 17 7.10002C17 7.00002 17 7.10002 17 7.10002Z" fill="black"/>
<path d="M18.1 7.00002C18.1 7.10002 18.1 7.10002 18.1 7.00002C18 7.20002 18 7.30002 17.9 7.30002C17.9 7.40002 17.8 7.40002 17.7 7.40002C17.6 7.40002 17.6 7.40002 17.5 7.40002C17.4 7.40002 17.4 7.40002 17.4 7.30002C17.3 7.20002 17.3 7.10002 17.2 7.00002C17.2 7.00002 17.2 7.00002 17.2 6.90002C17.5 7.00002 17.8 7.00002 18.1 7.00002Z" fill="black"/>
</g>
<defs>
<clipPath id="clip0">
<rect width="28" height="20.2" fill="white"/>
</clipPath>
</defs>
</svg>
