<svg width="28" height="20" viewBox="0 0 28 20" fill="none" xmlns="http://www.w3.org/2000/svg">
<rect width="28" height="20" rx="2" fill="white"/>
<mask id="mask0" mask-type="alpha" maskUnits="userSpaceOnUse" x="0" y="0" width="28" height="20">
<rect width="28" height="20" rx="2" fill="white"/>
</mask>
<g mask="url(#mask0)">
<rect width="28" height="20" fill="url(#paint0_linear)"/>
<g filter="url(#filter0_d)">
<path fill-rule="evenodd" clip-rule="evenodd" d="M0 20H28V10.6667H0V20Z" fill="#262626"/>
</g>
<g filter="url(#filter1_d)">
<path fill-rule="evenodd" clip-rule="evenodd" d="M0 10.6667H28V0H0V10.6667Z" fill="#DD2137"/>
</g>
<g filter="url(#filter2_d)">
<path fill-rule="evenodd" clip-rule="evenodd" d="M16.1978 11.5528C16.3641 11.2611 16.4962 10.9435 16.5872 10.6039C17.1589 8.47003 15.8926 6.27669 13.7587 5.70492C13.4031 5.60962 13.0375 5.82068 12.9422 6.17632C12.8469 6.53197 13.058 6.89753 13.4136 6.99282C14.8362 7.374 15.6804 8.83623 15.2993 10.2588C15.2469 10.4541 15.1742 10.6385 15.084 10.8103L13.0365 9.44529C12.7301 9.24105 12.3162 9.32383 12.112 9.63019C11.9077 9.93654 11.9905 10.3505 12.2969 10.5547L14.1741 11.8062C13.5627 12.2023 12.7924 12.3478 12.0333 12.1444C11.6776 12.0491 11.3121 12.2602 11.2168 12.6158C11.1215 12.9715 11.3325 13.337 11.6882 13.4323C13.0213 13.7895 14.3777 13.4293 15.3473 12.5883L16.2969 13.2214C16.6032 13.4256 17.0171 13.3428 17.2214 13.0365C17.4256 12.7301 17.3428 12.3162 17.0365 12.112L16.1978 11.5528ZM12.6667 8.66665C13.0349 8.66665 13.3333 8.36818 13.3333 7.99999C13.3333 7.6318 13.0349 7.33332 12.6667 7.33332C12.2985 7.33332 12 7.6318 12 7.99999C12 8.36818 12.2985 8.66665 12.6667 8.66665Z" fill="#F8D84B"/>
</g>
</g>
<defs>
<filter id="filter0_d" x="0" y="10.6667" width="28" height="9.33333" filterUnits="userSpaceOnUse" color-interpolation-filters="sRGB">
<feFlood flood-opacity="0" result="BackgroundImageFix"/>
<feColorMatrix in="SourceAlpha" type="matrix" values="0 0 0 0 0 0 0 0 0 0 0 0 0 0 0 0 0 0 127 0"/>
<feOffset/>
<feColorMatrix type="matrix" values="0 0 0 0 0 0 0 0 0 0 0 0 0 0 0 0 0 0 0.06 0"/>
<feBlend mode="normal" in2="BackgroundImageFix" result="effect1_dropShadow"/>
<feBlend mode="normal" in="SourceGraphic" in2="effect1_dropShadow" result="shape"/>
</filter>
<filter id="filter1_d" x="0" y="0" width="28" height="10.6667" filterUnits="userSpaceOnUse" color-interpolation-filters="sRGB">
<feFlood flood-opacity="0" result="BackgroundImageFix"/>
<feColorMatrix in="SourceAlpha" type="matrix" values="0 0 0 0 0 0 0 0 0 0 0 0 0 0 0 0 0 0 127 0"/>
<feOffset/>
<feColorMatrix type="matrix" values="0 0 0 0 0 0 0 0 0 0 0 0 0 0 0 0 0 0 0.06 0"/>
<feBlend mode="normal" in2="BackgroundImageFix" result="effect1_dropShadow"/>
<feBlend mode="normal" in="SourceGraphic" in2="effect1_dropShadow" result="shape"/>
</filter>
<filter id="filter2_d" x="11.1939" y="5.68204" width="6.13951" height="8.88758" filterUnits="userSpaceOnUse" color-interpolation-filters="sRGB">
<feFlood flood-opacity="0" result="BackgroundImageFix"/>
<feColorMatrix in="SourceAlpha" type="matrix" values="0 0 0 0 0 0 0 0 0 0 0 0 0 0 0 0 0 0 127 0"/>
<feOffset dy="1"/>
<feColorMatrix type="matrix" values="0 0 0 0 0 0 0 0 0 0 0 0 0 0 0 0 0 0 0.06 0"/>
<feBlend mode="normal" in2="BackgroundImageFix" result="effect1_dropShadow"/>
<feBlend mode="normal" in="SourceGraphic" in2="effect1_dropShadow" result="shape"/>
</filter>
<linearGradient id="paint0_linear" x1="0" y1="0" x2="0" y2="20" gradientUnits="userSpaceOnUse">
<stop stop-color="#FF323E"/>
<stop offset="1" stop-color="#FD0D1B"/>
</linearGradient>
</defs>
</svg>
