<svg width="28" height="20" viewBox="0 0 28 20" fill="none" xmlns="http://www.w3.org/2000/svg">
<rect width="28" height="20" rx="2" fill="white"/>
<mask id="mask0" mask-type="alpha" maskUnits="userSpaceOnUse" x="0" y="0" width="28" height="20">
<rect width="28" height="20" rx="2" fill="white"/>
</mask>
<g mask="url(#mask0)">
<rect width="28" height="20" fill="#05AB41"/>
<path fill-rule="evenodd" clip-rule="evenodd" d="M3.53167 10.5597C3.12567 10.297 3.12567 9.70298 3.53167 9.44028L13.6378 2.901C13.8582 2.7584 14.1418 2.7584 14.3622 2.901L24.4683 9.44028C24.8743 9.70298 24.8743 10.297 24.4683 10.5597L14.3622 17.099C14.1418 17.2416 13.8582 17.2416 13.6378 17.099L3.53167 10.5597Z" fill="#FDD216"/>
</g>
<g clip-path="url(#clip0)">
<path fill-rule="evenodd" clip-rule="evenodd" d="M14 14.6667C16.5773 14.6667 18.6667 12.5773 18.6667 10C18.6667 7.42268 16.5773 5.33334 14 5.33334C11.4227 5.33334 9.33334 7.42268 9.33334 10C9.33334 12.5773 11.4227 14.6667 14 14.6667Z" fill="#053087"/>
<mask id="mask1" mask-type="alpha" maskUnits="userSpaceOnUse" x="9" y="5" width="10" height="10">
<path fill-rule="evenodd" clip-rule="evenodd" d="M14 14.6667C16.5773 14.6667 18.6667 12.5773 18.6667 10C18.6667 7.42268 16.5773 5.33334 14 5.33334C11.4227 5.33334 9.33334 7.42268 9.33334 10C9.33334 12.5773 11.4227 14.6667 14 14.6667Z" fill="white"/>
</mask>
<g mask="url(#mask1)">
<path d="M8.77996 8.78027C9.51266 8.18694 11.877 8.74901 14.0841 9.33775C16.2911 9.9265 18.593 11.1605 19.1791 11.8843" stroke="white" stroke-width="1.33333" stroke-linecap="square"/>
</g>
</g>
<defs>
<clipPath id="clip0">
<rect x="9.33334" y="5.33334" width="10" height="10" fill="white"/>
</clipPath>
</defs>
</svg>
