<svg width="28" height="20" viewBox="0 0 28 20" fill="none" xmlns="http://www.w3.org/2000/svg">
<path d="M26.1 20H1.9C0.9 20 0 19.1 0 18.1V1.9C0 0.9 0.9 0 1.9 0H26C27.1 0 28 0.9 28 1.9V18C28 19.1 27.1 20 26.1 20Z" fill="#009900"/>
<path d="M12.1 12.1H0V1.8C0 0.8 0.8 0 1.8 0H12V12.1H12.1Z" fill="white"/>
<path d="M5.60001 2.70001L6.50001 5.20001H9.20001L7.00001 6.80001L7.80001 9.40001L5.60001 7.80001L3.40001 9.40001L4.30001 6.80001L2.10001 5.20001H4.80001L5.60001 2.70001Z" fill="#009900"/>
</svg>
