<svg width="28" height="20" viewBox="0 0 28 20" fill="none" xmlns="http://www.w3.org/2000/svg">
<g clip-path="url(#clip0)">
<rect width="28" height="20" rx="2" fill="white"/>
<mask id="mask0" mask-type="alpha" maskUnits="userSpaceOnUse" x="0" y="0" width="28" height="20">
<rect width="28" height="20" rx="2" fill="white"/>
</mask>
<g mask="url(#mask0)">
<rect width="28" height="20" fill="#07319C"/>
</g>
<g clip-path="url(#clip1)">
<g clip-path="url(#clip2)">
<path fill-rule="evenodd" clip-rule="evenodd" d="M17.3333 10C17.3333 8.90626 17.3333 7.61315 17.3333 6.66582C17.3333 5.92944 17.9303 5.33334 18.6667 5.33334H22.6667C23.403 5.33334 24 5.92944 24 6.66582C24 7.61315 24 8.90626 24 10C24 13.3333 20.6667 14.6667 20.6667 14.6667C20.6667 14.6667 17.3333 13.3333 17.3333 10Z" fill="#0072C4"/>
<mask id="mask1" mask-type="alpha" maskUnits="userSpaceOnUse" x="17" y="5" width="7" height="10">
<path fill-rule="evenodd" clip-rule="evenodd" d="M17.3333 10C17.3333 8.90626 17.3333 7.61315 17.3333 6.66582C17.3333 5.92944 17.9303 5.33334 18.6667 5.33334H22.6667C23.403 5.33334 24 5.92944 24 6.66582C24 7.61315 24 8.90626 24 10C24 13.3333 20.6667 14.6667 20.6667 14.6667C20.6667 14.6667 17.3333 13.3333 17.3333 10Z" fill="white"/>
</mask>
<g mask="url(#mask1)">
<path fill-rule="evenodd" clip-rule="evenodd" d="M18.8691 9.2677C18.186 9.95777 19.5249 9.87024 19.5249 9.87024L20.4785 9.56492C20.4785 9.56492 20.9072 9.61679 21.1966 9.70403C21.3883 9.76182 21.9218 10 21.9218 10C21.9218 10 23.0485 9.77508 22.6523 9.2677C22.2562 8.76032 19.5523 8.57763 18.8691 9.2677Z" fill="#005121"/>
</g>
<g clip-path="url(#clip3)">
<g clip-path="url(#clip4)">
<path fill-rule="evenodd" clip-rule="evenodd" d="M21.7099 8.55086C21.7373 8.54464 21.8013 8.54604 21.8252 8.57512C21.8627 8.62058 21.9394 8.60547 21.9769 8.64928C22.0142 8.69321 22.0576 8.73372 22.0576 8.7962C22.0576 8.85867 22.0504 9.01359 22.0517 9.04762C22.0536 9.10007 22.0627 9.1082 22.1166 9.1068C22.1816 9.10515 22.2714 9.10007 22.2742 8.98362C22.2761 8.90248 22.1954 8.85181 22.1719 8.56318C22.2073 8.53283 22.2388 8.50578 22.227 8.4654C22.2151 8.42489 22.2939 8.40458 22.2861 8.34375C22.2781 8.28305 22.3647 8.24585 22.3293 8.17842C22.2939 8.11086 22.3726 8.10756 22.3412 8.05347C22.3096 7.9995 22.3923 7.95213 22.3569 7.90502C22.3215 7.85766 22.4041 7.81385 22.3609 7.75645C22.3175 7.69905 22.3844 7.66528 22.3412 7.62134C22.3687 7.57753 22.345 7.45258 22.2584 7.38172C22.1719 7.31074 22.0498 7.27366 21.9788 7.24661C21.8468 7.19632 21.6007 7.21956 21.4274 7.23988C21.2541 7.26007 20.9311 7.28039 20.8326 7.26693C20.7342 7.25347 20.5019 7.23988 20.3187 7.27023C20.256 7.28064 20.1847 7.26185 20.1474 7.22642C20.1175 7.1981 20.1001 7.20115 20.0726 7.2028C20.045 7.20445 20.0292 7.19594 20.0154 7.16216C19.9911 7.10274 19.9367 7.14362 19.9111 7.06934C19.8939 7.01969 19.8046 7.06261 19.7772 7.02045C19.7495 6.97829 19.7161 6.97321 19.6412 6.97829C19.6373 6.95289 19.596 6.93435 19.5585 6.94108C19.5644 6.89893 19.5231 6.86515 19.4542 6.8668C19.4621 6.81448 19.3656 6.77397 19.3163 6.8061C19.2849 6.76724 19.2218 6.77562 19.2061 6.8061C19.1726 6.76724 19.0662 6.77905 19.0406 6.82121C18.9954 6.79594 18.9074 6.85804 18.9147 6.95632C18.9166 6.98337 18.9184 7.01143 18.8732 7.02045C18.7886 7.03734 18.7394 7.13181 18.6664 7.14528C18.5936 7.15886 18.5207 7.18248 18.507 7.22299C18.4932 7.2635 18.5188 7.30578 18.4913 7.32597C18.4637 7.34629 18.5089 7.36483 18.5227 7.37486C18.5364 7.38502 18.5581 7.40191 18.5621 7.42553C18.5677 7.45905 18.623 7.46908 18.6803 7.43226C18.7039 7.41715 18.7452 7.46274 18.8121 7.43061C18.8791 7.39861 18.9742 7.4155 18.9579 7.46781C18.9501 7.49308 18.9677 7.52013 18.9895 7.5454C19.0111 7.57067 19.0436 7.64699 19.0249 7.69055C18.9973 7.75467 19.0524 7.79023 19.0387 7.8475C19.0249 7.90502 19.0465 7.95734 19.017 8.03493C18.9874 8.11251 18.987 8.20966 19.0308 8.23747C19.0919 8.27632 19.055 8.35328 19.1076 8.38604C19.1508 8.41296 19.1253 8.47886 19.2061 8.49905C19.2868 8.51937 19.2396 8.57334 19.3241 8.58515C19.4089 8.59696 19.4384 8.65778 19.527 8.6442C19.5923 8.63429 19.6267 8.65016 19.6647 8.66515C19.6726 8.71924 19.6551 8.91772 19.6511 8.96839C19.6476 9.01321 19.6236 9.0847 19.6236 9.12877C19.6236 9.15569 19.6787 9.16242 19.7418 9.16242C19.8046 9.16242 19.8323 9.13715 19.8164 9.06629C19.8007 8.99531 19.7969 8.82248 19.8009 8.71442C19.8556 8.7407 19.9076 8.77753 19.9052 8.81816C19.9012 8.88394 19.9022 9.00204 19.8913 9.06286C19.8836 9.1068 19.8953 9.17601 19.8993 9.22159C19.9033 9.23835 20.0095 9.2367 20.0529 9.22159C20.0961 9.20635 20.0961 9.16585 20.0921 8.98185C20.0902 8.8908 19.9936 8.79772 20.1159 8.75226C20.175 8.73029 20.2576 8.67962 20.2892 8.63251C20.3206 8.58515 20.3896 8.60369 20.4388 8.62743C20.488 8.65105 20.5668 8.68712 20.6161 8.67124C20.6791 8.65105 20.7461 8.70159 20.8012 8.67124C20.8563 8.64089 20.9273 8.69321 20.9724 8.65613C21.0178 8.61893 21.0966 8.65435 21.1301 8.61893C21.1636 8.5835 21.3013 8.63924 21.3507 8.59201C21.3999 8.54464 21.4668 8.60547 21.5121 8.57004C21.524 8.56064 21.5381 8.55861 21.5535 8.55975C21.5517 8.63962 21.5367 8.76674 21.5338 8.80635C21.5302 8.85131 21.5062 8.92267 21.5062 8.96661C21.5062 8.99366 21.5613 9.00039 21.6243 9.00039C21.6874 9.00039 21.715 8.97512 21.6993 8.90426C21.6834 8.8334 21.7061 8.65905 21.7099 8.55086Z" fill="#A3A3A3"/>
<path fill-rule="evenodd" clip-rule="evenodd" d="M18.5233 7.32001C18.5496 7.30083 18.5252 7.26096 18.5384 7.22261C18.5516 7.18439 18.6213 7.16204 18.6911 7.14934C18.7609 7.13652 18.808 7.04725 18.8892 7.03125C18.9324 7.02274 18.9307 6.9962 18.9287 6.97068C18.9219 6.87785 19.0061 6.81918 19.0495 6.84318C19.0739 6.80318 19.1759 6.79201 19.2079 6.82871C19.223 6.80001 19.2833 6.79201 19.3135 6.82871C19.3606 6.79849 19.453 6.83671 19.4455 6.8861C19.5116 6.88458 19.5511 6.91645 19.5455 6.95633C19.5813 6.94998 19.6209 6.9675 19.6247 6.99137C19.6187 7.03061 19.7083 7.04064 19.6668 7.06604C19.6305 7.08826 19.596 7.0795 19.5547 7.04915C19.5133 7.01868 19.3754 7.04572 19.3557 7.06096C19.336 7.0762 19.3144 7.08293 19.2985 7.07112C19.2828 7.05931 19.2455 7.04064 19.2277 7.04242C19.2099 7.04407 19.1726 7.04407 19.1508 7.00864C19.1292 6.97322 19.0741 6.96814 19.0643 6.9816C19.0545 6.99506 19.0859 7.04407 19.1175 7.06261C19.1489 7.08128 19.1332 7.11671 19.1707 7.1369C19.1951 7.15023 19.1726 7.19595 19.1588 7.22299C19.145 7.25004 19.0919 7.24153 19.0879 7.22134C19.084 7.20115 19.0701 7.18756 19.0387 7.21791C19.0071 7.24839 18.9403 7.23988 18.9244 7.2315C18.9087 7.22299 18.8653 7.20788 18.8359 7.21626C18.8062 7.22477 18.8496 7.23823 18.8536 7.25004C18.8575 7.26185 18.8062 7.26693 18.7767 7.26693C18.7473 7.26693 18.7373 7.28369 18.7551 7.28712C18.7729 7.29055 18.8416 7.29398 18.8693 7.28039C18.8969 7.26693 18.9815 7.28039 18.9895 7.30579C18.9973 7.33106 18.9403 7.34122 18.9067 7.33779C18.8572 7.33283 18.7846 7.35975 18.7492 7.36814C18.7138 7.37664 18.6193 7.35468 18.5818 7.36483C18.5444 7.37487 18.5076 7.33512 18.5233 7.32001Z" fill="#A3A3A3"/>
<path fill-rule="evenodd" clip-rule="evenodd" d="M19.1567 7.52686C19.1213 7.54032 19.1332 7.58083 19.1647 7.59772C19.1963 7.6146 19.2671 7.62133 19.3124 7.61295C19.3576 7.60445 19.3676 7.61803 19.3381 7.63492C19.3084 7.65168 19.3833 7.65511 19.3773 7.68216C19.3716 7.70908 19.4049 7.704 19.4364 7.70235C19.468 7.7007 19.5093 7.68038 19.5447 7.66184C19.5801 7.6433 19.6058 7.65676 19.5723 7.68889C19.539 7.72089 19.4267 7.76153 19.3381 7.75645C19.2493 7.75137 19.2021 7.77156 19.2218 7.80026C19.2415 7.82895 19.336 7.83403 19.3852 7.81879C19.4345 7.80368 19.4267 7.83073 19.3892 7.84914C19.3517 7.86781 19.2985 7.86946 19.2533 7.86781C19.208 7.86616 19.1686 7.90502 19.2277 7.92686C19.2868 7.94883 19.3656 7.93537 19.3951 7.95391C19.4247 7.97245 19.5153 7.94375 19.5172 7.97587C19.5191 8.00787 19.4916 8.01968 19.4384 8.01638C19.3852 8.01295 19.4009 8.03695 19.4404 8.05003C19.4759 8.06197 19.539 8.06197 19.5723 8.05854C19.6058 8.05524 19.596 8.08889 19.5625 8.1007C19.529 8.11251 19.4207 8.1294 19.3676 8.12775C19.3144 8.1261 19.3399 8.15987 19.4089 8.15987C19.6196 8.15987 19.6905 8.06019 19.7437 7.99099C19.7698 7.95708 19.8204 7.93867 19.8323 7.95899C19.8441 7.97918 19.8461 7.98426 19.8225 8.00114C19.7988 8.01803 19.8046 8.02819 19.848 8.02984C19.8913 8.03149 19.9544 8.01968 19.9919 8.00965C20.0292 7.99949 20.1394 8.06337 20.0489 8.06527C19.8893 8.0687 19.6924 8.1261 19.6276 8.14972C19.5625 8.17333 19.4541 8.21778 19.3873 8.21549C19.3381 8.21384 19.3182 8.23238 19.3381 8.25435C19.3576 8.27632 19.4207 8.27632 19.4561 8.26616C19.4916 8.256 19.4994 8.26616 19.4759 8.28635C19.4523 8.30667 19.3932 8.31505 19.3517 8.32191C19.3105 8.32864 19.2901 8.35505 19.3222 8.36572C19.3833 8.38603 19.3281 8.40457 19.3716 8.41473C19.4148 8.42489 19.3676 8.45689 19.4148 8.46705C19.4621 8.47721 19.4896 8.47213 19.525 8.44851C19.5606 8.42489 19.5801 8.4113 19.6176 8.41473C19.6551 8.41816 19.6807 8.40114 19.7024 8.37587C19.724 8.3506 19.7969 8.30502 19.8204 8.32699C19.8441 8.34895 19.8933 8.30832 19.9033 8.33029C19.913 8.35226 19.9544 8.33879 19.9643 8.36914C19.9751 8.40292 20.0213 8.40965 20.0529 8.39784C20.0843 8.38603 20.1099 8.35733 20.1099 8.31505C20.1099 8.27289 20.1218 8.256 20.1336 8.30159C20.1453 8.34718 20.1887 8.36064 20.2104 8.33879C20.232 8.31683 20.2399 8.24089 20.2241 8.20546C20.2084 8.16991 20.2064 8.12432 20.2222 8.11594C20.2379 8.10756 20.2754 8.18514 20.2911 8.21892C20.307 8.2527 20.3481 8.24254 20.3502 8.20876C20.3521 8.17499 20.3896 8.1581 20.4172 8.18349C20.4447 8.20876 20.429 8.29321 20.4369 8.33372C20.4447 8.37422 20.5215 8.32356 20.5295 8.33702C20.5373 8.3506 20.5668 8.35391 20.5787 8.32521C20.5905 8.29651 20.6181 8.27124 20.6338 8.28813C20.6496 8.30502 20.6732 8.33372 20.683 8.36572C20.6929 8.39784 20.7283 8.41473 20.7499 8.38095C20.7716 8.34718 20.7874 8.2814 20.7796 8.23568C20.7716 8.19022 20.7855 8.16153 20.805 8.18514C20.8247 8.20876 20.8228 8.27289 20.8247 8.32521C20.8268 8.37753 20.8917 8.37257 20.8917 8.29486C20.8917 8.25943 20.9114 8.2527 20.9173 8.27289C20.9233 8.29321 20.9233 8.32699 20.9292 8.3421C20.9437 8.37956 20.9942 8.35899 21 8.33372C21.0059 8.30832 20.9961 8.21714 20.9843 8.17676C20.9724 8.13613 20.9961 8.10756 21.0159 8.1294C21.0356 8.15137 21.0394 8.20876 21.0434 8.27289C21.0473 8.33702 21.0886 8.34045 21.1104 8.32191C21.132 8.30324 21.132 8.24927 21.1222 8.21041C21.1123 8.17168 21.1439 8.17168 21.1576 8.1953C21.1714 8.21892 21.1951 8.20368 21.1911 8.18514C21.1873 8.1666 21.2068 8.14972 21.2265 8.17499C21.2462 8.20038 21.2403 8.25778 21.2305 8.30324C21.2206 8.34895 21.2797 8.34375 21.3073 8.30502C21.3348 8.26616 21.321 8.15987 21.2975 8.1261C21.2738 8.09232 21.2759 8.04838 21.2895 8.00965C21.3034 7.97079 21.329 7.96902 21.331 7.98603C21.3329 8.00279 21.3447 8.03149 21.3664 8.05346C21.388 8.07543 21.3999 8.07886 21.4037 8.04495C21.4077 8.0113 21.4274 8.01968 21.4353 8.04495C21.4433 8.07035 21.4569 8.09054 21.4766 8.0687C21.4963 8.04673 21.5219 8.06362 21.5062 8.0974C21.4904 8.13118 21.4904 8.16153 21.5022 8.1953C21.5141 8.22908 21.5554 8.224 21.5594 8.18514C21.5676 8.10438 21.5791 8.1581 21.5889 8.19353C21.5987 8.22908 21.6283 8.2273 21.6342 8.20711C21.6401 8.18679 21.6461 8.18184 21.6461 8.20368C21.6461 8.22565 21.6559 8.24419 21.6815 8.24419C21.7071 8.24419 21.7012 8.20038 21.7129 8.17333C21.7247 8.14629 21.7464 8.18349 21.776 8.24584C21.8055 8.30832 21.8271 8.24927 21.8961 8.39111C21.9243 8.44889 21.965 8.39949 21.9631 8.3793C21.961 8.35899 21.967 8.34553 22.0004 8.34553C22.0339 8.34553 22.0615 8.33879 22.0498 8.31683C22.0379 8.29486 22.0458 8.25435 22.0439 8.20876C22.0419 8.16318 22.0477 8.13791 22.0536 8.16318C22.0596 8.18845 22.0793 8.224 22.1107 8.24254C22.1422 8.26108 22.1639 8.21041 22.1382 8.17841C22.1127 8.14629 22.0773 8.07035 22.0793 8.00622C22.0807 7.95899 22.1028 7.9741 22.1028 8.00787C22.1028 8.04165 22.1225 8.10248 22.1521 8.11594C22.1816 8.1294 22.1935 8.06692 22.1797 8.03492C22.1659 8.00279 22.1581 7.95899 22.1876 7.95048C22.217 7.9421 22.1797 7.90667 22.1541 7.88127C22.1284 7.856 22.1127 7.83073 22.1581 7.83238C22.2033 7.83403 22.1659 7.80533 22.1441 7.78679C22.1225 7.76826 22.0852 7.73105 22.1441 7.73613C22.2033 7.74121 22.1837 7.71086 22.16 7.69397C22.1363 7.67708 22.1225 7.64495 22.1639 7.64673C22.2053 7.64838 22.2308 7.62806 22.227 7.61295C22.2119 7.55441 22.1127 7.48635 22.0517 7.43403C21.9907 7.38172 21.8921 7.3294 21.839 7.32089C21.7858 7.31238 21.7839 7.34629 21.7976 7.36648C21.8114 7.38667 21.839 7.40026 21.843 7.37994C21.8468 7.35975 21.8881 7.38172 21.9079 7.40864C21.9276 7.43568 21.9945 7.46946 22.036 7.49981C22.0773 7.53016 21.9807 7.51505 21.9335 7.47454C21.9065 7.4513 21.9098 7.47949 21.9453 7.51162C21.9807 7.54375 21.9354 7.55721 21.8981 7.53016C21.8606 7.50324 21.7641 7.4273 21.7031 7.37829C21.6421 7.3294 21.6321 7.34121 21.6302 7.37321C21.6283 7.40533 21.6499 7.4273 21.6893 7.45422C21.7287 7.48127 21.7779 7.52343 21.8154 7.55213C21.8527 7.58083 21.8213 7.59937 21.7976 7.57905C21.7739 7.55886 21.6933 7.50324 21.6461 7.46438C21.5987 7.42553 21.5554 7.40699 21.5259 7.41206C21.4963 7.41714 21.4984 7.44584 21.5338 7.47619C21.5692 7.50654 21.6126 7.56394 21.6126 7.59772C21.6126 7.63149 21.581 7.65511 21.5652 7.59441C21.5495 7.53359 21.4747 7.46273 21.4196 7.40864C21.3644 7.35467 21.3092 7.34451 21.2679 7.34794C21.2265 7.35124 21.2284 7.39175 21.2284 7.42387C21.2284 7.45587 21.2009 7.43733 21.199 7.41372C21.197 7.3901 21.1655 7.36991 21.1477 7.37156C21.1301 7.37321 21.136 7.42222 21.1301 7.44419C21.1241 7.46603 21.0966 7.48635 21.0966 7.43568C21.0966 7.38502 21.0316 7.35975 21.004 7.35797C20.9764 7.35632 20.9508 7.36648 20.9646 7.38845C20.9784 7.41029 20.9724 7.46946 20.9627 7.50324C20.9527 7.53689 20.9233 7.47784 20.9173 7.41537C20.9114 7.35302 20.819 7.30908 20.7539 7.32762C20.6889 7.34629 20.7382 7.38667 20.7264 7.42553C20.7145 7.46438 20.6967 7.42895 20.6908 7.38845C20.685 7.34794 20.6535 7.32254 20.6102 7.3327C20.5668 7.34286 20.5373 7.36305 20.5393 7.3901C20.5412 7.41714 20.5412 7.44076 20.5314 7.48457C20.5215 7.52851 20.5039 7.50654 20.5058 7.47784C20.5079 7.44914 20.4979 7.40191 20.488 7.37486C20.4782 7.34794 20.4624 7.37321 20.4664 7.40699C20.4704 7.44076 20.4604 7.51835 20.4447 7.56572C20.429 7.61295 20.4053 7.6146 20.4172 7.55048C20.429 7.48635 20.3994 7.39175 20.3699 7.34794C20.3487 7.31657 20.301 7.30578 20.301 7.34959C20.301 7.39353 20.3148 7.42553 20.3502 7.45765C20.3856 7.48965 20.3581 7.56902 20.3227 7.6113C20.2871 7.65346 20.2892 7.59264 20.301 7.54705C20.3127 7.50146 20.2479 7.48635 20.2222 7.47784C20.1966 7.46946 20.2498 7.42387 20.2616 7.36305C20.2674 7.33308 20.2596 7.31416 20.236 7.31238C20.2123 7.31073 20.1493 7.36813 20.1218 7.41029C20.1296 7.36648 20.1218 7.32762 20.0981 7.32762C20.0745 7.32762 20.0489 7.36991 20.0313 7.40026C20.0135 7.4306 19.9957 7.41372 20.0135 7.38172C20.0313 7.34959 20.0587 7.26349 20.0233 7.24495C19.9879 7.22641 19.9563 7.30235 19.919 7.28876C19.8978 7.28114 19.9268 7.23314 19.9387 7.21118C19.9504 7.18921 19.9268 7.17232 19.8736 7.21283C19.8204 7.25346 19.7969 7.31924 19.783 7.35975C19.7693 7.40026 19.6748 7.46603 19.6236 7.50146C19.5723 7.53689 19.5507 7.52343 19.5763 7.50819C19.6019 7.49308 19.653 7.44584 19.6787 7.4273C19.7043 7.40864 19.6924 7.39772 19.6433 7.42972C19.5941 7.46184 19.5044 7.52013 19.4127 7.54032C19.359 7.55226 19.3517 7.5421 19.4049 7.52686C19.4581 7.51162 19.5801 7.43899 19.6098 7.40533C19.6283 7.38413 19.5801 7.40191 19.5566 7.40699C19.533 7.41206 19.5133 7.40533 19.5606 7.38845C19.6077 7.37156 19.7575 7.23822 19.789 7.18921C19.8204 7.14032 19.7929 7.12165 19.7732 7.12343C19.7535 7.12508 19.7259 7.13689 19.7319 7.1167C19.7378 7.09638 19.724 7.06933 19.6984 7.07784C19.6727 7.08622 19.6748 7.13524 19.6649 7.16216C19.6551 7.18921 19.5999 7.22476 19.5644 7.22476C19.529 7.22476 19.4799 7.23149 19.4424 7.25676C19.4049 7.28203 19.3873 7.25841 19.4049 7.23822C19.4227 7.21791 19.4621 7.21283 19.5015 7.21118C19.5409 7.20953 19.5841 7.20445 19.6176 7.17232C19.6511 7.14032 19.653 7.11492 19.6276 7.11327C19.6019 7.11162 19.5585 7.08292 19.5447 7.07111C19.4748 7.01105 19.3467 7.09473 19.2966 7.14362C19.269 7.17067 19.1745 7.24838 19.145 7.26857C19.1154 7.28876 19.1273 7.31746 19.1764 7.27873C19.2258 7.23987 19.2415 7.26692 19.1963 7.29562C19.1508 7.32432 19.1175 7.36648 19.1332 7.38172C19.1489 7.39683 19.2099 7.37829 19.2434 7.35975C19.2769 7.34121 19.2927 7.38667 19.2099 7.40191C19.1544 7.41219 19.135 7.43175 19.1785 7.43403C19.212 7.43568 19.2631 7.42222 19.3105 7.3986C19.3576 7.37486 19.3951 7.38845 19.3557 7.41206C19.3163 7.43568 19.2296 7.46781 19.1864 7.46781C19.1501 7.46781 19.1923 7.5134 19.1567 7.52686Z" fill="white"/>
<path fill-rule="evenodd" clip-rule="evenodd" d="M19.3852 7.14958C19.4326 7.10024 19.4739 7.07864 19.5172 7.11411C19.5564 7.14624 19.5606 7.16024 19.5113 7.14958C19.4621 7.13891 19.4286 7.14958 19.3991 7.18144C19.3695 7.21344 19.336 7.20091 19.3852 7.14958Z" fill="#A3A3A3"/>
<path fill-rule="evenodd" clip-rule="evenodd" d="M18.6055 7.27488C18.6409 7.23941 18.6979 7.23941 18.7236 7.20048C18.7492 7.16141 18.7767 7.17568 18.7452 7.21288C18.7138 7.25008 18.6527 7.25728 18.6271 7.28381C18.6015 7.31034 18.5877 7.29261 18.6055 7.27488Z" fill="#A3A3A3"/>
<path fill-rule="evenodd" clip-rule="evenodd" d="M18.8261 7.13934C18.8474 7.13641 18.889 7.11094 18.9147 7.08081C18.9403 7.05068 18.9954 7.04001 19.0287 7.07548C19.0622 7.11094 19.08 7.12334 19.0978 7.13054C19.1154 7.13761 19.1154 7.16068 19.0879 7.16761C19.0603 7.17481 19.023 7.18014 19.0033 7.17121C18.9836 7.16241 18.9539 7.15534 18.9304 7.16068C18.9067 7.16588 18.8969 7.15534 18.9166 7.14641C18.9363 7.13761 18.9599 7.11094 18.9717 7.10028C18.9836 7.08974 19.015 7.09854 18.9973 7.10921C18.9796 7.11988 18.9874 7.14281 19.0052 7.15174C19.023 7.16068 19.0584 7.16068 19.0741 7.14468C19.0505 7.12161 19.0111 7.09148 18.9954 7.08268C18.9796 7.07374 18.9658 7.07014 18.9461 7.09148C18.9264 7.11281 18.8791 7.16414 18.8339 7.16241C18.7886 7.16068 18.8004 7.14281 18.8261 7.13934Z" fill="#A3A3A3"/>
<path fill-rule="evenodd" clip-rule="evenodd" d="M20.0705 7.45736C20.053 7.48176 20.037 7.51323 20.0351 7.53803C20.0332 7.56283 20.0559 7.57976 20.0587 7.5487C20.0616 7.51763 20.0646 7.4991 20.0892 7.47603C20.1139 7.45296 20.0902 7.4299 20.0705 7.45736Z" fill="#A3A3A3"/>
<path fill-rule="evenodd" clip-rule="evenodd" d="M19.8293 7.4568C19.8498 7.44853 19.8844 7.42933 19.9012 7.4116C19.9179 7.394 19.9287 7.40546 19.912 7.42493C19.8953 7.4444 19.8569 7.46746 19.8391 7.4728C19.8215 7.47813 19.8077 7.46573 19.8293 7.4568Z" fill="#A3A3A3"/>
<path fill-rule="evenodd" clip-rule="evenodd" d="M19.8599 7.55543C19.8316 7.58947 19.72 7.67036 19.6865 7.68547C19.653 7.7007 19.6649 7.72267 19.7024 7.71086C19.6748 7.7327 19.6136 7.76826 19.5744 7.77829C19.535 7.78845 19.527 7.8188 19.5861 7.80026C19.6452 7.78172 19.7279 7.7327 19.7495 7.71086C19.7713 7.6889 19.7437 7.67874 19.7772 7.65512C19.8107 7.6315 19.8726 7.58832 19.8815 7.57067C19.8953 7.54375 19.8796 7.53182 19.8599 7.55543Z" fill="#A3A3A3"/>
<path fill-rule="evenodd" clip-rule="evenodd" d="M19.7378 7.83073C19.78 7.81016 19.8588 7.7374 19.8815 7.69562C19.8953 7.67035 19.9228 7.67365 19.9012 7.71251C19.8796 7.75137 19.7988 7.82058 19.7713 7.83912C19.7437 7.85765 19.6924 7.85258 19.7378 7.83073Z" fill="#A3A3A3"/>
<path fill-rule="evenodd" clip-rule="evenodd" d="M20.6338 7.43061C20.6222 7.45435 20.62 7.50997 20.624 7.53689C20.6279 7.56394 20.6516 7.58426 20.6476 7.54375C20.6437 7.50324 20.6437 7.46274 20.6573 7.45093C20.6713 7.43899 20.6535 7.3901 20.6338 7.43061Z" fill="#A3A3A3"/>
<path fill-rule="evenodd" clip-rule="evenodd" d="M20.8741 7.53017C20.8941 7.54858 20.9036 7.63493 20.9016 7.66693C20.8997 7.69906 20.9332 7.69906 20.9311 7.65347C20.9292 7.60788 20.9252 7.55048 20.9076 7.52014C20.8898 7.48966 20.8465 7.5049 20.8741 7.53017Z" fill="#A3A3A3"/>
<path fill-rule="evenodd" clip-rule="evenodd" d="M21.0847 7.58591C21.0969 7.60801 21.1123 7.65004 21.1123 7.68039C21.1123 7.71087 21.1379 7.69728 21.1399 7.66185C21.1418 7.62642 21.136 7.59607 21.1222 7.57245C21.1084 7.54883 21.067 7.55379 21.0847 7.58591Z" fill="#A3A3A3"/>
<path fill-rule="evenodd" clip-rule="evenodd" d="M21.2148 7.55951C21.204 7.53231 21.1873 7.50804 21.1753 7.51164C21.1636 7.51524 21.1714 7.54004 21.1873 7.56657C21.2028 7.59324 21.2265 7.58964 21.2148 7.55951Z" fill="#A3A3A3"/>
<path fill-rule="evenodd" clip-rule="evenodd" d="M20.3916 7.74794C20.3856 7.81867 20.3481 7.88127 20.303 7.90324C20.2576 7.92521 20.2655 7.96064 20.3206 7.92521C20.3759 7.88978 20.4172 7.82896 20.429 7.77499C20.4407 7.72089 20.3956 7.7007 20.3916 7.74794Z" fill="#A3A3A3"/>
<path fill-rule="evenodd" clip-rule="evenodd" d="M20.293 7.71594C20.2695 7.73956 20.2557 7.79023 20.2557 7.82896C20.2557 7.86782 20.2714 7.83912 20.2754 7.81715C20.2794 7.79518 20.2871 7.76483 20.307 7.75467C20.3265 7.74451 20.3167 7.69232 20.293 7.71594Z" fill="#A3A3A3"/>
<path fill-rule="evenodd" clip-rule="evenodd" d="M21.9985 7.76483C22.0193 7.79899 22.0498 7.85435 22.0596 7.88635C22.0695 7.91848 22.0458 7.92686 22.0379 7.89816C22.0299 7.86946 21.9926 7.80534 21.9788 7.78337C21.965 7.76153 21.9748 7.72597 21.9985 7.76483Z" fill="#A3A3A3"/>
</g>
</g>
<path d="M16 9.33333C16 9.33333 18.2679 10.0071 18.6507 10.0071C18.7583 10.0071 20.2273 9.67023 20.6677 9.67023C20.8324 9.67023 22.353 9.90101 22.75 10.0071C23.1471 10.1132 25.3354 9.33333 25.3354 9.33333" stroke="white" stroke-width="0.666667" stroke-linecap="round" stroke-linejoin="round"/>
<path d="M16 10.6667C16 10.6667 18.2679 11.3405 18.6507 11.3405C18.7583 11.3405 20.2273 11.0036 20.6677 11.0036C20.8324 11.0036 22.353 11.2343 22.75 11.3405C23.1471 11.4466 25.3354 10.6667 25.3354 10.6667" stroke="white" stroke-width="0.666667" stroke-linecap="round" stroke-linejoin="round"/>
<path d="M16 13.3333C16 13.3333 18.2679 14.0071 18.6507 14.0071C18.7583 14.0071 19.634 13.4619 20.6677 13.4619C21.7014 13.4619 22.353 13.901 22.75 14.0071C23.1471 14.1132 25.3354 13.3333 25.3354 13.3333L32.5128 14.4813" stroke="white" stroke-width="1.33333" stroke-linecap="round" stroke-linejoin="round"/>
</g>
<path d="M17.6667 10V9.94859V9.8969V9.84494V9.79272V9.74027V9.68758V9.63468V9.58157V9.52827V9.47479V9.42114V9.36734V9.3134V9.28637V9.27961V9.27285V9.25932V9.20513V9.15083V9.09644V9.04198V8.98744V8.93285V8.87821V8.82355V8.76887V8.74153V8.73469V8.72785V8.72102V8.71418V8.70735V8.70051V8.69368V8.68684V8.68001V8.67317V8.66634V8.6595V8.65267V8.64584V8.639V8.63217V8.62534V8.61851V8.61168V8.60485V8.59801V8.59118V8.58436V8.57753V8.5707V8.56387V8.55704V8.55022V8.54339V8.53657V8.52974V8.52292V8.5161V8.50928V8.50246V8.49564V8.48882V8.482V8.47518V8.46837V8.46155V8.45474V8.44792V8.44111V8.4343V8.42749V8.42068V8.41388V8.40707V8.40026V8.39346V8.38666V8.37986V8.37306V8.36626V8.35946V8.35266V8.34587V8.33908V8.33228V8.32549V8.31871V8.31192V8.30513V8.29835V8.29157V8.28479V8.27801V8.27123V8.26445V8.25768V8.25091V8.24414V8.23737V8.2306V8.22384V8.21707V8.21031V8.20355V8.1968V8.19004V8.18329V8.17654V8.16979V8.16304V8.15629V8.14955V8.14281V8.13607V8.12933V8.1226V8.11587V8.10914V8.10241V8.09568V8.08896V8.08224V8.07552V8.06881V8.06209V8.05538V8.04867V8.04197V8.03526V8.02856V8.02187V8.01517V8.00848V8.00179V7.9951V7.98841V7.98173V7.97505V7.96837V7.9617V7.95503V7.94836V7.9417V7.93503V7.92837V7.92172V7.91506V7.90841V7.90176V7.89512V7.88848V7.8752V7.84869V7.79583V7.74319V7.69078V7.63861V7.5867V7.53506V7.4837V7.43263V7.38188V7.33144V7.28133V7.23157V7.18216V7.13313V7.08447V7.03621V6.94093V6.84736V6.75563V6.66582C17.6667 6.11381 18.1141 5.66667 18.6667 5.66667H22.6667C23.2192 5.66667 23.6667 6.11381 23.6667 6.66582V6.67138V6.67694V6.68251V6.68809V6.69367V6.69927V6.70487V6.71048V6.7161V6.72172V6.72735V6.73299V6.73864V6.7443V6.74996V6.75563V6.76131V6.76699V6.77269V6.77839V6.7841V6.78981V6.79553V6.80126V6.807V6.81275V6.8185V6.82426V6.83002V6.8358V6.84158V6.84737V6.85316V6.85896V6.86477V6.87059V6.87641V6.88224V6.88808V6.89392V6.89977V6.90563V6.9115V6.91737V6.92325V6.92913V6.93503V6.94093V6.94683V6.95274V6.95866V6.96459V6.97052V6.97646V6.98241V6.98836V6.99432V7.00028V7.00626V7.01224V7.01822V7.02421V7.03021V7.03621V7.04222V7.04824V7.05426V7.06029V7.06633V7.07237V7.07842V7.08447V7.09053V7.0966V7.10267V7.10875V7.11484V7.12093V7.12703V7.13313V7.13924V7.14535V7.15147V7.1576V7.16373V7.16987V7.17601V7.18216V7.18832V7.19448V7.20065V7.20682V7.213V7.21918V7.22537V7.23157V7.23777V7.24398V7.25019V7.25641V7.26263V7.26886V7.27509V7.28133V7.28758V7.29383V7.30008V7.30634V7.31261V7.31888V7.32516V7.33144V7.33773V7.34402V7.35031V7.35662V7.36292V7.36924V7.37555V7.38188V7.3882V7.39454V7.40087V7.40722V7.41356V7.41992V7.42627V7.43263V7.439V7.44537V7.45175V7.45813V7.46451V7.4709V7.4773V7.4837V7.4901V7.49651V7.50292V7.50934V7.51576V7.52219V7.52862V7.53506V7.5415V7.54794V7.55439V7.56084V7.5673V7.57376V7.58023V7.5867V7.59317V7.59965V7.60613V7.61262V7.61911V7.62561V7.63211V7.63861V7.64512V7.65163V7.65814V7.66466V7.67118V7.67771V7.68424V7.69078V7.69731V7.70386V7.7104V7.71695V7.72351V7.73006V7.73662V7.74319V7.74976V7.75633V7.7629V7.76948V7.77606V7.78265V7.78924V7.79583V7.80243V7.80903V7.81563V7.82224V7.82885V7.83546V7.84208V7.8487V7.85532V7.86194V7.86857V7.87521V7.88184V7.88848V7.89512V7.90177V7.90841V7.91506V7.92172V7.92837V7.93503V7.9417V7.94836V7.95503V7.9617V7.96838V7.97505V7.98173V7.98841V7.9951V8.00179V8.00848V8.01517V8.02187V8.02856V8.03527V8.04197V8.04868V8.05538V8.06209V8.06881V8.07552V8.08224V8.08896V8.09569V8.10241V8.10914V8.11587V8.1226V8.12933V8.13607V8.14281V8.14955V8.15629V8.16304V8.16979V8.17654V8.18329V8.19004V8.1968V8.20355V8.21031V8.21707V8.22384V8.2306V8.23737V8.24414V8.25091V8.25768V8.26445V8.27123V8.27801V8.28479V8.29157V8.29835V8.30513V8.31192V8.31871V8.3255V8.33229V8.33908V8.34587V8.35266V8.35946V8.36626V8.37306V8.37986V8.38666V8.39346V8.40026V8.40707V8.41388V8.42068V8.42749V8.4343V8.44111V8.44792V8.45474V8.46155V8.46837V8.47518V8.482V8.48882V8.49564V8.50246V8.50928V8.5161V8.52292V8.52974V8.53657V8.54339V8.55022V8.55704V8.56387V8.5707V8.57753V8.58436V8.59119V8.59802V8.60485V8.61168V8.61851V8.62534V8.63217V8.639V8.64584V8.65267V8.6595V8.66634V8.67317V8.68001V8.68684V8.69368V8.70051V8.70735V8.71418V8.72102V8.72785V8.73469V8.74153V8.74836V8.7552V8.76203V8.76887V8.77571V8.78254V8.78938V8.79621V8.80305V8.80988V8.81672V8.82355V8.83039V8.83722V8.84405V8.85089V8.85772V8.86455V8.87138V8.87821V8.88505V8.89188V8.89871V8.90554V8.91237V8.91919V8.92602V8.93285V8.93968V8.9465V8.95333V8.96015V8.96697V8.9738V8.98062V8.98744V8.99426V9.00108V9.0079V9.01472V9.02153V9.02835V9.03516V9.04198V9.04879V9.0556V9.06241V9.06922V9.07603V9.08283V9.08964V9.09644V9.10325V9.11005V9.11685V9.12365V9.13045V9.13724V9.14404V9.15083V9.15763V9.16442V9.17121V9.17799V9.18478V9.19157V9.19835V9.20513V9.21191V9.21869V9.22546V9.23224V9.23901V9.24578V9.25255V9.25932V9.26609V9.27285V9.27961V9.28637V9.29313V9.29989V9.30664V9.3134V9.32015V9.32689V9.33364V9.34038V9.34713V9.35387V9.3606V9.36734V9.37407V9.3808V9.38753V9.39426V9.40098V9.40771V9.41442V9.42114V9.42786V9.43457V9.44128V9.44799V9.45469V9.46139V9.46809V9.47479V9.48148V9.48818V9.49486V9.50155V9.50823V9.51492V9.52159V9.52827V9.53494V9.54161V9.54828V9.55494V9.5616V9.56826V9.57492V9.58157V9.58822V9.59486V9.60151V9.60815V9.61479V9.62142V9.62805V9.63468V9.6413V9.64792V9.65454V9.66116V9.66777V9.67437V9.68098V9.68758V9.69418V9.70077V9.70736V9.71395V9.72054V9.72712V9.73369V9.74027V9.74684V9.7534V9.75997V9.76652V9.77308V9.77963V9.78618V9.79272V9.79926V9.8058V9.81233V9.81886V9.82539V9.83191V9.83842V9.84494V9.85145V9.85795V9.86445V9.87095V9.87744V9.88393V9.89042V9.8969V9.90337V9.90985V9.91631V9.92278V9.92924V9.93569V9.94214V9.94859V9.95503V9.96147V9.9679V9.97433V9.98076V9.98718V9.99359V10C23.6667 11.5427 22.8988 12.6259 22.1103 13.3356C21.7158 13.6906 21.3202 13.9479 21.0232 14.1162C20.875 14.2002 20.7523 14.2615 20.6678 14.3014C20.6674 14.3015 20.667 14.3017 20.6667 14.3019C20.6663 14.3017 20.6659 14.3015 20.6656 14.3014C20.5811 14.2615 20.4584 14.2002 20.3102 14.1162C20.0131 13.9479 19.6175 13.6906 19.223 13.3356C18.4345 12.6259 17.6667 11.5427 17.6667 10Z" stroke="white" stroke-width="0.666667"/>
<mask id="mask2" mask-type="alpha" maskUnits="userSpaceOnUse" x="17" y="5" width="7" height="10">
<path d="M17.6667 10V9.94859V9.8969V9.84494V9.79272V9.74027V9.68758V9.63468V9.58157V9.52827V9.47479V9.42114V9.36734V9.3134V9.28637V9.27961V9.27285V9.25932V9.20513V9.15083V9.09644V9.04198V8.98744V8.93285V8.87821V8.82355V8.76887V8.74153V8.73469V8.72785V8.72102V8.71418V8.70735V8.70051V8.69368V8.68684V8.68001V8.67317V8.66634V8.6595V8.65267V8.64584V8.639V8.63217V8.62534V8.61851V8.61168V8.60485V8.59801V8.59118V8.58436V8.57753V8.5707V8.56387V8.55704V8.55022V8.54339V8.53657V8.52974V8.52292V8.5161V8.50928V8.50246V8.49564V8.48882V8.482V8.47518V8.46837V8.46155V8.45474V8.44792V8.44111V8.4343V8.42749V8.42068V8.41388V8.40707V8.40026V8.39346V8.38666V8.37986V8.37306V8.36626V8.35946V8.35266V8.34587V8.33908V8.33228V8.32549V8.31871V8.31192V8.30513V8.29835V8.29157V8.28479V8.27801V8.27123V8.26445V8.25768V8.25091V8.24414V8.23737V8.2306V8.22384V8.21707V8.21031V8.20355V8.1968V8.19004V8.18329V8.17654V8.16979V8.16304V8.15629V8.14955V8.14281V8.13607V8.12933V8.1226V8.11587V8.10914V8.10241V8.09568V8.08896V8.08224V8.07552V8.06881V8.06209V8.05538V8.04867V8.04197V8.03526V8.02856V8.02187V8.01517V8.00848V8.00179V7.9951V7.98841V7.98173V7.97505V7.96837V7.9617V7.95503V7.94836V7.9417V7.93503V7.92837V7.92172V7.91506V7.90841V7.90176V7.89512V7.88848V7.8752V7.84869V7.79583V7.74319V7.69078V7.63861V7.5867V7.53506V7.4837V7.43263V7.38188V7.33144V7.28133V7.23157V7.18216V7.13313V7.08447V7.03621V6.94093V6.84736V6.75563V6.66582C17.6667 6.11381 18.1141 5.66667 18.6667 5.66667H22.6667C23.2192 5.66667 23.6667 6.11381 23.6667 6.66582V6.67138V6.67694V6.68251V6.68809V6.69367V6.69927V6.70487V6.71048V6.7161V6.72172V6.72735V6.73299V6.73864V6.7443V6.74996V6.75563V6.76131V6.76699V6.77269V6.77839V6.7841V6.78981V6.79553V6.80126V6.807V6.81275V6.8185V6.82426V6.83002V6.8358V6.84158V6.84737V6.85316V6.85896V6.86477V6.87059V6.87641V6.88224V6.88808V6.89392V6.89977V6.90563V6.9115V6.91737V6.92325V6.92913V6.93503V6.94093V6.94683V6.95274V6.95866V6.96459V6.97052V6.97646V6.98241V6.98836V6.99432V7.00028V7.00626V7.01224V7.01822V7.02421V7.03021V7.03621V7.04222V7.04824V7.05426V7.06029V7.06633V7.07237V7.07842V7.08447V7.09053V7.0966V7.10267V7.10875V7.11484V7.12093V7.12703V7.13313V7.13924V7.14535V7.15147V7.1576V7.16373V7.16987V7.17601V7.18216V7.18832V7.19448V7.20065V7.20682V7.213V7.21918V7.22537V7.23157V7.23777V7.24398V7.25019V7.25641V7.26263V7.26886V7.27509V7.28133V7.28758V7.29383V7.30008V7.30634V7.31261V7.31888V7.32516V7.33144V7.33773V7.34402V7.35031V7.35662V7.36292V7.36924V7.37555V7.38188V7.3882V7.39454V7.40087V7.40722V7.41356V7.41992V7.42627V7.43263V7.439V7.44537V7.45175V7.45813V7.46451V7.4709V7.4773V7.4837V7.4901V7.49651V7.50292V7.50934V7.51576V7.52219V7.52862V7.53506V7.5415V7.54794V7.55439V7.56084V7.5673V7.57376V7.58023V7.5867V7.59317V7.59965V7.60613V7.61262V7.61911V7.62561V7.63211V7.63861V7.64512V7.65163V7.65814V7.66466V7.67118V7.67771V7.68424V7.69078V7.69731V7.70386V7.7104V7.71695V7.72351V7.73006V7.73662V7.74319V7.74976V7.75633V7.7629V7.76948V7.77606V7.78265V7.78924V7.79583V7.80243V7.80903V7.81563V7.82224V7.82885V7.83546V7.84208V7.8487V7.85532V7.86194V7.86857V7.87521V7.88184V7.88848V7.89512V7.90177V7.90841V7.91506V7.92172V7.92837V7.93503V7.9417V7.94836V7.95503V7.9617V7.96838V7.97505V7.98173V7.98841V7.9951V8.00179V8.00848V8.01517V8.02187V8.02856V8.03527V8.04197V8.04868V8.05538V8.06209V8.06881V8.07552V8.08224V8.08896V8.09569V8.10241V8.10914V8.11587V8.1226V8.12933V8.13607V8.14281V8.14955V8.15629V8.16304V8.16979V8.17654V8.18329V8.19004V8.1968V8.20355V8.21031V8.21707V8.22384V8.2306V8.23737V8.24414V8.25091V8.25768V8.26445V8.27123V8.27801V8.28479V8.29157V8.29835V8.30513V8.31192V8.31871V8.3255V8.33229V8.33908V8.34587V8.35266V8.35946V8.36626V8.37306V8.37986V8.38666V8.39346V8.40026V8.40707V8.41388V8.42068V8.42749V8.4343V8.44111V8.44792V8.45474V8.46155V8.46837V8.47518V8.482V8.48882V8.49564V8.50246V8.50928V8.5161V8.52292V8.52974V8.53657V8.54339V8.55022V8.55704V8.56387V8.5707V8.57753V8.58436V8.59119V8.59802V8.60485V8.61168V8.61851V8.62534V8.63217V8.639V8.64584V8.65267V8.6595V8.66634V8.67317V8.68001V8.68684V8.69368V8.70051V8.70735V8.71418V8.72102V8.72785V8.73469V8.74153V8.74836V8.7552V8.76203V8.76887V8.77571V8.78254V8.78938V8.79621V8.80305V8.80988V8.81672V8.82355V8.83039V8.83722V8.84405V8.85089V8.85772V8.86455V8.87138V8.87821V8.88505V8.89188V8.89871V8.90554V8.91237V8.91919V8.92602V8.93285V8.93968V8.9465V8.95333V8.96015V8.96697V8.9738V8.98062V8.98744V8.99426V9.00108V9.0079V9.01472V9.02153V9.02835V9.03516V9.04198V9.04879V9.0556V9.06241V9.06922V9.07603V9.08283V9.08964V9.09644V9.10325V9.11005V9.11685V9.12365V9.13045V9.13724V9.14404V9.15083V9.15763V9.16442V9.17121V9.17799V9.18478V9.19157V9.19835V9.20513V9.21191V9.21869V9.22546V9.23224V9.23901V9.24578V9.25255V9.25932V9.26609V9.27285V9.27961V9.28637V9.29313V9.29989V9.30664V9.3134V9.32015V9.32689V9.33364V9.34038V9.34713V9.35387V9.3606V9.36734V9.37407V9.3808V9.38753V9.39426V9.40098V9.40771V9.41442V9.42114V9.42786V9.43457V9.44128V9.44799V9.45469V9.46139V9.46809V9.47479V9.48148V9.48818V9.49486V9.50155V9.50823V9.51492V9.52159V9.52827V9.53494V9.54161V9.54828V9.55494V9.5616V9.56826V9.57492V9.58157V9.58822V9.59486V9.60151V9.60815V9.61479V9.62142V9.62805V9.63468V9.6413V9.64792V9.65454V9.66116V9.66777V9.67437V9.68098V9.68758V9.69418V9.70077V9.70736V9.71395V9.72054V9.72712V9.73369V9.74027V9.74684V9.7534V9.75997V9.76652V9.77308V9.77963V9.78618V9.79272V9.79926V9.8058V9.81233V9.81886V9.82539V9.83191V9.83842V9.84494V9.85145V9.85795V9.86445V9.87095V9.87744V9.88393V9.89042V9.8969V9.90337V9.90985V9.91631V9.92278V9.92924V9.93569V9.94214V9.94859V9.95503V9.96147V9.9679V9.97433V9.98076V9.98718V9.99359V10C23.6667 11.5427 22.8988 12.6259 22.1103 13.3356C21.7158 13.6906 21.3202 13.9479 21.0232 14.1162C20.875 14.2002 20.7523 14.2615 20.6678 14.3014C20.6674 14.3015 20.667 14.3017 20.6667 14.3019C20.6663 14.3017 20.6659 14.3015 20.6656 14.3014C20.5811 14.2615 20.4584 14.2002 20.3102 14.1162C20.0131 13.9479 19.6175 13.6906 19.223 13.3356C18.4345 12.6259 17.6667 11.5427 17.6667 10Z" fill="white" stroke="white" stroke-width="0.666667"/>
</mask>
<g mask="url(#mask2)">
</g>
</g>
<path d="M0 -0.333333H-0.901086L-0.21693 0.253086L4.33333 4.15331V5.16179L-0.193746 8.39542L-0.333333 8.49513V8.66667V9.33333V9.93475L0.176666 9.616L5.42893 6.33333H6.55984L11.0821 9.56351C11.176 9.6306 11.2886 9.66667 11.404 9.66667C11.9182 9.66667 12.1548 9.02698 11.7644 8.69237L7.66667 5.18002V4.17154L12.0542 1.03762C12.2294 0.912475 12.3333 0.710428 12.3333 0.495127V0V-0.601416L11.8233 -0.282666L6.57107 3H5.44016L0.860413 -0.271244L0.773488 -0.333333H0.666667H0Z" fill="#DB1E36" stroke="white" stroke-width="0.666667"/>
<path fill-rule="evenodd" clip-rule="evenodd" d="M0 3.33333V6H4.66667V9.33333C4.66667 9.70152 4.96514 10 5.33333 10H6.66667C7.03486 10 7.33333 9.70152 7.33333 9.33333V6H12C12.3682 6 12.6667 5.70152 12.6667 5.33333V4C12.6667 3.63181 12.3682 3.33333 12 3.33333H7.33333V0H4.66667V3.33333H0Z" fill="white"/>
<path fill-rule="evenodd" clip-rule="evenodd" d="M0 4H5.33333V3.33333V0H6.66667V3.33333V4H12V5.33333H6.66667V6V9.33333H5.33333V6V5.33333H0V4Z" fill="#DB1E36"/>
</g>
<defs>
<clipPath id="clip0">
<rect width="28" height="20" fill="white"/>
</clipPath>
<clipPath id="clip1">
<rect x="17.3333" y="5.33334" width="7" height="10" fill="white"/>
</clipPath>
<clipPath id="clip2">
<rect x="17.3333" y="5.33334" width="7" height="10" fill="white"/>
</clipPath>
<clipPath id="clip3">
<rect x="17.3333" y="6.66667" width="5.33333" height="2.66667" fill="white"/>
</clipPath>
<clipPath id="clip4">
<rect x="18.4" y="6.66667" width="4" height="2.66667" fill="white"/>
</clipPath>
</defs>
</svg>
