<svg width="29" height="21" viewBox="0 0 29 21" fill="none" xmlns="http://www.w3.org/2000/svg">
<path d="M2.8 1H26.8C27.8 1 28.6 1.8 28.6 2.8V18.8C28.6 19.8 27.8 20.6 26.8 20.6H2.8C1.8 20.6 1 19.8 1 18.8V2.8C1.1 1.8 1.8 1 2.8 1Z" fill="white" stroke="#F5F5F5" stroke-width="0.5"/>
<mask id="mask0" mask-type="alpha" maskUnits="userSpaceOnUse" x="0" y="0" width="29" height="21">
<path d="M2.8 1H26.8C27.8 1 28.6 1.8 28.6 2.8V18.8C28.6 19.8 27.8 20.6 26.8 20.6H2.8C1.8 20.6 1 19.8 1 18.8V2.8C1.1 1.8 1.8 1 2.8 1Z" fill="white" stroke="white" stroke-width="0.5"/>
</mask>
<g mask="url(#mask0)">
<path d="M0.800003 4.79999H28.8V0.799988H0.800003V4.79999Z" fill="#0E46D4"/>
<path d="M0.800003 20.8H28.8V16.8H0.800003V20.8Z" fill="#0E46D4"/>
<path d="M11.2 12.6L10.9 13.1H11.5H18.2H18.8L18.5 12.6L15.2 6.59998L14.9 6.09998L14.6 6.59998L11.2 12.6Z" stroke="#093EC5" stroke-width="0.6667"/>
<path d="M11.2 8.89996L10.9 8.39996H11.5H18.2H18.8L18.5 8.89996L15.2 14.9L14.9 15.4L14.6 14.9L11.2 8.89996Z" stroke="#093EC5" stroke-width="0.6667"/>
</g>
</svg>
