<svg width="28" height="20" viewBox="0 0 28 20" fill="none" xmlns="http://www.w3.org/2000/svg">
<rect x="0.25" y="0.25" width="27.5" height="19.5" rx="1.75" fill="white" stroke="#F5F5F5" stroke-width="0.5"/>
<mask id="mask0" mask-type="alpha" maskUnits="userSpaceOnUse" x="0" y="0" width="28" height="20">
<rect x="0.25" y="0.25" width="27.5" height="19.5" rx="1.75" fill="white" stroke="white" stroke-width="0.5"/>
</mask>
<g mask="url(#mask0)">
<path fill-rule="evenodd" clip-rule="evenodd" d="M0 6.66667H28V0H0V6.66667Z" fill="#0884E6"/>
<path fill-rule="evenodd" clip-rule="evenodd" d="M0 20H28V13.3333H0V20Z" fill="#0884E6"/>
<path fill-rule="evenodd" clip-rule="evenodd" d="M14 10.6667L13.0572 10.9428L13.3333 10L13.0572 9.05719L14 9.33333L14.9428 9.05719L14.6667 10L14.9428 10.9428L14 10.6667Z" fill="#0E88E9"/>
<path fill-rule="evenodd" clip-rule="evenodd" d="M19.3333 9.33333L18.3905 9.60948L18.6667 8.66667L18.3905 7.72386L19.3333 8L20.2761 7.72386L20 8.66667L20.2761 9.60948L19.3333 9.33333Z" fill="#0E88E9"/>
<path fill-rule="evenodd" clip-rule="evenodd" d="M19.3333 12L18.3905 12.2761L18.6667 11.3333L18.3905 10.3905L19.3333 10.6667L20.2761 10.3905L20 11.3333L20.2761 12.2761L19.3333 12Z" fill="#0E88E9"/>
<path fill-rule="evenodd" clip-rule="evenodd" d="M8.66666 12L7.72385 12.2761L7.99999 11.3333L7.72385 10.3905L8.66666 10.6667L9.60947 10.3905L9.33333 11.3333L9.60947 12.2761L8.66666 12Z" fill="#0E88E9"/>
<path fill-rule="evenodd" clip-rule="evenodd" d="M8.66666 9.33333L7.72385 9.60948L7.99999 8.66667L7.72385 7.72386L8.66666 8L9.60947 7.72386L9.33333 8.66667L9.60947 9.60948L8.66666 9.33333Z" fill="#0E88E9"/>
</g>
</svg>
