<svg width="28" height="20" viewBox="0 0 28 20" fill="none" xmlns="http://www.w3.org/2000/svg">
<rect width="28" height="20" rx="2" fill="white"/>
<mask id="mask0" mask-type="alpha" maskUnits="userSpaceOnUse" x="0" y="0" width="28" height="20">
<rect width="28" height="20" rx="2" fill="white"/>
</mask>
<g mask="url(#mask0)">
<path fill-rule="evenodd" clip-rule="evenodd" d="M0 20H28V0H0V20Z" fill="#079D7B"/>
</g>
<g clip-path="url(#clip0)">
<path fill-rule="evenodd" clip-rule="evenodd" d="M15.885 8.66665C15.885 8.95851 15.8638 9.2416 15.824 9.51138C15.9262 9.47995 16.0304 9.44997 16.1363 9.4216C17.9145 8.94513 19.5017 9.10234 19.6813 9.77274C19.8436 10.3786 18.8008 11.1963 17.286 11.6998C17.0183 10.9061 15.649 10.6666 14 10.6666C12.3492 10.6666 10.9786 10.9067 10.7132 11.7024C9.21884 11.198 8.19469 10.3889 8.35568 9.78805C8.53532 9.11765 10.1225 8.96044 11.9007 9.43691C11.9941 9.46193 12.0861 9.4882 12.1767 9.51561C12.1364 9.24456 12.115 8.96003 12.115 8.66665C12.115 6.8257 12.9589 5.33331 14 5.33331C15.0411 5.33331 15.885 6.8257 15.885 8.66665ZM10.6667 12L11.8332 12C11.6484 11.9638 11.4599 11.9204 11.2691 11.8697C11.4836 11.8761 11.7482 11.8944 12.051 11.9154C12.5991 11.9533 13.2723 12 14 12C14.7277 12 15.4009 11.9533 15.949 11.9154C16.2404 11.8952 16.4964 11.8775 16.7065 11.8705C16.509 11.9214 16.3142 11.9645 16.1237 12L17.3333 12L19.3333 12C19.1752 12.4747 18.9624 12.922 18.7028 13.3333H9.29718C9.03766 12.922 8.82482 12.4747 8.66668 12L10.6667 12ZM14 16C15.3467 16 16.5835 15.5005 17.5548 14.6666H10.4452C11.4165 15.5005 12.6533 16 14 16Z" fill="white"/>
<path fill-rule="evenodd" clip-rule="evenodd" d="M14 3.99999C14.3682 3.99999 14.6667 3.70151 14.6667 3.33332C14.6667 2.96513 14.3682 2.66666 14 2.66666C13.6318 2.66666 13.3333 2.96513 13.3333 3.33332C13.3333 3.70151 13.6318 3.99999 14 3.99999ZM8.66667 7.33332C9.03486 7.33332 9.33333 7.03485 9.33333 6.66666C9.33333 6.29847 9.03486 5.99999 8.66667 5.99999C8.29848 5.99999 8 6.29847 8 6.66666C8 7.03485 8.29848 7.33332 8.66667 7.33332ZM20 6.66666C20 7.03485 19.7015 7.33332 19.3333 7.33332C18.9651 7.33332 18.6667 7.03485 18.6667 6.66666C18.6667 6.29847 18.9651 5.99999 19.3333 5.99999C19.7015 5.99999 20 6.29847 20 6.66666ZM17.3333 5.33332C17.7015 5.33332 18 5.03485 18 4.66666C18 4.29847 17.7015 3.99999 17.3333 3.99999C16.9651 3.99999 16.6667 4.29847 16.6667 4.66666C16.6667 5.03485 16.9651 5.33332 17.3333 5.33332ZM11.3333 4.66666C11.3333 5.03485 11.0349 5.33332 10.6667 5.33332C10.2985 5.33332 10 5.03485 10 4.66666C10 4.29847 10.2985 3.99999 10.6667 3.99999C11.0349 3.99999 11.3333 4.29847 11.3333 4.66666Z" fill="#FCD117"/>
</g>
<defs>
<clipPath id="clip0">
<rect x="8" y="2.66666" width="12" height="14" fill="white"/>
</clipPath>
</defs>
</svg>
