<svg width="28" height="20" viewBox="0 0 28 20" fill="none" xmlns="http://www.w3.org/2000/svg">
<rect x="0.25" y="0.25" width="27.5" height="19.5" rx="1.75" fill="white" stroke="#F5F5F5" stroke-width="0.5"/>
<mask id="mask0" mask-type="alpha" maskUnits="userSpaceOnUse" x="0" y="0" width="28" height="20">
<rect x="0.25" y="0.25" width="27.5" height="19.5" rx="1.75" fill="white" stroke="white" stroke-width="0.5"/>
</mask>
<g mask="url(#mask0)">
<path fill-rule="evenodd" clip-rule="evenodd" d="M14.6667 20H28V0H14.6667V20Z" fill="#DE233C"/>
<mask id="path-5-outside-1" maskUnits="userSpaceOnUse" x="1.66667" y="1.66666" width="6" height="6" fill="black">
<rect fill="white" x="1.66667" y="1.66666" width="6" height="6"/>
<path fill-rule="evenodd" clip-rule="evenodd" d="M5.33334 2.66666H4.00001V3.99999H2.66667V5.33332H4.00001V6.66666H5.33334V5.33332H6.66667V3.99999H5.33334V2.66666Z"/>
</mask>
<path fill-rule="evenodd" clip-rule="evenodd" d="M5.33334 2.66666H4.00001V3.99999H2.66667V5.33332H4.00001V6.66666H5.33334V5.33332H6.66667V3.99999H5.33334V2.66666Z" fill="#CCCCCD"/>
<path d="M4.00001 2.66666V1.99999H3.33334V2.66666H4.00001ZM5.33334 2.66666H6.00001V1.99999H5.33334V2.66666ZM4.00001 3.99999V4.66666H4.66667V3.99999H4.00001ZM2.66667 3.99999V3.33332H2.00001V3.99999H2.66667ZM2.66667 5.33332H2.00001V5.99999H2.66667V5.33332ZM4.00001 5.33332H4.66667V4.66666H4.00001V5.33332ZM4.00001 6.66666H3.33334V7.33332H4.00001V6.66666ZM5.33334 6.66666V7.33332H6.00001V6.66666H5.33334ZM5.33334 5.33332V4.66666H4.66667V5.33332H5.33334ZM6.66667 5.33332V5.99999H7.33334V5.33332H6.66667ZM6.66667 3.99999H7.33334V3.33332H6.66667V3.99999ZM5.33334 3.99999H4.66667V4.66666H5.33334V3.99999ZM4.00001 3.33332H5.33334V1.99999H4.00001V3.33332ZM4.66667 3.99999V2.66666H3.33334V3.99999H4.66667ZM2.66667 4.66666H4.00001V3.33332H2.66667V4.66666ZM3.33334 5.33332V3.99999H2.00001V5.33332H3.33334ZM4.00001 4.66666H2.66667V5.99999H4.00001V4.66666ZM4.66667 6.66666V5.33332H3.33334V6.66666H4.66667ZM5.33334 5.99999H4.00001V7.33332H5.33334V5.99999ZM4.66667 5.33332V6.66666H6.00001V5.33332H4.66667ZM6.66667 4.66666H5.33334V5.99999H6.66667V4.66666ZM6.00001 3.99999V5.33332H7.33334V3.99999H6.00001ZM5.33334 4.66666H6.66667V3.33332H5.33334V4.66666ZM4.66667 2.66666V3.99999H6.00001V2.66666H4.66667Z" fill="#7B716A" fill-opacity="0.66" mask="url(#path-5-outside-1)"/>
<path fill-rule="evenodd" clip-rule="evenodd" d="M4.66667 5.33333C5.03486 5.33333 5.33333 5.03486 5.33333 4.66667C5.33333 4.29848 5.03486 4 4.66667 4C4.29848 4 4 4.29848 4 4.66667C4 5.03486 4.29848 5.33333 4.66667 5.33333Z" fill="#7B716A"/>
</g>
</svg>
