<svg width="28" height="20" viewBox="0 0 28 20" fill="none" xmlns="http://www.w3.org/2000/svg">
<rect x="0.25" y="0.25" width="27.5" height="19.5" rx="1.75" fill="white" stroke="#F5F5F5" stroke-width="0.5"/>
<mask id="mask0" mask-type="alpha" maskUnits="userSpaceOnUse" x="0" y="0" width="28" height="20">
<rect x="0.25" y="0.25" width="27.5" height="19.5" rx="1.75" fill="white" stroke="white" stroke-width="0.5"/>
</mask>
<g mask="url(#mask0)">
<path fill-rule="evenodd" clip-rule="evenodd" d="M0 13.3334H28V6.66669H0V13.3334Z" fill="#0C47B7"/>
<path fill-rule="evenodd" clip-rule="evenodd" d="M0 20H28V13.3333H0V20Z" fill="#E53B35"/>
</g>
<g clip-path="url(#clip0)">
<path d="M6.94971 3.33333C5.87505 3.33333 4.99249 4.1826 4.95119 5.25647L4.69194 11.9969C4.66847 12.6073 4.92515 13.1948 5.38888 13.5923L8.26456 16.0572C9.2632 16.9132 10.7368 16.9132 11.7355 16.0572L14.6111 13.5923C15.0749 13.1948 15.3315 12.6073 15.3081 11.9969L15.0488 5.25647C15.0075 4.1826 14.125 3.33333 13.0503 3.33333H6.94971Z" fill="#F73744" stroke="white" stroke-width="1.33333"/>
<mask id="mask1" mask-type="alpha" maskUnits="userSpaceOnUse" x="4" y="2" width="12" height="16">
<path d="M6.94971 3.33333C5.87505 3.33333 4.99249 4.1826 4.95119 5.25647L4.69194 11.9969C4.66847 12.6073 4.92515 13.1948 5.38888 13.5923L8.26456 16.0572C9.2632 16.9132 10.7368 16.9132 11.7355 16.0572L14.6111 13.5923C15.0749 13.1948 15.3315 12.6073 15.3081 11.9969L15.0488 5.25647C15.0075 4.1826 14.125 3.33333 13.0503 3.33333H6.94971Z" fill="white" stroke="white" stroke-width="1.33333"/>
</mask>
<g mask="url(#mask1)">
<path fill-rule="evenodd" clip-rule="evenodd" d="M9.33334 11C9.33334 10.8159 9.18411 10.6666 9.00001 10.6666H7.66668C7.48258 10.6666 7.33334 10.5174 7.33334 10.3333V9.66665C7.33334 9.48255 7.48258 9.33331 7.66668 9.33331H9.00001C9.18411 9.33331 9.33334 9.18407 9.33334 8.99998V8.33331C9.33334 8.14922 9.18411 7.99998 9.00001 7.99998H8.33334C8.14925 7.99998 8.00001 7.85074 8.00001 7.66665V6.99998C8.00001 6.81589 8.14925 6.66665 8.33334 6.66665H9.00001C9.1841 6.66665 9.33334 6.51741 9.33334 6.33331V5.66665C9.33334 5.48255 9.48258 5.33331 9.66668 5.33331H10.3333C10.5174 5.33331 10.6667 5.48255 10.6667 5.66665V6.33331C10.6667 6.51741 10.8159 6.66665 11 6.66665H11.6667C11.8508 6.66665 12 6.81588 12 6.99998V7.66665C12 7.85074 11.8508 7.99998 11.6667 7.99998H11C10.8159 7.99998 10.6667 8.14922 10.6667 8.33331V8.99998C10.6667 9.18407 10.8159 9.33331 11 9.33331H12.3333C12.5174 9.33331 12.6667 9.48255 12.6667 9.66665V10.3333C12.6667 10.5174 12.5174 10.6666 12.3333 10.6666H11C10.8159 10.6666 10.6667 10.8159 10.6667 11V13C10.6667 13.1841 10.5174 13.3333 10.3333 13.3333H9.66668C9.48258 13.3333 9.33334 13.1841 9.33334 13V11Z" fill="white"/>
<path fill-rule="evenodd" clip-rule="evenodd" d="M11.2035 13.4255C10.9889 12.9767 10.5307 12.6667 10 12.6667C9.46934 12.6667 9.01109 12.9767 8.79647 13.4255C7.17545 13.6809 6 14.4385 6 15.3334C6 16.4379 7.79086 17.3334 10 17.3334C12.2091 17.3334 14 16.4379 14 15.3334C14 14.4385 12.8246 13.6809 11.2035 13.4255Z" fill="#1251A1"/>
</g>
</g>
<defs>
<clipPath id="clip0">
<rect x="4.66667" y="4" width="10" height="12" fill="white"/>
</clipPath>
</defs>
</svg>
