<svg width="28" height="20" viewBox="0 0 28 20" fill="none" xmlns="http://www.w3.org/2000/svg">
<rect x="0.25" y="0.25" width="27.5" height="19.5" rx="1.75" fill="white" stroke="#F5F5F5" stroke-width="0.5"/>
<mask id="mask0" mask-type="alpha" maskUnits="userSpaceOnUse" x="0" y="0" width="28" height="20">
<rect x="0.25" y="0.25" width="27.5" height="19.5" rx="1.75" fill="white" stroke="white" stroke-width="0.5"/>
</mask>
<g mask="url(#mask0)">
<path fill-rule="evenodd" clip-rule="evenodd" d="M28 0H16V10.6667H0V20H28V0Z" fill="#E20F1B"/>
<path fill-rule="evenodd" clip-rule="evenodd" d="M7 1.33331C6.81591 1.33331 6.66667 1.48255 6.66667 1.66665V3.99998H4.33333C4.14924 3.99998 4 4.14922 4 4.33331V6.33331C4 6.51741 4.14924 6.66665 4.33333 6.66665H6.66667V8.99998C6.66667 9.18407 6.81591 9.33331 7 9.33331H9C9.18409 9.33331 9.33333 9.18407 9.33333 8.99998V6.66665H11.6667C11.8508 6.66665 12 6.51741 12 6.33331V4.33331C12 4.14922 11.8508 3.99998 11.6667 3.99998H9.33333V1.66665C9.33333 1.48255 9.18409 1.33331 9 1.33331H7Z" fill="url(#paint0_linear)"/>
</g>
<defs>
<linearGradient id="paint0_linear" x1="4" y1="1.33331" x2="4" y2="9.33331" gradientUnits="userSpaceOnUse">
<stop stop-color="#DF101B"/>
<stop offset="1" stop-color="#C00711"/>
</linearGradient>
</defs>
</svg>
