<svg width="28" height="20" viewBox="0 0 28 20" fill="none" xmlns="http://www.w3.org/2000/svg">
<rect width="28" height="20" rx="2" fill="white"/>
<mask id="mask0" mask-type="alpha" maskUnits="userSpaceOnUse" x="0" y="0" width="28" height="20">
<rect width="28" height="20" rx="2" fill="white"/>
</mask>
<g mask="url(#mask0)">
<path fill-rule="evenodd" clip-rule="evenodd" d="M28 0H0V1.33333H28V0ZM28 2.66667H0V4H28V2.66667ZM0 5.33333H28V6.66667H0V5.33333ZM28 8H0V9.33333H28V8ZM0 10.6667H28V12H0V10.6667ZM28 13.3333H0V14.6667H28V13.3333ZM0 16H28V17.3333H0V16ZM28 18.6667H0V20H28V18.6667Z" fill="#D02F44"/>
<rect width="12" height="9.33333" fill="#46467F"/>
<g filter="url(#filter0_d)">
<path fill-rule="evenodd" clip-rule="evenodd" d="M2.66666 1.99998C2.66666 2.36817 2.36818 2.66665 1.99999 2.66665C1.63181 2.66665 1.33333 2.36817 1.33333 1.99998C1.33333 1.63179 1.63181 1.33331 1.99999 1.33331C2.36818 1.33331 2.66666 1.63179 2.66666 1.99998ZM5.33333 1.99998C5.33333 2.36817 5.03485 2.66665 4.66666 2.66665C4.29847 2.66665 3.99999 2.36817 3.99999 1.99998C3.99999 1.63179 4.29847 1.33331 4.66666 1.33331C5.03485 1.33331 5.33333 1.63179 5.33333 1.99998ZM7.33333 2.66665C7.70152 2.66665 8 2.36817 8 1.99998C8 1.63179 7.70152 1.33331 7.33333 1.33331C6.96514 1.33331 6.66666 1.63179 6.66666 1.99998C6.66666 2.36817 6.96514 2.66665 7.33333 2.66665ZM10.6667 1.99998C10.6667 2.36817 10.3682 2.66665 10 2.66665C9.63181 2.66665 9.33333 2.36817 9.33333 1.99998C9.33333 1.63179 9.63181 1.33331 10 1.33331C10.3682 1.33331 10.6667 1.63179 10.6667 1.99998ZM3.33333 3.99998C3.70152 3.99998 3.99999 3.7015 3.99999 3.33331C3.99999 2.96512 3.70152 2.66665 3.33333 2.66665C2.96514 2.66665 2.66666 2.96512 2.66666 3.33331C2.66666 3.7015 2.96514 3.99998 3.33333 3.99998ZM6.66666 3.33331C6.66666 3.7015 6.36818 3.99998 5.99999 3.99998C5.6318 3.99998 5.33333 3.7015 5.33333 3.33331C5.33333 2.96512 5.6318 2.66665 5.99999 2.66665C6.36818 2.66665 6.66666 2.96512 6.66666 3.33331ZM8.66666 3.99998C9.03485 3.99998 9.33333 3.7015 9.33333 3.33331C9.33333 2.96512 9.03485 2.66665 8.66666 2.66665C8.29847 2.66665 7.99999 2.96512 7.99999 3.33331C7.99999 3.7015 8.29847 3.99998 8.66666 3.99998ZM10.6667 4.66665C10.6667 5.03484 10.3682 5.33331 10 5.33331C9.63181 5.33331 9.33333 5.03484 9.33333 4.66665C9.33333 4.29846 9.63181 3.99998 10 3.99998C10.3682 3.99998 10.6667 4.29846 10.6667 4.66665ZM7.33333 5.33331C7.70152 5.33331 8 5.03484 8 4.66665C8 4.29846 7.70152 3.99998 7.33333 3.99998C6.96514 3.99998 6.66666 4.29846 6.66666 4.66665C6.66666 5.03484 6.96514 5.33331 7.33333 5.33331ZM5.33333 4.66665C5.33333 5.03484 5.03485 5.33331 4.66666 5.33331C4.29847 5.33331 3.99999 5.03484 3.99999 4.66665C3.99999 4.29846 4.29847 3.99998 4.66666 3.99998C5.03485 3.99998 5.33333 4.29846 5.33333 4.66665ZM1.99999 5.33331C2.36818 5.33331 2.66666 5.03484 2.66666 4.66665C2.66666 4.29846 2.36818 3.99998 1.99999 3.99998C1.63181 3.99998 1.33333 4.29846 1.33333 4.66665C1.33333 5.03484 1.63181 5.33331 1.99999 5.33331ZM3.99999 5.99998C3.99999 6.36817 3.70152 6.66665 3.33333 6.66665C2.96514 6.66665 2.66666 6.36817 2.66666 5.99998C2.66666 5.63179 2.96514 5.33331 3.33333 5.33331C3.70152 5.33331 3.99999 5.63179 3.99999 5.99998ZM5.99999 6.66665C6.36818 6.66665 6.66666 6.36817 6.66666 5.99998C6.66666 5.63179 6.36818 5.33331 5.99999 5.33331C5.6318 5.33331 5.33333 5.63179 5.33333 5.99998C5.33333 6.36817 5.6318 6.66665 5.99999 6.66665ZM9.33333 5.99998C9.33333 6.36817 9.03485 6.66665 8.66666 6.66665C8.29847 6.66665 7.99999 6.36817 7.99999 5.99998C7.99999 5.63179 8.29847 5.33331 8.66666 5.33331C9.03485 5.33331 9.33333 5.63179 9.33333 5.99998ZM10 7.99998C10.3682 7.99998 10.6667 7.7015 10.6667 7.33331C10.6667 6.96512 10.3682 6.66665 10 6.66665C9.63181 6.66665 9.33333 6.96512 9.33333 7.33331C9.33333 7.7015 9.63181 7.99998 10 7.99998ZM8 7.33331C8 7.7015 7.70152 7.99998 7.33333 7.99998C6.96514 7.99998 6.66666 7.7015 6.66666 7.33331C6.66666 6.96512 6.96514 6.66665 7.33333 6.66665C7.70152 6.66665 8 6.96512 8 7.33331ZM4.66666 7.99998C5.03485 7.99998 5.33333 7.7015 5.33333 7.33331C5.33333 6.96512 5.03485 6.66665 4.66666 6.66665C4.29847 6.66665 3.99999 6.96512 3.99999 7.33331C3.99999 7.7015 4.29847 7.99998 4.66666 7.99998ZM2.66666 7.33331C2.66666 7.7015 2.36818 7.99998 1.99999 7.99998C1.63181 7.99998 1.33333 7.7015 1.33333 7.33331C1.33333 6.96512 1.63181 6.66665 1.99999 6.66665C2.36818 6.66665 2.66666 6.96512 2.66666 7.33331Z" fill="url(#paint0_linear)"/>
</g>
</g>
<defs>
<filter id="filter0_d" x="1.33333" y="1.33331" width="9.33333" height="7.66667" filterUnits="userSpaceOnUse" color-interpolation-filters="sRGB">
<feFlood flood-opacity="0" result="BackgroundImageFix"/>
<feColorMatrix in="SourceAlpha" type="matrix" values="0 0 0 0 0 0 0 0 0 0 0 0 0 0 0 0 0 0 127 0"/>
<feOffset dy="1"/>
<feColorMatrix type="matrix" values="0 0 0 0 0 0 0 0 0 0 0 0 0 0 0 0 0 0 0.06 0"/>
<feBlend mode="normal" in2="BackgroundImageFix" result="effect1_dropShadow"/>
<feBlend mode="normal" in="SourceGraphic" in2="effect1_dropShadow" result="shape"/>
</filter>
<linearGradient id="paint0_linear" x1="1.33333" y1="1.33331" x2="1.33333" y2="7.99998" gradientUnits="userSpaceOnUse">
<stop stop-color="white"/>
<stop offset="1" stop-color="#F0F0F0"/>
</linearGradient>
</defs>
</svg>
