<svg width="28" height="20" viewBox="0 0 28 20" fill="none" xmlns="http://www.w3.org/2000/svg">
<g clip-path="url(#clip0)">
<rect width="28" height="20" rx="2" fill="white"/>
<mask id="mask0" mask-type="alpha" maskUnits="userSpaceOnUse" x="0" y="0" width="28" height="20">
<rect width="28" height="20" rx="2" fill="white"/>
</mask>
<g mask="url(#mask0)">
<rect width="28" height="20" fill="#07319C"/>
</g>
<g clip-path="url(#clip1)">
<path fill-rule="evenodd" clip-rule="evenodd" d="M17.3333 9.99998C17.3333 8.90624 17.3333 7.61312 17.3333 6.6658C17.3333 5.92942 17.9303 5.33331 18.6667 5.33331H22.6667C23.403 5.33331 24 5.92942 24 6.6658C24 7.61313 24 8.90624 24 9.99998C24 13.3333 20.6667 14.6666 20.6667 14.6666C20.6667 14.6666 17.3333 13.3333 17.3333 9.99998Z" fill="#008339"/>
<mask id="mask1" mask-type="alpha" maskUnits="userSpaceOnUse" x="17" y="5" width="7" height="10">
<path fill-rule="evenodd" clip-rule="evenodd" d="M17.3333 9.99998C17.3333 8.90624 17.3333 7.61312 17.3333 6.6658C17.3333 5.92942 17.9303 5.33331 18.6667 5.33331H22.6667C23.403 5.33331 24 5.92942 24 6.6658C24 7.61313 24 8.90624 24 9.99998C24 13.3333 20.6667 14.6666 20.6667 14.6666C20.6667 14.6666 17.3333 13.3333 17.3333 9.99998Z" fill="white"/>
</mask>
<g mask="url(#mask1)">
<path fill-rule="evenodd" clip-rule="evenodd" d="M19.3333 7.99996C19.7015 7.99996 20 7.70148 20 7.33329C20 6.9651 19.7015 6.66663 19.3333 6.66663C18.9651 6.66663 18.6667 6.9651 18.6667 7.33329C18.6667 7.70148 18.9651 7.99996 19.3333 7.99996ZM19.3333 9.33329C19.7015 9.33329 20 9.03482 20 8.66663C20 8.29844 19.7015 7.99996 19.3333 7.99996C18.9651 7.99996 18.6667 8.29844 18.6667 8.66663C18.6667 9.03482 18.9651 9.33329 19.3333 9.33329ZM19.3333 10.6666C18.9651 10.6666 18.6667 10.3681 18.6667 9.99996C18.6667 9.63177 18.9651 9.33329 19.3333 9.33329C19.7015 9.33329 20 9.63177 20 9.99996C20 10.3681 19.7015 10.6666 19.3333 10.6666ZM19.3333 10.6666C19.7015 10.6666 20 10.9651 20 11.3333C20 11.7015 19.7015 12 19.3333 12C18.9651 12 18.6667 11.7015 18.6667 11.3333C18.6667 10.9651 18.9651 10.6666 19.3333 10.6666ZM22.6667 11.3333C22.6667 11.7015 22.3682 12 22 12C21.6318 12 21.3333 11.7015 21.3333 11.3333C21.3333 10.9651 21.6318 10.6666 22 10.6666C22.3682 10.6666 22.6667 10.9651 22.6667 11.3333ZM22 9.33329C22.3682 9.33329 22.6667 9.63177 22.6667 9.99996C22.6667 10.3681 22.3682 10.6666 22 10.6666C21.6318 10.6666 21.3333 10.3681 21.3333 9.99996C21.3333 9.63177 21.6318 9.33329 22 9.33329ZM22 7.99996C21.6318 7.99996 21.3333 8.29844 21.3333 8.66663C21.3333 9.03482 21.6318 9.33329 22 9.33329C22.3682 9.33329 22.6667 9.03482 22.6667 8.66663C22.6667 8.29844 22.3682 7.99996 22 7.99996ZM22 7.99996C21.6318 7.99996 21.3333 7.70148 21.3333 7.33329C21.3333 6.9651 21.6318 6.66663 22 6.66663C22.3682 6.66663 22.6667 6.9651 22.6667 7.33329C22.6667 7.70148 22.3682 7.99996 22 7.99996Z" fill="#FFD033"/>
<path fill-rule="evenodd" clip-rule="evenodd" d="M20.6667 11.3333C21.0349 11.3333 21.3333 10.4379 21.3333 9.33331C21.3333 8.22874 21.0349 7.33331 20.6667 7.33331C20.2985 7.33331 20 8.22874 20 9.33331C20 10.4379 20.2985 11.3333 20.6667 11.3333Z" fill="white"/>
</g>
</g>
<path d="M16.6667 13.3334C16.6667 14.6049 18.4879 15.3334 20.6667 15.3334C22.8455 15.3334 24.6667 14.6049 24.6667 13.3334C24.6667 12.9652 24.3682 12.6667 24 12.6667C23.6318 12.6667 23.3333 12.9652 23.3333 13.3334C23.3333 13.3461 23.1717 13.4989 22.7761 13.6572C22.239 13.872 21.4824 14 20.6667 14C19.8509 14 19.0943 13.872 18.5572 13.6572C18.1616 13.4989 18 13.3461 18 13.3334C18 12.9652 17.7015 12.6667 17.3333 12.6667C16.9651 12.6667 16.6667 12.9652 16.6667 13.3334Z" fill="#FFD033"/>
<path d="M0 -0.333333H-0.901086L-0.21693 0.253086L4.33333 4.15331V5.16179L-0.193746 8.39542L-0.333333 8.49513V8.66667V9.33333V9.93475L0.176666 9.616L5.42893 6.33333H6.55984L11.0821 9.56351C11.176 9.6306 11.2886 9.66667 11.404 9.66667C11.9182 9.66667 12.1548 9.02698 11.7644 8.69237L7.66667 5.18002V4.17154L12.0542 1.03762C12.2294 0.912475 12.3333 0.710428 12.3333 0.495127V0V-0.601416L11.8233 -0.282666L6.57107 3H5.44016L0.860413 -0.271244L0.773488 -0.333333H0.666667H0Z" fill="#DB1E36" stroke="white" stroke-width="0.666667"/>
<path fill-rule="evenodd" clip-rule="evenodd" d="M0 3.33333V6H4.66667V9.33333C4.66667 9.70152 4.96514 10 5.33333 10H6.66667C7.03486 10 7.33333 9.70152 7.33333 9.33333V6H12C12.3682 6 12.6667 5.70152 12.6667 5.33333V4C12.6667 3.63181 12.3682 3.33333 12 3.33333H7.33333V0H4.66667V3.33333H0Z" fill="white"/>
<path fill-rule="evenodd" clip-rule="evenodd" d="M0 4H5.33333V3.33333V0H6.66667V3.33333V4H12V5.33333H6.66667V6V9.33333H5.33333V6V5.33333H0V4Z" fill="#DB1E36"/>
</g>
<defs>
<clipPath id="clip0">
<rect width="28" height="20" fill="white"/>
</clipPath>
<clipPath id="clip1">
<rect x="17.3333" y="5.33331" width="7" height="10" fill="white"/>
</clipPath>
</defs>
</svg>
